<svg width="42" height="42" viewBox="0 0 42 42" fill="none" xmlns="http://www.w3.org/2000/svg">
<path d="M9.625 5.25C10.3212 5.25 10.9889 5.52656 11.4812 6.01884C11.9734 6.51113 12.25 7.17881 12.25 7.875V34.125C12.25 34.8212 11.9734 35.4889 11.4812 35.9812C10.9889 36.4734 10.3212 36.75 9.625 36.75H6.125C5.42881 36.75 4.76113 36.4734 4.26884 35.9812C3.77656 35.4889 3.5 34.8212 3.5 34.125V7.875C3.5 7.17881 3.77656 6.51113 4.26884 6.01884C4.76113 5.52656 5.42881 5.25 6.125 5.25H9.625ZM20.125 5.25C20.8212 5.25 21.4889 5.52656 21.9812 6.01884C22.4734 6.51113 22.75 7.17881 22.75 7.875V34.125C22.75 34.8212 22.4734 35.4889 21.9812 35.9812C21.4889 36.4734 20.8212 36.75 20.125 36.75H16.625C15.9288 36.75 15.2611 36.4734 14.7688 35.9812C14.2766 35.4889 14 34.8212 14 34.125V7.875C14 7.17881 14.2766 6.51113 14.7688 6.01884C15.2611 5.52656 15.9288 5.25 16.625 5.25H20.125ZM32.8667 10.717L38.4912 32.6252C38.577 32.9592 38.5961 33.3067 38.5476 33.648C38.499 33.9893 38.3836 34.3177 38.2081 34.6145C38.0326 34.9112 37.8004 35.1705 37.5247 35.3774C37.249 35.5844 36.9352 35.7351 36.6012 35.8207L33.3182 36.6607C32.9843 36.7465 32.6368 36.7656 32.2955 36.717C31.9542 36.6685 31.6258 36.5531 31.329 36.3776C31.0323 36.2021 30.773 35.9699 30.5661 35.6942C30.3591 35.4185 30.2084 35.1047 30.1227 34.7707L24.4982 12.8695C24.4125 12.5356 24.3934 12.188 24.4419 11.8467C24.4905 11.5054 24.6059 11.177 24.7814 10.8803C24.9569 10.5835 25.1891 10.3243 25.4648 10.1173C25.7405 9.91033 26.0543 9.7597 26.3882 9.674L29.6712 8.82875C30.0052 8.743 30.3527 8.72387 30.694 8.77245C31.0353 8.82103 31.3637 8.93636 31.6605 9.11187C31.9572 9.28738 32.2165 9.51962 32.4234 9.79533C32.6304 10.071 32.7811 10.3831 32.8667 10.717Z" fill="#F7B801"/>
</svg>
