<svg width="42" height="42" viewBox="0 0 42 42" fill="none" xmlns="http://www.w3.org/2000/svg">
<path d="M21 3.5C11.34 3.5 3.5 11.34 3.5 21C3.5 30.66 11.34 38.5 21 38.5C30.66 38.5 38.5 30.66 38.5 21C38.5 11.34 30.66 3.5 21 3.5ZM21 10.5C24.3775 10.5 27.125 13.2475 27.125 16.625C27.125 20.0025 24.3775 22.75 21 22.75C17.6225 22.75 14.875 20.0025 14.875 16.625C14.875 13.2475 17.6225 10.5 21 10.5ZM21 35C17.4475 35 13.2475 33.565 10.255 29.96C13.3207 27.5559 17.1041 26.2493 21 26.2493C24.8959 26.2493 28.6793 27.5559 31.745 29.96C28.7525 33.565 24.5525 35 21 35Z" fill="#284062"/>
</svg>
