<svg width="243" height="263" viewBox="0 0 243 263" fill="none" xmlns="http://www.w3.org/2000/svg">
<path d="M214.887 46.8961L222.371 52.4426L231.669 51.8868L226.123 59.3707L226.678 68.6693L219.194 63.1229L209.896 63.6786L215.442 56.1947L214.887 46.8961Z" fill="#021830"/>
<path d="M225.203 114.793L224.699 121.807L228.818 127.506L221.804 127.002L216.105 131.12L216.609 124.107L212.491 118.407L219.504 118.912L225.203 114.793Z" fill="#657EA3"/>
<path d="M38.8913 74.2318L43.9242 79.2655L51.0148 79.891L45.9811 84.9239L45.3555 92.0144L40.3227 86.9808L33.2321 86.3552L38.2658 81.3223L38.8913 74.2318Z" fill="#F7B801"/>
<circle cx="48" cy="119" r="3" fill="#FFD867"/>
<path d="M154.135 15.6511L152.984 17.9537L151.955 15.4834C152.685 15.5197 153.415 15.5786 154.135 15.6511Z" fill="#021830" stroke="#021830" stroke-width="3" stroke-miterlimit="10"/>
<path d="M214.969 159.259V226.479C214.969 244.859 200.442 259.853 182.248 260.601C181.772 260.623 181.296 260.632 180.816 260.632H81.8675C63.0071 260.632 47.7139 245.339 47.7139 226.479V159.259C47.7139 149.256 52.0154 140.258 58.8688 134.012C60.7951 132.258 62.921 130.717 65.2145 129.434C68.1517 127.794 69.9239 124.639 69.9239 121.271V60.0076C69.9239 35.3816 89.8903 15.4152 114.516 15.4152H139.727V2.78723C139.727 2.16626 140.407 1.79458 140.928 2.12093C143.34 3.64391 145.488 5.52043 147.306 7.67345C149.123 9.831 150.614 12.2605 151.711 14.894L151.956 15.4832L152.985 17.9535L154.136 15.6509L158.043 7.85475C158.32 7.30177 159.095 7.27457 159.417 7.80036C161.221 10.7965 162.436 14.0826 163.011 17.4912C181.047 23.2069 194.119 40.082 194.119 60.0076V122.073C194.119 122.286 194.128 122.499 194.142 122.713C194.341 125.713 195.946 128.483 198.534 130.055C201.738 132.004 204.594 134.461 206.987 137.321C211.973 143.255 214.969 150.906 214.969 159.259Z" fill="#021830" stroke="#021830" stroke-width="3" stroke-miterlimit="10"/>
<path opacity="0.36" d="M184.116 69.8076V75.197C184.116 86.5014 174.956 95.6665 163.651 95.6665C152.347 95.6665 143.182 86.5014 143.182 75.197V69.8076H184.116Z" fill="#0071BC" stroke="#2E3192" stroke-width="3" stroke-miterlimit="10"/>
<path d="M161.397 35.3594H103.098C90.5339 35.3594 80.3486 45.5447 80.3486 58.1088V71.9878C80.3486 84.552 90.5339 94.7373 103.098 94.7373H161.397C173.961 94.7373 184.147 84.552 184.147 71.9878V58.1088C184.147 45.5447 173.961 35.3594 161.397 35.3594Z" fill="#002243" stroke="#002243" stroke-width="3" stroke-miterlimit="10"/>
<path d="M121.355 61.45C121.355 50.145 112.191 40.9805 100.886 40.9805C89.5805 40.9805 80.416 50.145 80.416 61.45V72.2015C80.416 83.5065 89.5805 92.671 100.886 92.671C112.191 92.671 121.355 83.5065 121.355 72.2015V61.45Z" fill="#FFF9EC" stroke="#FFF9EC" stroke-width="3" stroke-miterlimit="10"/>
<path d="M113.029 57.9819C113.029 51.2755 107.593 45.8389 100.886 45.8389C94.1798 45.8389 88.7432 51.2755 88.7432 57.9819V70.8184C88.7432 77.5248 94.1798 82.9614 100.886 82.9614C107.593 82.9614 113.029 77.5248 113.029 70.8184V57.9819Z" fill="#1A1A1A" stroke="#1A1A1A" stroke-width="3" stroke-miterlimit="10"/>
<path d="M114.944 66.3076H112.165C110.345 66.3076 108.87 67.7829 108.87 69.6029C108.87 71.4228 110.345 72.8981 112.165 72.8981H114.944C116.764 72.8981 118.239 71.4228 118.239 69.6029C118.239 67.7829 116.764 66.3076 114.944 66.3076Z" fill="#FFF9EC" stroke="#FFF9EC" stroke-width="3" stroke-miterlimit="10"/>
<path d="M184.065 61.45C184.065 50.145 174.9 40.9805 163.595 40.9805C152.29 40.9805 143.126 50.145 143.126 61.45V72.2015C143.126 83.5065 152.29 92.671 163.595 92.671C174.9 92.671 184.065 83.5065 184.065 72.2015V61.45Z" fill="#FFF9EC" stroke="#FFF9EC" stroke-width="3" stroke-miterlimit="10"/>
<path d="M175.739 57.9819C175.739 51.2755 170.303 45.8389 163.596 45.8389C156.89 45.8389 151.453 51.2755 151.453 57.9819V70.8184C151.453 77.5248 156.89 82.9614 163.596 82.9614C170.303 82.9614 175.739 77.5248 175.739 70.8184V57.9819Z" fill="#1A1A1A" stroke="#1A1A1A" stroke-width="3" stroke-miterlimit="10"/>
<path d="M186.146 60.9283C186.146 61.2138 185.915 61.4495 185.625 61.4495H141.567C141.282 61.4495 141.046 61.2184 141.046 60.9283C141.046 49.3382 150.442 39.9375 162.037 39.9375H165.16C176.75 39.9375 186.15 49.3337 186.15 60.9283H186.146Z" fill="#FAAD0C" stroke="#FAAD0C" stroke-width="3" stroke-miterlimit="10"/>
<path d="M177.647 66.3076H174.868C173.049 66.3076 171.573 67.7829 171.573 69.6029C171.573 71.4228 173.049 72.8981 174.868 72.8981H177.647C179.467 72.8981 180.942 71.4228 180.942 69.6029C180.942 67.7829 179.467 66.3076 177.647 66.3076Z" fill="#FFF9EC" stroke="#FFF9EC" stroke-width="3" stroke-miterlimit="10"/>
<path d="M106.565 145.204C105.02 148.653 101.629 150.697 98.0803 150.697C96.8111 150.697 95.5193 150.434 94.2864 149.881L58.8682 134.013C60.7945 132.258 62.9204 130.717 65.2139 129.435C68.1511 127.794 69.9233 124.639 69.9233 121.271V118.602L101.888 132.925C106.57 135.023 108.664 140.522 106.565 145.204Z" fill="#FAAD0C" stroke="#FAAD0C" stroke-width="3" stroke-miterlimit="10"/>
<path d="M157.477 145.271C159.023 148.721 162.413 150.765 165.962 150.765C167.231 150.765 168.523 150.502 169.756 149.949L205.174 134.08C203.248 132.326 201.122 130.785 198.829 129.502C195.891 127.861 194.119 124.706 194.119 121.339V118.669L162.155 132.992C157.473 135.091 155.378 140.589 157.477 145.271Z" fill="#FAAD0C" stroke="#FAAD0C" stroke-width="3" stroke-miterlimit="10"/>
<path d="M144.827 84.3115H119.218C112.771 84.3115 107.546 89.5371 107.546 95.9831V100.742C107.546 107.188 112.771 112.414 119.218 112.414H144.827C151.273 112.414 156.499 107.188 156.499 100.742V95.9831C156.499 89.5371 151.273 84.3115 144.827 84.3115Z" fill="#FFD680" stroke="#FFD680" stroke-width="3" stroke-miterlimit="10"/>
<path d="M123.437 60.9283C123.437 61.2138 123.206 61.4495 122.916 61.4495H78.8582C78.5726 61.4495 78.3369 61.2184 78.3369 60.9283C78.3369 49.3382 87.7331 39.9375 99.3277 39.9375H102.451C114.041 39.9375 123.441 49.3337 123.441 60.9283H123.437Z" fill="#FAAD0C" stroke="#FAAD0C" stroke-width="3" stroke-miterlimit="10"/>
<path d="M47.7139 152.642V228.446C31.3509 228.215 19.1989 213.098 22.5621 197.021L26.7231 177.145C29.1254 165.664 37.2343 156.59 47.7139 152.642Z" fill="#002243" stroke="#002243" stroke-width="3" stroke-miterlimit="10"/>
<path d="M214.969 154.311V230.115C231.332 229.884 243.484 214.767 240.121 198.69L235.96 178.814C233.557 167.333 225.448 158.258 214.969 154.311Z" fill="#002243" stroke="#002243" stroke-width="3" stroke-miterlimit="10"/>
<path opacity="0.37" d="M122.504 70.2607H79.8965V89.2979H122.504V70.2607Z" fill="#29ABE2" stroke="#29ABE2" stroke-width="3" stroke-miterlimit="10"/>
<path d="M127.126 64.3629V81.5055C127.126 88.6308 121.346 94.41 114.221 94.41H87.8817C80.7518 94.41 74.9727 88.6308 74.9727 81.5009V64.3629C74.9727 62.704 76.3143 61.3623 77.9733 61.3623H78.6577C80.3167 61.3623 81.6583 62.704 81.6583 64.3629V78.2963C81.6583 84.4744 86.6669 89.4784 92.8404 89.4784H109.938C116.116 89.4784 121.12 84.4698 121.12 78.2963V64.3629C121.12 62.704 122.461 61.3623 124.12 61.3623C125.779 61.3623 127.121 62.704 127.121 64.3629H127.126Z" fill="#61768A" stroke="#61768A" stroke-width="3" stroke-miterlimit="10"/>
<path d="M159.141 102.216H105.189C102.931 102.216 101.776 97.7829 103.335 95.1087L113.511 77.6171C117.749 70.3286 123.609 66.1767 129.751 66.1041L134.393 66.0497C140.707 65.9772 146.753 70.2289 151.073 77.7757L161.013 95.1359C162.55 97.8192 161.389 102.22 159.141 102.22V102.216Z" fill="#FAAD0C" stroke="#FAAD0C" stroke-width="3" stroke-miterlimit="10"/>
<path d="M14.001 159.81C11.2395 155.027 12.8783 148.911 17.6612 146.149L76.8114 111.999C78.7246 110.894 81.1709 111.55 82.2755 113.463L133.466 202.129C134.571 204.042 133.916 206.488 132.002 207.593L72.8522 241.743C68.0693 244.504 61.9534 242.866 59.192 238.083L14.001 159.81Z" fill="#627EA7"/>
<path d="M58.0039 236.027C55.2425 231.245 56.8812 225.129 61.6642 222.367L124.278 186.217L135.466 205.594L72.8515 241.744C68.0686 244.506 61.9527 242.867 59.1913 238.084L58.0039 236.027Z" fill="#284062"/>
<path d="M66.1836 226.901C63.7921 228.282 62.9728 231.34 64.3535 233.731C65.7342 236.123 68.7921 236.942 71.1836 235.562L66.1836 226.901ZM71.1836 235.562L132.372 200.234L127.372 191.574L66.1836 226.901L71.1836 235.562Z" fill="white"/>
<path d="M25 179L32.3257 154.825C33.3408 151.476 37.8643 150.953 39.6165 153.983L58.2055 186.126C58.7158 187.009 58.87 188.053 58.6365 189.045L49 230L25 179Z" fill="#002243"/>
</svg>
