<svg width="95" height="136" viewBox="0 0 95 136" fill="none" xmlns="http://www.w3.org/2000/svg">
<path d="M16.5 1.5H90.3018C91.9586 1.5 93.3018 2.84315 93.3018 4.5V131.5C93.3017 133.157 91.9586 134.5 90.3018 134.5H16.5C8.21576 134.5 1.50005 127.784 1.5 119.5V16.5C1.5 8.21573 8.21573 1.5 16.5 1.5Z" fill="#657EA3" stroke="#284062" stroke-width="2"/>
<path d="M0.5 120.5C0.5 112.216 7.21573 105.5 15.5 105.5H94.3018V135.5H15.5C7.21573 135.5 0.5 128.784 0.5 120.5V120.5Z" fill="#284062"/>
<path d="M15.5 112.259C11.0817 112.259 7.5 115.841 7.5 120.259C7.5 124.677 11.0817 128.259 15.5 128.259L15.5 112.259ZM15.5 128.259L94.5 128.259L94.5 112.259L15.5 112.259L15.5 128.259Z" fill="white"/>
</svg>
