<svg width="226" height="221" viewBox="0 0 226 221" fill="none" xmlns="http://www.w3.org/2000/svg">
<path fill-rule="evenodd" clip-rule="evenodd" d="M191.842 125.532L206.647 36.8007C207.101 34.0782 205.262 31.503 202.54 31.0487L21.3795 0.822548C18.657 0.368304 16.0817 2.20709 15.6275 4.9296L9.9728 38.8207C11.3482 39.0503 12.6649 39.5485 13.8478 40.2868C15.0309 41.0253 16.057 41.9896 16.8674 43.1246C17.6778 44.2596 18.2568 45.5431 18.5711 46.9019C18.8855 48.2606 18.9292 49.668 18.6997 51.0436C18.4701 52.4193 17.9719 53.7362 17.2335 54.9193C16.495 56.1024 15.5307 57.1284 14.3957 57.9388C13.2607 58.7493 11.9771 59.3282 10.6184 59.6426C9.25983 59.9569 7.8527 60.0006 6.47726 59.7712L0.822807 93.6611C0.368564 96.3836 2.20734 98.9589 4.92983 99.4131L55.4595 107.845L56.6114 100.928C56.7813 99.9077 57.7461 99.2182 58.7664 99.388C59.7866 99.5578 60.476 100.522 60.3061 101.543L59.1542 108.459L56.8772 108.08L186.09 129.639C188.813 130.094 191.388 128.255 191.842 125.532ZM71.9064 9.25353L70.7524 16.1698C70.5822 17.19 71.2713 18.155 72.2915 18.3253C73.3117 18.4955 74.2767 17.8064 74.4469 16.7862L75.6009 9.86994L71.9064 9.25353ZM69.1004 26.0712L68.2547 31.1402C68.0845 32.1604 68.7735 33.1254 69.7937 33.2956C70.8139 33.4659 71.7789 32.7768 71.9491 31.7566L72.7949 26.6876C72.9651 25.6674 72.2761 24.7023 71.2559 24.5321C70.2357 24.3619 69.2706 25.051 69.1004 26.0712ZM64.1047 56.013L63.2589 61.082C63.0887 62.1022 63.7778 63.0673 64.798 63.2375C65.8182 63.4077 66.7832 62.7187 66.9534 61.6985L67.7992 56.6294C67.9694 55.6092 67.2803 54.6442 66.2601 54.474C65.2399 54.3038 64.2749 54.9928 64.1047 56.013ZM66.6025 41.0427L65.7567 46.1117C65.5865 47.1319 66.2755 48.0969 67.2957 48.2672C68.3159 48.4374 69.2809 47.7483 69.4512 46.7281L70.2969 41.6591C70.4671 40.6389 69.7781 39.6739 68.7579 39.5037C67.7377 39.3334 66.7727 40.0225 66.6025 41.0427ZM61.6068 70.9839L60.7611 76.053C60.5909 77.0732 61.2799 78.0382 62.3001 78.2084C63.3203 78.3786 64.2853 77.6896 64.4555 76.6694L65.3013 71.6003C65.4715 70.5801 64.7825 69.6151 63.7623 69.4449C62.7421 69.2747 61.7771 69.9637 61.6068 70.9839ZM59.1088 85.9561L58.263 91.0251C58.0928 92.0453 58.7818 93.0103 59.802 93.1805C60.8222 93.3507 61.7873 92.6617 61.9575 91.6415L62.8032 86.5725C62.9735 85.5523 62.2844 84.5872 61.2642 84.417C60.244 84.2468 59.279 84.9359 59.1088 85.9561ZM193.62 90.176C194.803 90.9145 196.12 91.4127 197.496 91.6422L200.992 70.6917C199.616 70.4622 198.209 70.5059 196.85 70.8203C195.491 71.1347 194.207 71.7136 193.072 72.524C191.937 73.3344 190.973 74.3605 190.235 75.5436C189.496 76.7266 188.998 78.0436 188.768 79.4192C188.539 80.7948 188.583 82.2022 188.897 83.561C189.211 84.9197 189.79 86.2032 190.601 87.3383C191.411 88.4733 192.437 89.4375 193.62 90.176Z" fill="white"/>
<path fill-rule="evenodd" clip-rule="evenodd" d="M9.9728 38.8207L6.47726 59.7712L6.47664 59.7711L9.97219 38.8206L9.9728 38.8207Z" fill="#E6E9EE"/>
<path d="M59.1542 108.459L60.3061 101.543C60.476 100.522 59.7866 99.5578 58.7664 99.388C57.7461 99.2182 56.7813 99.9077 56.6114 100.928L55.4595 107.845L56.8772 108.08L59.1542 108.459Z" fill="#E6E9EE"/>
<path d="M58.263 91.0251L59.1088 85.9561C59.279 84.9359 60.244 84.2468 61.2642 84.417C62.2844 84.5872 62.9735 85.5523 62.8032 86.5725L61.9575 91.6415C61.7873 92.6617 60.8222 93.3507 59.802 93.1805C58.7818 93.0103 58.0928 92.0453 58.263 91.0251Z" fill="#E6E9EE"/>
<path d="M60.7611 76.053L61.6068 70.9839C61.7771 69.9637 62.7421 69.2747 63.7623 69.4449C64.7825 69.6151 65.4715 70.5801 65.3013 71.6003L64.4555 76.6694C64.2853 77.6896 63.3203 78.3786 62.3001 78.2084C61.2799 78.0382 60.5909 77.0732 60.7611 76.053Z" fill="#E6E9EE"/>
<path d="M63.2589 61.082L64.1047 56.013C64.2749 54.9928 65.2399 54.3038 66.2601 54.474C67.2803 54.6442 67.9694 55.6092 67.7992 56.6294L66.9534 61.6985C66.7832 62.7187 65.8182 63.4077 64.798 63.2375C63.7778 63.0673 63.0887 62.1022 63.2589 61.082Z" fill="#E6E9EE"/>
<path d="M65.7567 46.1117L66.6025 41.0427C66.7727 40.0225 67.7377 39.3334 68.7579 39.5037C69.7781 39.6739 70.4671 40.6389 70.2969 41.6591L69.4512 46.7281C69.2809 47.7483 68.3159 48.4374 67.2957 48.2672C66.2755 48.0969 65.5865 47.1319 65.7567 46.1117Z" fill="#E6E9EE"/>
<path d="M68.2547 31.1402L69.1004 26.0712C69.2706 25.051 70.2357 24.3619 71.2559 24.5321C72.2761 24.7023 72.9651 25.6674 72.7949 26.6876L71.9491 31.7566C71.7789 32.7768 70.8139 33.4659 69.7937 33.2956C68.7735 33.1254 68.0845 32.1604 68.2547 31.1402Z" fill="#E6E9EE"/>
<path d="M70.7524 16.1698L71.9064 9.25353L75.6009 9.86994L74.4469 16.7862C74.2767 17.8064 73.3117 18.4955 72.2915 18.3253C71.2713 18.155 70.5822 17.19 70.7524 16.1698Z" fill="#E6E9EE"/>
<path fill-rule="evenodd" clip-rule="evenodd" d="M11.6767 131.117L41.9582 215.826C42.8873 218.425 45.7475 219.778 48.3465 218.849L221.293 157.024C223.892 156.095 225.245 153.235 224.316 150.636L212.751 118.281C211.438 118.751 210.044 118.957 208.652 118.888C207.259 118.819 205.893 118.477 204.633 117.88C203.372 117.284 202.241 116.445 201.305 115.411C200.369 114.377 199.645 113.169 199.176 111.856C198.706 110.543 198.5 109.15 198.569 107.757C198.638 106.364 198.98 104.998 199.577 103.738C200.173 102.477 201.013 101.346 202.046 100.41C203.08 99.474 204.288 98.7504 205.601 98.2809L194.035 65.9278C193.106 63.3288 190.246 61.975 187.646 62.9041L139.408 80.1479L141.77 86.7499C142.118 87.7237 141.611 88.7957 140.638 89.1443C139.664 89.4929 138.592 88.986 138.244 88.0122L135.881 81.4102L138.055 80.6323L14.7004 124.729C12.1013 125.658 10.7475 128.518 11.6767 131.117ZM173.056 174.267L170.696 167.665C170.348 166.691 169.276 166.183 168.302 166.531C167.328 166.88 166.821 167.951 167.169 168.925L169.529 175.528L173.056 174.267ZM167.317 158.212L165.587 153.373C165.239 152.399 164.167 151.892 163.193 152.24C162.219 152.588 161.712 153.66 162.06 154.634L163.79 159.473C164.138 160.447 165.21 160.954 166.184 160.606C167.158 160.258 167.665 159.186 167.317 158.212ZM157.099 129.628L155.369 124.789C155.021 123.815 153.949 123.307 152.975 123.656C152.001 124.004 151.494 125.076 151.842 126.05L153.572 130.889C153.92 131.863 154.992 132.37 155.966 132.022C156.94 131.674 157.447 130.602 157.099 129.628ZM162.208 143.919L160.478 139.08C160.13 138.106 159.058 137.599 158.084 137.947C157.11 138.295 156.603 139.367 156.951 140.341L158.681 145.18C159.029 146.154 160.101 146.662 161.075 146.313C162.048 145.965 162.556 144.893 162.208 143.919ZM151.99 115.336L150.26 110.497C149.911 109.523 148.84 109.015 147.866 109.364C146.892 109.712 146.384 110.783 146.733 111.757L148.463 116.597C148.811 117.571 149.883 118.078 150.856 117.73C151.83 117.382 152.338 116.31 151.99 115.336ZM146.88 101.043L145.15 96.2034C144.802 95.2294 143.73 94.7221 142.756 95.0703C141.782 95.4184 141.275 96.4902 141.623 97.4642L143.353 102.303C143.701 103.277 144.773 103.785 145.747 103.436C146.721 103.088 147.228 102.016 146.88 101.043ZM27.342 162.863C25.949 162.795 24.5561 163.001 23.2429 163.47L30.3927 183.471C31.706 183.001 32.9139 182.278 33.9475 181.342C34.9812 180.405 35.8202 179.275 36.4169 178.014C37.0136 176.753 37.3561 175.388 37.4249 173.995C37.4937 172.602 37.2875 171.209 36.8181 169.896C36.3486 168.582 35.6251 167.375 34.6888 166.341C33.7525 165.307 32.6218 164.468 31.3612 163.871C30.1006 163.275 28.7349 162.932 27.342 162.863Z" fill="#657EA3"/>
<path d="M170.696 167.665L173.056 174.267L169.529 175.528L167.169 168.925C166.821 167.951 167.328 166.88 168.302 166.531C169.276 166.183 170.348 166.691 170.696 167.665Z" fill="white"/>
<path d="M165.587 153.373L167.317 158.212C167.665 159.186 167.158 160.258 166.184 160.606C165.21 160.954 164.138 160.447 163.79 159.473L162.06 154.634C161.712 153.66 162.219 152.588 163.193 152.24C164.167 151.892 165.239 152.399 165.587 153.373Z" fill="white"/>
<path d="M160.478 139.08L162.208 143.919C162.556 144.893 162.048 145.965 161.075 146.313C160.101 146.662 159.029 146.154 158.681 145.18L156.951 140.341C156.603 139.367 157.11 138.295 158.084 137.947C159.058 137.599 160.13 138.106 160.478 139.08Z" fill="white"/>
<path d="M155.369 124.789L157.099 129.628C157.447 130.602 156.94 131.674 155.966 132.022C154.992 132.37 153.92 131.863 153.572 130.889L151.842 126.05C151.494 125.076 152.001 124.004 152.975 123.656C153.949 123.307 155.021 123.815 155.369 124.789Z" fill="white"/>
<path d="M150.26 110.497L151.99 115.336C152.338 116.31 151.83 117.382 150.856 117.73C149.883 118.078 148.811 117.571 148.463 116.597L146.733 111.757C146.384 110.783 146.892 109.712 147.866 109.364C148.84 109.015 149.911 109.523 150.26 110.497Z" fill="white"/>
<path d="M145.15 96.2034L146.88 101.043C147.228 102.016 146.721 103.088 145.747 103.436C144.773 103.785 143.701 103.277 143.353 102.303L141.623 97.4642C141.275 96.4902 141.782 95.4184 142.756 95.0703C143.73 94.7221 144.802 95.2294 145.15 96.2034Z" fill="white"/>
<path d="M135.881 81.4102L138.244 88.0122C138.592 88.986 139.664 89.4929 140.638 89.1443C141.611 88.7957 142.118 87.7237 141.77 86.7499L139.408 80.1479L138.055 80.6323L135.881 81.4102Z" fill="white"/>
</svg>
