<svg width="24" height="24" viewBox="0 0 24 24" fill="none" xmlns="http://www.w3.org/2000/svg">
<path d="M7.04788 13.406L10.5829 16.942L9.16988 18.356L10.5849 19.771L9.17088 21.185L6.69588 18.71L3.86688 21.539L2.45288 20.125L5.28188 17.295L2.80688 14.821L4.22088 13.407L5.63488 14.82L7.04788 13.406ZM2.99988 3L6.54588 3.003L18.3629 14.821L19.7779 13.407L21.1929 14.821L18.7179 17.296L21.5459 20.125L20.1319 21.539L17.3029 18.71L14.8289 21.185L13.4139 19.771L14.8279 18.356L3.00188 6.531L2.99988 3ZM17.4569 3L20.9999 3.003L21.0019 6.526L16.9489 10.578L13.4129 7.043L17.4569 3Z" fill="#9CA6B7"/>
</svg>
