<svg width="1440" height="1024" viewBox="0 0 1440 1024" fill="none" xmlns="http://www.w3.org/2000/svg">
<mask id="mask0_226_257" style="mask-type:luminance" maskUnits="userSpaceOnUse" x="0" y="0" width="1440" height="1024">
<path d="M1440 0H0V1024H1440V0Z" fill="white"/>
</mask>
<g mask="url(#mask0_226_257)">
<path opacity="0.03" d="M1485.1 127.6H8.69V520.32H1485.1V127.6Z" fill="#006C92"/>
<path d="M1170.88 231.3H1116.05V120.81H2234.55V709.47H1116.05V507H1170.88C1182.38 507 1191.71 497.68 1191.71 486.17V252.12C1191.71 240.62 1182.39 231.29 1170.88 231.29V231.3ZM1919.09 486.18C1919.09 497.68 1928.41 507.01 1939.92 507.01H2157.84C2169.35 507.01 2178.67 497.69 2178.67 486.18V252.13C2178.67 240.63 2169.35 231.3 2157.84 231.3H1939.92C1928.42 231.3 1919.09 240.62 1919.09 252.13V486.18ZM1597.45 486.18C1597.45 497.68 1606.77 507.01 1618.28 507.01H1836.19C1847.7 507.01 1857.02 497.69 1857.02 486.18V252.13C1857.02 240.63 1847.7 231.3 1836.19 231.3H1618.28C1606.77 231.3 1597.45 240.62 1597.45 252.13V486.18ZM1277.57 486.18C1277.57 497.68 1286.89 507.01 1298.4 507.01H1516.31C1527.82 507.01 1537.14 497.69 1537.14 486.18V252.13C1537.14 240.63 1527.82 231.3 1516.31 231.3H1298.4C1286.89 231.3 1277.57 240.62 1277.57 252.13V486.18Z" fill="#D63712" stroke="#190C0A" stroke-width="3.87" stroke-miterlimit="10"/>
<path d="M1439.22 709.48H758.91C754.061 709.48 750.13 713.411 750.13 718.26V822.25C750.13 827.1 754.061 831.031 758.91 831.031H1439.22C1444.07 831.031 1448 827.1 1448 822.25V718.26C1448 713.411 1444.07 709.48 1439.22 709.48Z" fill="#280D08"/>
<path d="M1280.38 811.68H419.55V830.69H1280.38V811.68Z" fill="#110503"/>
<path d="M1064.54 231.3H1119.37V120.81H0.860016V709.47H1119.36V507H1064.53C1053.03 507 1043.7 497.68 1043.7 486.17V252.12C1043.7 240.62 1053.02 231.29 1064.53 231.29L1064.54 231.3ZM316.33 486.18C316.33 497.68 307.01 507.01 295.5 507.01H77.59C66.08 507.01 56.76 497.69 56.76 486.18V252.13C56.76 240.63 66.08 231.3 77.59 231.3H295.51C307.01 231.3 316.34 240.62 316.34 252.13V486.18H316.33ZM637.97 486.18C637.97 497.68 628.65 507.01 617.14 507.01H399.23C387.72 507.01 378.4 497.69 378.4 486.18V252.13C378.4 240.63 387.72 231.3 399.23 231.3H617.14C628.65 231.3 637.97 240.62 637.97 252.13V486.18ZM957.85 486.18C957.85 497.68 948.53 507.01 937.02 507.01H719.11C707.6 507.01 698.28 497.69 698.28 486.18V252.13C698.28 240.63 707.6 231.3 719.11 231.3H937.02C948.53 231.3 957.85 240.62 957.85 252.13V486.18Z" fill="#D63712" stroke="#190C0A" stroke-width="3.87" stroke-miterlimit="10"/>
<path d="M860.24 709.48H-0.589996V830.36H860.24V709.48Z" fill="#110503"/>
<path d="M1438.7 830.351H0.860016V943.531H1438.7V830.351Z" fill="#48452B"/>
<path d="M1277.58 668.82H-0.12999V711.16H1277.58V668.82Z" fill="#FFF6E3"/>
<path d="M836.66 515.05H-19.88C-32.9029 515.05 -43.46 525.607 -43.46 538.63V749.83C-43.46 762.853 -32.9029 773.41 -19.88 773.41H836.66C849.683 773.41 860.24 762.853 860.24 749.83V538.63C860.24 525.607 849.683 515.05 836.66 515.05Z" fill="#061B23"/>
<path d="M415.79 529.95H823.04C834.51 529.95 843.83 539.26 843.83 550.74V709.48H395.01V550.74C395.01 539.27 404.32 529.95 415.8 529.95H415.79Z" fill="#FFF6E3"/>
<path d="M-32.92 529.95H374.33C385.8 529.95 395.12 539.26 395.12 550.74V709.48H-53.71V550.74C-53.71 539.27 -44.4 529.95 -32.92 529.95Z" fill="#FFF6E3"/>
<path d="M827.19 786.41H627.58C623.073 786.41 619.42 790.064 619.42 794.57V810.08C619.42 814.587 623.073 818.24 627.58 818.24H827.19C831.697 818.24 835.35 814.587 835.35 810.08V794.57C835.35 790.064 831.697 786.41 827.19 786.41Z" fill="#9E4226"/>
<path d="M578.18 786.41H378.57C374.063 786.41 370.41 790.064 370.41 794.57V810.08C370.41 814.587 374.063 818.24 378.57 818.24H578.18C582.687 818.24 586.34 814.587 586.34 810.08V794.57C586.34 790.064 582.687 786.41 578.18 786.41Z" fill="#9E4226"/>
<path d="M331.28 785.97H131.67C127.163 785.97 123.51 789.623 123.51 794.13V809.64C123.51 814.146 127.163 817.8 131.67 817.8H331.28C335.787 817.8 339.44 814.146 339.44 809.64V794.13C339.44 789.623 335.787 785.97 331.28 785.97Z" fill="#9E4226"/>
<path d="M87.84 785.97H-111.77C-116.277 785.97 -119.93 789.623 -119.93 794.13V809.64C-119.93 814.146 -116.277 817.8 -111.77 817.8H87.84C92.3466 817.8 96 814.146 96 809.64V794.13C96 789.623 92.3466 785.97 87.84 785.97Z" fill="#9E4226"/>
<path d="M1173.11 702.521H849.56C847.887 702.521 846.53 703.877 846.53 705.55V713.401C846.53 715.074 847.887 716.43 849.56 716.43H1173.11C1174.78 716.43 1176.14 715.074 1176.14 713.401V705.55C1176.14 703.877 1174.78 702.521 1173.11 702.521Z" fill="#061B23"/>
<path d="M95.79 713.67V529.95" stroke="#190C0A" stroke-width="3.1" stroke-miterlimit="10"/>
<path d="M245.4 709.48V529.95" stroke="#190C0A" stroke-width="3.1" stroke-miterlimit="10"/>
<path d="M544.62 713.42V529.95" stroke="#190C0A" stroke-width="3.1" stroke-miterlimit="10"/>
<path d="M694.22 713.42V529.95" stroke="#190C0A" stroke-width="3.1" stroke-miterlimit="10"/>
<path d="M395.01 714.71V535.17" stroke="#190C0A" stroke-width="3.1" stroke-miterlimit="10"/>
<path d="M376.3 697.05H-56.74C-67.9182 697.05 -76.98 706.112 -76.98 717.29V736.4C-76.98 747.578 -67.9182 756.64 -56.74 756.64H376.3C387.478 756.64 396.54 747.578 396.54 736.4V717.29C396.54 706.112 387.478 697.05 376.3 697.05Z" fill="#BF2211"/>
<path d="M826.4 697.05H416.78C405.602 697.05 396.54 706.112 396.54 717.29V736.4C396.54 747.578 405.602 756.64 416.78 756.64H826.4C837.578 756.64 846.64 747.578 846.64 736.4V717.29C846.64 706.112 837.578 697.05 826.4 697.05Z" fill="#BF2211"/>
<path d="M-76.98 735.45H846.64" stroke="#190C0A" stroke-width="3.1" stroke-miterlimit="10"/>
<path d="M1438.45 -0.739746H-1.12V204.78H1438.45V-0.739746Z" fill="#FFF6E3"/>
<path d="M1438.45 202.86H-0.12999V216.37H1438.45V202.86Z" fill="#192F2F"/>
<path d="M282.96 792.83H172.18C167.673 792.83 164.02 796.483 164.02 800.99V803.4C164.02 807.907 167.673 811.56 172.18 811.56H282.96C287.467 811.56 291.12 807.907 291.12 803.4V800.99C291.12 796.483 287.467 792.83 282.96 792.83Z" fill="#F7931E"/>
<path d="M532.87 792.96H422.09C417.583 792.96 413.93 796.613 413.93 801.12V803.53C413.93 808.037 417.583 811.69 422.09 811.69H532.87C537.377 811.69 541.03 808.037 541.03 803.53V801.12C541.03 796.613 537.377 792.96 532.87 792.96Z" fill="#F7931E"/>
<path d="M782.78 792.96H672C667.493 792.96 663.84 796.613 663.84 801.12V803.53C663.84 808.037 667.493 811.69 672 811.69H782.78C787.287 811.69 790.94 808.037 790.94 803.53V801.12C790.94 796.613 787.287 792.96 782.78 792.96Z" fill="#F7931E"/>
<path d="M48.6 792.96H-62.18C-66.6866 792.96 -70.34 796.613 -70.34 801.12V803.53C-70.34 808.037 -66.6866 811.69 -62.18 811.69H48.6C53.1066 811.69 56.76 808.037 56.76 803.53V801.12C56.76 796.613 53.1066 792.96 48.6 792.96Z" fill="#F7931E"/>
<path d="M1438.7 925.94H0.470001V1022.02H1438.7V925.94Z" fill="#7C7345"/>
<path d="M1439.21 -26.71H-15.39C-20.239 -26.71 -24.17 -22.779 -24.17 -17.93V45.84C-24.17 50.6891 -20.239 54.62 -15.39 54.62H1439.21C1444.06 54.62 1447.99 50.6891 1447.99 45.84V-17.93C1447.99 -22.779 1444.06 -26.71 1439.21 -26.71Z" fill="#280D08"/>
<path d="M-76.98 732.811H397.25V734.471C397.25 746.711 387.32 756.641 375.08 756.641H-54.81C-67.05 756.641 -76.98 746.711 -76.98 734.471V732.811Z" fill="#770E18"/>
<path d="M1455.34 69.75H-66.9V79.81H1455.34V69.75Z" fill="#192F2F"/>
<path d="M395.01 732.811H846.64V737.361C846.64 748.001 838 756.641 827.36 756.641H414.3C403.66 756.641 395.02 748.001 395.02 737.361V732.811H395.01Z" fill="#770E18"/>
<path d="M1083.38 554.271H932.43C928.94 554.271 926.11 557.1 926.11 560.591V645.88C926.11 649.371 928.94 652.201 932.43 652.201H1083.38C1086.87 652.201 1089.7 649.371 1089.7 645.88V560.591C1089.7 557.1 1086.87 554.271 1083.38 554.271Z" fill="#11313F"/>
<path d="M354.89 -19.02H337.66C333.242 -19.02 329.66 -15.4383 329.66 -11.02V223.3C329.66 227.718 333.242 231.3 337.66 231.3H354.89C359.308 231.3 362.89 227.718 362.89 223.3V-11.02C362.89 -15.4383 359.308 -19.02 354.89 -19.02Z" fill="#660A00"/>
<path d="M679.38 -50.8198H662.15C657.732 -50.8198 654.15 -47.2381 654.15 -42.8198V223.31C654.15 227.728 657.732 231.31 662.15 231.31H679.38C683.798 231.31 687.38 227.728 687.38 223.31V-42.8198C687.38 -47.2381 683.798 -50.8198 679.38 -50.8198Z" fill="#660A00"/>
<path d="M1009.52 -34.6699H992.29C987.872 -34.6699 984.29 -31.0882 984.29 -26.6699V229.27C984.29 233.688 987.872 237.27 992.29 237.27H1009.52C1013.94 237.27 1017.52 233.688 1017.52 229.27V-26.6699C1017.52 -31.0882 1013.94 -34.6699 1009.52 -34.6699Z" fill="#660A00"/>
<path d="M100.18 272.511C80.96 272.511 65.38 288.091 65.38 307.311C65.38 326.531 80.96 342.111 100.18 342.111C119.4 342.111 134.98 326.531 134.98 307.311C134.98 288.091 119.4 272.511 100.18 272.511ZM100.18 327.311C89.13 327.311 80.18 318.361 80.18 307.311C80.18 296.261 89.13 287.311 100.18 287.311C111.23 287.311 120.18 296.261 120.18 307.311C120.18 318.361 111.23 327.311 100.18 327.311Z" fill="#006C92"/>
<path d="M93.9 216.36H106.46V286.68C106.46 290.15 103.65 292.96 100.18 292.96C96.71 292.96 93.9 290.15 93.9 286.68V216.36Z" fill="#11313F"/>
<path d="M270.89 272.511C251.67 272.511 236.09 288.091 236.09 307.311C236.09 326.531 251.67 342.111 270.89 342.111C290.11 342.111 305.69 326.531 305.69 307.311C305.69 288.091 290.11 272.511 270.89 272.511ZM270.89 327.311C259.84 327.311 250.89 318.361 250.89 307.311C250.89 296.261 259.84 287.311 270.89 287.311C281.94 287.311 290.89 296.261 290.89 307.311C290.89 318.361 281.94 327.311 270.89 327.311Z" fill="#006C92"/>
<path d="M264.61 216.36H277.17V286.68C277.17 290.15 274.36 292.96 270.89 292.96C267.42 292.96 264.61 290.15 264.61 286.68V216.36Z" fill="#11313F"/>
<path d="M422.83 272.66C403.61 272.66 388.03 288.24 388.03 307.46C388.03 326.68 403.61 342.26 422.83 342.26C442.05 342.26 457.63 326.68 457.63 307.46C457.63 288.24 442.05 272.66 422.83 272.66ZM422.83 327.47C411.78 327.47 402.83 318.52 402.83 307.47C402.83 296.42 411.78 287.47 422.83 287.47C433.88 287.47 442.83 296.42 442.83 307.47C442.83 318.52 433.88 327.47 422.83 327.47Z" fill="#006C92"/>
<path d="M416.55 216.521H429.11V286.84C429.11 290.311 426.3 293.12 422.83 293.12C419.36 293.12 416.55 290.311 416.55 286.84V216.521Z" fill="#11313F"/>
<path d="M593.54 272.66C574.32 272.66 558.74 288.24 558.74 307.46C558.74 326.68 574.32 342.26 593.54 342.26C612.76 342.26 628.34 326.68 628.34 307.46C628.34 288.24 612.76 272.66 593.54 272.66ZM593.54 327.47C582.49 327.47 573.54 318.52 573.54 307.47C573.54 296.42 582.49 287.47 593.54 287.47C604.59 287.47 613.54 296.42 613.54 307.47C613.54 318.52 604.59 327.47 593.54 327.47Z" fill="#006C92"/>
<path d="M587.26 216.521H599.82V286.84C599.82 290.311 597.01 293.12 593.54 293.12C590.07 293.12 587.26 290.311 587.26 286.84V216.521Z" fill="#11313F"/>
<path d="M742.7 272.66C723.48 272.66 707.9 288.24 707.9 307.46C707.9 326.68 723.48 342.26 742.7 342.26C761.92 342.26 777.5 326.68 777.5 307.46C777.5 288.24 761.92 272.66 742.7 272.66ZM742.7 327.47C731.65 327.47 722.7 318.52 722.7 307.47C722.7 296.42 731.65 287.47 742.7 287.47C753.75 287.47 762.7 296.42 762.7 307.47C762.7 318.52 753.75 327.47 742.7 327.47Z" fill="#006C92"/>
<path d="M736.42 216.521H748.98V286.84C748.98 290.311 746.17 293.12 742.7 293.12C739.23 293.12 736.42 290.311 736.42 286.84V216.521Z" fill="#11313F"/>
<path d="M913.41 272.66C894.19 272.66 878.61 288.24 878.61 307.46C878.61 326.68 894.19 342.26 913.41 342.26C932.63 342.26 948.21 326.68 948.21 307.46C948.21 288.24 932.63 272.66 913.41 272.66ZM913.41 327.47C902.36 327.47 893.41 318.52 893.41 307.47C893.41 296.42 902.36 287.47 913.41 287.47C924.46 287.47 933.41 296.42 933.41 307.47C933.41 318.52 924.46 327.47 913.41 327.47Z" fill="#006C92"/>
<path d="M907.13 216.521H919.69V286.84C919.69 290.311 916.88 293.12 913.41 293.12C909.94 293.12 907.13 290.311 907.13 286.84V216.521Z" fill="#11313F"/>
<path d="M9.48 -19.02H-7.75C-12.1683 -19.02 -15.75 -15.4383 -15.75 -11.02V223.3C-15.75 227.718 -12.1683 231.3 -7.75 231.3H9.48C13.8983 231.3 17.48 227.718 17.48 223.3V-11.02C17.48 -15.4383 13.8983 -19.02 9.48 -19.02Z" fill="#660A00"/>
<path d="M1653.83 704.44H1171.98V830.35H1653.83V704.44Z" fill="#110503"/>
<path d="M1630.25 512.32H1195.56C1182.54 512.32 1171.98 522.877 1171.98 535.9V744.8C1171.98 757.823 1182.54 768.38 1195.56 768.38H1630.25C1643.27 768.38 1653.83 757.823 1653.83 744.8V535.9C1653.83 522.877 1643.27 512.32 1630.25 512.32Z" fill="#061B23"/>
<path d="M1209.37 524.91H1616.62C1628.09 524.91 1637.41 534.22 1637.41 545.7V704.44H1188.59V545.7C1188.59 534.23 1197.9 524.91 1209.38 524.91H1209.37Z" fill="#FFF6E3"/>
<path d="M1633.55 783.45H1433.94C1429.43 783.45 1425.78 787.104 1425.78 791.61V807.12C1425.78 811.627 1429.43 815.28 1433.94 815.28H1633.55C1638.06 815.28 1641.71 811.627 1641.71 807.12V791.61C1641.71 787.104 1638.06 783.45 1633.55 783.45Z" fill="#9E4226"/>
<path d="M1338.2 708.38V524.91" stroke="#190C0A" stroke-width="3.1" stroke-miterlimit="10"/>
<path d="M1619.98 692.01H1206.45C1195.27 692.01 1186.21 701.072 1186.21 712.25V731.36C1186.21 742.538 1195.27 751.6 1206.45 751.6H1619.98C1631.16 751.6 1640.22 742.538 1640.22 731.36V712.25C1640.22 701.072 1631.16 692.01 1619.98 692.01Z" fill="#BF2211"/>
<path d="M1186.21 727.771H1640.22V732.47C1640.22 743.03 1631.65 751.6 1621.09 751.6H1205.34C1194.78 751.6 1186.21 743.03 1186.21 732.47V727.771Z" fill="#770E18"/>
<path d="M1407.08 783.45H1207.47C1202.96 783.45 1199.31 787.104 1199.31 791.61V807.12C1199.31 811.627 1202.96 815.28 1207.47 815.28H1407.08C1411.59 815.28 1415.24 811.627 1415.24 807.12V791.61C1415.24 787.104 1411.59 783.45 1407.08 783.45Z" fill="#9E4226"/>
<path d="M1362.67 790H1251.89C1247.38 790 1243.73 793.653 1243.73 798.16V800.57C1243.73 805.077 1247.38 808.73 1251.89 808.73H1362.67C1367.18 808.73 1370.83 805.077 1370.83 800.57V798.16C1370.83 793.653 1367.18 790 1362.67 790Z" fill="#F7931E"/>
<path d="M1331.59 270.591C1312.37 270.591 1296.79 286.171 1296.79 305.391C1296.79 324.611 1312.37 340.191 1331.59 340.191C1350.81 340.191 1366.39 324.611 1366.39 305.391C1366.39 286.171 1350.81 270.591 1331.59 270.591ZM1331.59 325.391C1320.54 325.391 1311.59 316.441 1311.59 305.391C1311.59 294.341 1320.54 285.391 1331.59 285.391C1342.64 285.391 1351.59 294.341 1351.59 305.391C1351.59 316.441 1342.64 325.391 1331.59 325.391Z" fill="#006C92"/>
<path d="M1325.31 214.44H1337.87V284.76C1337.87 288.23 1335.06 291.04 1331.59 291.04C1328.12 291.04 1325.31 288.23 1325.31 284.76V214.44Z" fill="#11313F"/>
<path d="M1121.23 -34.6699H1111.63C1108.87 -34.6699 1106.63 -32.4313 1106.63 -29.6699V954.44C1106.63 957.201 1108.87 959.44 1111.63 959.44H1121.23C1123.99 959.44 1126.23 957.201 1126.23 954.44V-29.6699C1126.23 -32.4313 1123.99 -34.6699 1121.23 -34.6699Z" fill="#FF931E"/>
<path d="M206.58 543.101H134.61C124.332 543.101 116 551.433 116 561.711V604.731C116 615.009 124.332 623.341 134.61 623.341H206.58C216.858 623.341 225.19 615.009 225.19 604.731V561.711C225.19 551.433 216.858 543.101 206.58 543.101Z" fill="#DBC9A9"/>
<path d="M356.19 546.08H284.22C273.942 546.08 265.61 554.412 265.61 564.69V607.71C265.61 617.988 273.942 626.32 284.22 626.32H356.19C366.468 626.32 374.8 617.988 374.8 607.71V564.69C374.8 554.412 366.468 546.08 356.19 546.08Z" fill="#DBC9A9"/>
<path d="M505.85 546.08H433.88C423.602 546.08 415.27 554.412 415.27 564.69V607.71C415.27 617.988 423.602 626.32 433.88 626.32H505.85C516.128 626.32 524.46 617.988 524.46 607.71V564.69C524.46 554.412 516.128 546.08 505.85 546.08Z" fill="#DBC9A9"/>
<path d="M655.4 543.101H583.43C573.152 543.101 564.82 551.433 564.82 561.711V604.731C564.82 615.009 573.152 623.341 583.43 623.341H655.4C665.678 623.341 674.01 615.009 674.01 604.731V561.711C674.01 551.433 665.678 543.101 655.4 543.101Z" fill="#DBC9A9"/>
<path d="M805.36 543.101H733.39C723.112 543.101 714.78 551.433 714.78 561.711V604.731C714.78 615.009 723.112 623.341 733.39 623.341H805.36C815.638 623.341 823.97 615.009 823.97 604.731V561.711C823.97 551.433 815.638 543.101 805.36 543.101Z" fill="#DBC9A9"/>
<path d="M53.46 543.101H-18.51C-28.788 543.101 -37.12 551.433 -37.12 561.711V604.731C-37.12 615.009 -28.788 623.341 -18.51 623.341H53.46C63.738 623.341 72.07 615.009 72.07 604.731V561.711C72.07 551.433 63.738 543.101 53.46 543.101Z" fill="#DBC9A9"/>
<path d="M1299.89 543.561H1227.92C1217.64 543.561 1209.31 551.893 1209.31 562.171V605.191C1209.31 615.469 1217.64 623.801 1227.92 623.801H1299.89C1310.17 623.801 1318.5 615.469 1318.5 605.191V562.171C1318.5 551.893 1310.17 543.561 1299.89 543.561Z" fill="#DBC9A9"/>
<path d="M1451.23 546.08H1379.26C1368.98 546.08 1360.65 554.412 1360.65 564.69V607.71C1360.65 617.988 1368.98 626.32 1379.26 626.32H1451.23C1461.51 626.32 1469.84 617.988 1469.84 607.71V564.69C1469.84 554.412 1461.51 546.08 1451.23 546.08Z" fill="#DBC9A9"/>
<path d="M1004.48 283.59H997.34C987.062 283.59 978.73 291.922 978.73 302.2V345.22C978.73 355.498 987.062 363.83 997.34 363.83H1004.48C1014.76 363.83 1023.09 355.498 1023.09 345.22V302.2C1023.09 291.922 1014.76 283.59 1004.48 283.59Z" fill="#FFF6E3"/>
<path d="M1235.06 283.59H1227.92C1217.64 283.59 1209.31 291.922 1209.31 302.2V345.22C1209.31 355.498 1217.64 363.83 1227.92 363.83H1235.06C1245.34 363.83 1253.67 355.498 1253.67 345.22V302.2C1253.67 291.922 1245.34 283.59 1235.06 283.59Z" fill="#FFF6E3"/>
<path d="M189.87 143.74H54.34C47.7789 143.74 42.46 149.059 42.46 155.62V190.98C42.46 197.541 47.7789 202.86 54.34 202.86H189.87C196.431 202.86 201.75 197.541 201.75 190.98V155.62C201.75 149.059 196.431 143.74 189.87 143.74Z" fill="#8EA2D7"/>
<path d="M305.509 144.125L231.431 93.1175C221.556 86.3176 208.038 88.8108 201.238 98.6862L188.047 117.844C181.247 127.719 183.74 141.237 193.615 148.037L267.693 199.044C277.568 205.844 291.086 203.351 297.886 193.476L311.077 174.318C317.877 164.443 315.384 150.925 305.509 144.125Z" fill="#1F3F74"/>
<path d="M773.54 84.7803H730.96C726.398 84.7803 722.7 88.4784 722.7 93.0403V194.6C722.7 199.162 726.398 202.86 730.96 202.86H773.54C778.102 202.86 781.8 199.162 781.8 194.6V93.0403C781.8 88.4784 778.102 84.7803 773.54 84.7803Z" fill="#C53E28"/>
<path d="M904.85 195.46V177.25C904.85 173.246 901.604 170 897.6 170H794.02C790.016 170 786.77 173.246 786.77 177.25V195.46C786.77 199.464 790.016 202.71 794.02 202.71H897.6C901.604 202.71 904.85 199.464 904.85 195.46Z" fill="#1F3F74"/>
<path d="M1066.37 563.12H949.43C943.244 563.12 938.23 568.135 938.23 574.32V632.16C938.23 638.346 943.244 643.36 949.43 643.36H1066.37C1072.56 643.36 1077.57 638.346 1077.57 632.16V574.32C1077.57 568.135 1072.56 563.12 1066.37 563.12Z" fill="#55A7BC"/>
<path d="M930.87 162.6V144.39C930.87 140.386 927.624 137.14 923.62 137.14H820.04C816.036 137.14 812.79 140.386 812.79 144.39V162.6C812.79 166.604 816.036 169.85 820.04 169.85H923.62C927.624 169.85 930.87 166.604 930.87 162.6Z" fill="#00A99D"/>
</g>
</svg>
