<svg width="1600" height="900" viewBox="0 0 1600 900" fill="none" xmlns="http://www.w3.org/2000/svg">
<path d="M1595.98 0H0V896.889H1595.98V0Z" fill="url(#paint0_linear_1503_2948)"/>
<path d="M1600 837H0V900H1600V837Z" fill="#6E7EA5"/>
<path opacity="0.16" d="M0 366.638H128.36C168.347 366.638 200.793 391.215 200.793 421.477V797.683H0V366.626V366.638Z" fill="#8EA2D7"/>
<path opacity="0.12" d="M199.748 572.082H416.419C469.135 572.082 511.94 609.573 511.94 655.745V835.981H199.748V572.082Z" fill="#8EA2D7"/>
<g opacity="0.1">
<path d="M778.809 834.056H666.687V705.864C666.687 679.726 690.875 658.54 720.718 658.54H764.363C772.342 658.54 778.823 664.204 778.823 671.205V834.068L778.809 834.056Z" fill="#8EA2D7"/>
</g>
<path opacity="0.18" d="M907.475 530.348H981.089V837.624H862.36V569.863C862.36 548.052 882.573 530.348 907.475 530.348Z" fill="#8EA2D7"/>
<path opacity="0.17" d="M1291.08 439.305H1368.48C1398.56 439.305 1423 460.699 1423 487.058V835.993H1291.08V439.317V439.305Z" fill="#8EA2D7"/>
<path opacity="0.14" d="M1560.79 277.324H1594.72V835.993H1526.32V307.508C1526.32 290.847 1541.76 277.324 1560.78 277.324H1560.79Z" fill="#8EA2D7"/>
<path opacity="0.16" d="M1220.74 712.742H1291.08V835.981H1192.47V737.508C1192.47 723.838 1205.14 712.742 1220.74 712.742Z" fill="#8EA2D7"/>
<path opacity="0.29" d="M1101.09 642.247H1130.4V833.406H1084.85V656.468C1084.85 648.61 1092.13 642.234 1101.11 642.234L1101.09 642.247Z" fill="#8EA2D7"/>
<path d="M597.536 627.461V811.559C597.536 816.438 593.015 820.398 587.444 820.398H92.693C86.9119 820.398 82.2227 816.291 82.2227 811.228V740.217C82.2227 718.737 88.6616 698.57 99.9438 681.123C102.841 676.636 106.075 672.321 109.588 668.214C118.295 658.038 128.807 649.112 140.705 641.805C162.976 628.123 190.103 620.093 219.359 620.093H589.109C593.757 620.093 597.522 623.39 597.522 627.461H597.536Z" fill="#F3F5FF"/>
<path d="M596.85 796.834H82.2227V806.312H596.85V796.834Z" fill="#FB724A"/>
<path d="M465.258 619.075H298.698V820.325H465.258V619.075Z" fill="#FBC44A"/>
<path d="M419.303 632.843H344.653C328.372 632.843 315.174 644.403 315.174 658.663V768.452C315.174 782.712 328.372 794.272 344.653 794.272H419.303C435.584 794.272 448.782 782.712 448.782 768.452V658.663C448.782 644.403 435.584 632.843 419.303 632.843Z" fill="#333333"/>
<path d="M206.312 650.583V659.423C206.312 664.278 201.819 668.214 196.276 668.214H109.588C118.294 658.038 128.807 649.112 140.705 641.805H196.276C201.819 641.805 206.312 645.741 206.312 650.583Z" fill="#333333"/>
<path d="M206.817 694.953V740.279C206.817 747.917 199.748 754.108 191.027 754.108H82.2227V740.205C82.2227 718.725 88.6616 698.557 99.9438 681.111H191.041C199.762 681.111 206.831 687.303 206.831 694.941L206.817 694.953Z" fill="#333333"/>
<path d="M241.238 641.805H232.448C226.549 641.805 221.768 645.993 221.768 651.16V658.859C221.768 664.025 226.549 668.214 232.448 668.214H241.238C247.137 668.214 251.919 664.025 251.919 658.859V651.16C251.919 645.993 247.137 641.805 241.238 641.805Z" fill="#333333"/>
<path d="M511.156 677.556H484.798C478.9 677.556 474.118 681.744 474.118 686.91V722.477C474.118 727.643 478.9 731.831 484.798 731.831H511.156C517.055 731.831 521.837 727.643 521.837 722.477V686.91C521.837 681.744 517.055 677.556 511.156 677.556Z" fill="#333333"/>
<path d="M575.938 677.556H549.58C543.681 677.556 538.899 681.744 538.899 686.91V722.477C538.899 727.643 543.681 731.831 549.58 731.831H575.938C581.836 731.831 586.618 727.643 586.618 722.477V686.91C586.618 681.744 581.836 677.556 575.938 677.556Z" fill="#333333"/>
<path d="M465.566 811.51H298.698V820.987H465.566V811.51Z" fill="#CC524A"/>
<path d="M150.741 820.386H586.603V827.987C586.603 834.277 580.766 839.389 573.585 839.389H163.773C156.592 839.389 150.755 834.277 150.755 827.987V820.386H150.741Z" fill="#333333"/>
<path d="M1250.85 619.909H613.2C609.49 619.909 606.481 622.543 606.481 625.794V814.698C606.481 817.948 609.49 820.582 613.2 820.582H1250.85C1254.57 820.582 1257.57 817.948 1257.57 814.698V625.794C1257.57 622.543 1254.57 619.909 1250.85 619.909Z" fill="#F3F5FF"/>
<path d="M623.251 820.386H1241.77V825.805C1241.77 833.308 1234.81 839.389 1226.26 839.389H638.774C630.208 839.389 623.265 833.296 623.265 825.805V820.386H623.251Z" fill="#333333"/>
<path d="M1257.57 796.834H605.039V806.312H1257.57V796.834Z" fill="#FB724A"/>
<path d="M708.286 677.887H681.928C676.03 677.887 671.248 682.075 671.248 687.241V722.808C671.248 727.974 676.03 732.162 681.928 732.162H708.286C714.185 732.162 718.966 727.974 718.966 722.808V687.241C718.966 682.075 714.185 677.887 708.286 677.887Z" fill="#333333"/>
<path d="M772.479 677.887H746.122C740.223 677.887 735.441 682.075 735.441 687.241V722.808C735.441 727.974 740.223 732.162 746.122 732.162H772.479C778.378 732.162 783.16 727.974 783.16 722.808V687.241C783.16 682.075 778.378 677.887 772.479 677.887Z" fill="#333333"/>
<path d="M836.675 677.887H810.317C804.418 677.887 799.637 682.075 799.637 687.241V722.808C799.637 727.974 804.418 732.162 810.317 732.162H836.675C842.573 732.162 847.355 727.974 847.355 722.808V687.241C847.355 682.075 842.573 677.887 836.675 677.887Z" fill="#333333"/>
<path d="M1066.78 677.887H1040.43C1034.53 677.887 1029.75 682.075 1029.75 687.241V722.808C1029.75 727.974 1034.53 732.162 1040.43 732.162H1066.78C1072.68 732.162 1077.46 727.974 1077.46 722.808V687.241C1077.46 682.075 1072.68 677.887 1066.78 677.887Z" fill="#333333"/>
<path d="M1133.3 677.887H1106.94C1101.04 677.887 1096.26 682.075 1096.26 687.241V722.808C1096.26 727.974 1101.04 732.162 1106.94 732.162H1133.3C1139.2 732.162 1143.98 727.974 1143.98 722.808V687.241C1143.98 682.075 1139.2 677.887 1133.3 677.887Z" fill="#333333"/>
<path d="M1195.81 677.225H1169.46C1163.56 677.225 1158.78 681.413 1158.78 686.579V722.146C1158.78 727.312 1163.56 731.5 1169.46 731.5H1195.81C1201.71 731.5 1206.49 727.312 1206.49 722.146V686.579C1206.49 681.413 1201.71 677.225 1195.81 677.225Z" fill="#333333"/>
<path d="M962.934 619.614H914.166V820.864H962.934V619.614Z" fill="#FBC44A"/>
<path d="M1263.34 627.939H1260.19C1258.81 627.939 1257.7 628.916 1257.7 630.121V810.357C1257.7 811.563 1258.81 812.54 1260.19 812.54H1263.34C1264.72 812.54 1265.83 811.563 1265.83 810.357V630.121C1265.83 628.916 1264.72 627.939 1263.34 627.939Z" fill="#666666" stroke="#333333" stroke-miterlimit="10"/>
<path d="M1271.47 627.939H1268.32C1266.95 627.939 1265.83 628.916 1265.83 630.121V810.357C1265.83 811.563 1266.95 812.54 1268.32 812.54H1271.47C1272.85 812.54 1273.96 811.563 1273.96 810.357V630.121C1273.96 628.916 1272.85 627.939 1271.47 627.939Z" fill="#666666" stroke="#1A1A1A" stroke-miterlimit="10"/>
<path d="M1280.08 627.939H1276.93C1275.56 627.939 1274.44 628.916 1274.44 630.121V810.357C1274.44 811.563 1275.56 812.54 1276.93 812.54H1280.08C1281.46 812.54 1282.57 811.563 1282.57 810.357V630.121C1282.57 628.916 1281.46 627.939 1280.08 627.939Z" fill="#666666" stroke="#1A1A1A" stroke-miterlimit="10"/>
<path d="M1288.47 627.939H1285.32C1283.94 627.939 1282.83 628.916 1282.83 630.121V810.357C1282.83 811.563 1283.94 812.54 1285.32 812.54H1288.47C1289.84 812.54 1290.96 811.563 1290.96 810.357V630.121C1290.96 628.916 1289.84 627.939 1288.47 627.939Z" fill="#666666" stroke="#1A1A1A" stroke-miterlimit="10"/>
<path d="M1296.72 627.939H1293.57C1292.2 627.939 1291.08 628.916 1291.08 630.121V810.357C1291.08 811.563 1292.2 812.54 1293.57 812.54H1296.72C1298.1 812.54 1299.22 811.563 1299.22 810.357V630.121C1299.22 628.916 1298.1 627.939 1296.72 627.939Z" fill="#666666" stroke="#333333" stroke-miterlimit="10"/>
<path d="M1304.86 627.939H1301.71C1300.33 627.939 1299.22 628.916 1299.22 630.121V810.357C1299.22 811.563 1300.33 812.54 1301.71 812.54H1304.86C1306.23 812.54 1307.35 811.563 1307.35 810.357V630.121C1307.35 628.916 1306.23 627.939 1304.86 627.939Z" fill="#666666" stroke="#1A1A1A" stroke-miterlimit="10"/>
<path d="M1313.47 627.939H1310.32C1308.94 627.939 1307.82 628.916 1307.82 630.121V810.357C1307.82 811.563 1308.94 812.54 1310.32 812.54H1313.47C1314.84 812.54 1315.96 811.563 1315.96 810.357V630.121C1315.96 628.916 1314.84 627.939 1313.47 627.939Z" fill="#666666" stroke="#1A1A1A" stroke-miterlimit="10"/>
<path d="M1321.85 627.939H1318.7C1317.32 627.939 1316.21 628.916 1316.21 630.121V810.357C1316.21 811.563 1317.32 812.54 1318.7 812.54H1321.85C1323.23 812.54 1324.34 811.563 1324.34 810.357V630.121C1324.34 628.916 1323.23 627.939 1321.85 627.939Z" fill="#666666" stroke="#1A1A1A" stroke-miterlimit="10"/>
<path d="M1409.17 677.225H1382.81C1376.91 677.225 1372.13 681.413 1372.13 686.579V722.146C1372.13 727.312 1376.91 731.5 1382.81 731.5H1409.17C1415.07 731.5 1419.85 727.312 1419.85 722.146V686.579C1419.85 681.413 1415.07 677.225 1409.17 677.225Z" fill="#333333"/>
<path d="M1595.37 619.576H1328.34C1325.91 619.576 1323.94 621.279 1323.94 623.38V816.616C1323.94 818.717 1325.91 820.42 1328.34 820.42H1595.37C1597.79 820.42 1599.76 818.717 1599.76 816.616V623.38C1599.76 621.279 1597.79 619.576 1595.37 619.576Z" fill="#F3F5FF"/>
<path d="M1345.86 820.386H1600V830.685C1600 835.491 1595.55 839.389 1590.06 839.389H1355.81C1350.32 839.389 1345.87 835.491 1345.87 830.685V820.386H1345.86Z" fill="#333333"/>
<path d="M1596.68 796.834H1324.34V806.312H1596.68V796.834Z" fill="#FB724A"/>
<path d="M1409.17 677.225H1382.81C1376.91 677.225 1372.13 681.413 1372.13 686.579V722.146C1372.13 727.312 1376.91 731.5 1382.81 731.5H1409.17C1415.07 731.5 1419.85 727.312 1419.85 722.146V686.579C1419.85 681.413 1415.07 677.225 1409.17 677.225Z" fill="#333333"/>
<path d="M1475.7 677.225H1449.34C1443.44 677.225 1438.66 681.413 1438.66 686.579V722.146C1438.66 727.312 1443.44 731.5 1449.34 731.5H1475.7C1481.6 731.5 1486.38 727.312 1486.38 722.146V686.579C1486.38 681.413 1481.6 677.225 1475.7 677.225Z" fill="#333333"/>
<path d="M1538.21 676.563H1511.86C1505.96 676.563 1501.18 680.751 1501.18 685.917V721.484C1501.18 726.65 1505.96 730.838 1511.86 730.838H1538.21C1544.11 730.838 1548.89 726.65 1548.89 721.484V685.917C1548.89 680.751 1544.11 676.563 1538.21 676.563Z" fill="#333333"/>
<defs>
<linearGradient id="paint0_linear_1503_2948" x1="797.984" y1="0" x2="797.984" y2="896.889" gradientUnits="userSpaceOnUse">
<stop offset="0.52" stop-color="white"/>
<stop offset="1" stop-color="#8EA2D7"/>
</linearGradient>
</defs>
</svg>
