<svg width="161" height="161" viewBox="0 0 161 161" fill="none" xmlns="http://www.w3.org/2000/svg">
<path d="M93.6091 10.2865L92.9102 11.6843L92.2856 10.1847C92.7286 10.2067 93.1716 10.2425 93.6091 10.2865Z" fill="#021830" stroke="#021830" stroke-width="3" stroke-miterlimit="10"/>
<path d="M130.537 97.4626V138.267C130.537 149.425 121.719 158.527 110.674 158.981C110.385 158.995 110.096 159 109.805 159H49.7394C38.2904 159 29.0068 149.716 29.0068 138.267V97.4626C29.0068 91.39 31.618 85.9283 35.7783 82.1367C36.9477 81.0719 38.2381 80.1364 39.6304 79.3577C41.4134 78.3616 42.4892 76.4466 42.4892 74.4022V37.2129C42.4892 22.264 54.6096 10.1436 69.5585 10.1436H84.8624V2.47788C84.8624 2.10093 85.2751 1.8753 85.5915 2.07341C87.0553 2.99792 88.3596 4.13704 89.4629 5.444C90.5663 6.75372 91.4715 8.22853 92.1374 9.82715L92.2859 10.1848L92.9105 11.6844L93.6094 10.2867L95.9812 5.55406C96.1491 5.21838 96.6196 5.20187 96.8149 5.52105C97.91 7.33979 98.6474 9.33463 98.9969 11.4038C109.945 14.8734 117.88 25.1173 117.88 37.2129V74.8893C117.88 75.0186 117.886 75.1479 117.894 75.2772C118.015 77.0987 118.989 78.7799 120.56 79.7346C122.506 80.9178 124.239 82.4091 125.692 84.1453C128.719 87.747 130.537 92.3916 130.537 97.4626Z" fill="#021830" stroke="#021830" stroke-width="3" stroke-miterlimit="10"/>
<path opacity="0.36" d="M111.808 43.1617V46.4333C111.808 53.2955 106.248 58.8591 99.3853 58.8591C92.523 58.8591 86.9595 53.2955 86.9595 46.4333V43.1617H111.808Z" fill="#0071BC" stroke="#2E3192" stroke-width="3" stroke-miterlimit="10"/>
<path d="M98.0173 22.2505H62.6274C55.0005 22.2505 48.8176 28.4333 48.8176 36.0603V44.4854C48.8176 52.1123 55.0005 58.2952 62.6274 58.2952H98.0173C105.644 58.2952 111.827 52.1123 111.827 44.4854V36.0603C111.827 28.4333 105.644 22.2505 98.0173 22.2505Z" fill="#002243" stroke="#002243" stroke-width="3" stroke-miterlimit="10"/>
<path d="M73.7097 38.0886C73.7097 31.226 68.1465 25.6628 61.2839 25.6628C54.4214 25.6628 48.8582 31.226 48.8582 38.0886V44.6152C48.8582 51.4777 54.4214 57.0409 61.2839 57.0409C68.1465 57.0409 73.7097 51.4777 73.7097 44.6152V38.0886Z" fill="#FFF9EC" stroke="#FFF9EC" stroke-width="3" stroke-miterlimit="10"/>
<path d="M68.6559 35.983C68.6559 31.912 65.3557 28.6118 61.2846 28.6118C57.2136 28.6118 53.9133 31.912 53.9133 35.983V43.7753C53.9133 47.8463 57.2136 51.1466 61.2846 51.1466C65.3557 51.1466 68.6559 47.8463 68.6559 43.7753V35.983Z" fill="#1A1A1A" stroke="#1A1A1A" stroke-width="3" stroke-miterlimit="10"/>
<path d="M69.8181 41.0375H68.1314C67.0267 41.0375 66.1311 41.9331 66.1311 43.0379C66.1311 44.1426 67.0267 45.0382 68.1314 45.0382H69.8181C70.9229 45.0382 71.8185 44.1426 71.8185 43.0379C71.8185 41.9331 70.9229 41.0375 69.8181 41.0375Z" fill="#FFF9EC" stroke="#FFF9EC" stroke-width="3" stroke-miterlimit="10"/>
<path d="M111.777 38.0886C111.777 31.226 106.214 25.6628 99.3513 25.6628C92.4888 25.6628 86.9255 31.226 86.9255 38.0886V44.6152C86.9255 51.4777 92.4888 57.0409 99.3513 57.0409C106.214 57.0409 111.777 51.4777 111.777 44.6152V38.0886Z" fill="#FFF9EC" stroke="#FFF9EC" stroke-width="3" stroke-miterlimit="10"/>
<path d="M106.724 35.983C106.724 31.912 103.423 28.6118 99.3522 28.6118C95.2812 28.6118 91.981 31.912 91.981 35.983V43.7753C91.981 47.8463 95.2812 51.1466 99.3522 51.1466C103.423 51.1466 106.724 47.8463 106.724 43.7753V35.983Z" fill="#1A1A1A" stroke="#1A1A1A" stroke-width="3" stroke-miterlimit="10"/>
<path d="M113.04 37.7717C113.04 37.945 112.9 38.0881 112.724 38.0881H85.9793C85.8059 38.0881 85.6628 37.9478 85.6628 37.7717C85.6628 30.7361 91.3667 25.0294 98.4051 25.0294H100.301C107.336 25.0294 113.043 30.7333 113.043 37.7717H113.04Z" fill="#FAAD0C" stroke="#FAAD0C" stroke-width="3" stroke-miterlimit="10"/>
<path d="M107.882 41.0375H106.195C105.09 41.0375 104.195 41.9331 104.195 43.0379C104.195 44.1426 105.09 45.0382 106.195 45.0382H107.882C108.986 45.0382 109.882 44.1426 109.882 43.0379C109.882 41.9331 108.986 41.0375 107.882 41.0375Z" fill="#FFF9EC" stroke="#FFF9EC" stroke-width="3" stroke-miterlimit="10"/>
<path d="M64.7324 88.9303C63.7941 91.0242 61.736 92.2651 59.5816 92.2651C58.8112 92.2651 58.027 92.1056 57.2786 91.7699L35.7783 82.1369C36.9477 81.072 38.2382 80.1365 39.6304 79.3578C41.4134 78.3618 42.4892 76.4467 42.4892 74.4024V72.7817L61.8929 81.4765C64.7352 82.7504 66.0064 86.088 64.7324 88.9303Z" fill="#FAAD0C" stroke="#FAAD0C" stroke-width="3" stroke-miterlimit="10"/>
<path d="M95.6376 88.971C96.5758 91.0649 98.6339 92.3059 100.788 92.3059C101.559 92.3059 102.343 92.1463 103.091 91.8106L124.592 82.1776C123.422 81.1127 122.132 80.1772 120.74 79.3985C118.957 78.4025 117.881 76.4875 117.881 74.4431V72.8224L98.4771 81.5172C95.6348 82.7912 94.3636 86.1287 95.6376 88.971Z" fill="#FAAD0C" stroke="#FAAD0C" stroke-width="3" stroke-miterlimit="10"/>
<path d="M87.9588 51.9666H72.4128C68.4998 51.9666 65.3276 55.1387 65.3276 59.0517V61.9408C65.3276 65.8538 68.4998 69.0259 72.4128 69.0259H87.9588C91.8718 69.0259 95.0439 65.8538 95.0439 61.9408V59.0517C95.0439 55.1387 91.8718 51.9666 87.9588 51.9666Z" fill="#FFD680" stroke="#FFD680" stroke-width="3" stroke-miterlimit="10"/>
<path d="M74.9734 37.7717C74.9734 37.945 74.8331 38.0881 74.657 38.0881H47.9124C47.739 38.0881 47.5959 37.9478 47.5959 37.7717C47.5959 30.7361 53.2998 25.0294 60.3382 25.0294H62.234C69.2696 25.0294 74.9762 30.7333 74.9762 37.7717H74.9734Z" fill="#FAAD0C" stroke="#FAAD0C" stroke-width="3" stroke-miterlimit="10"/>
<path d="M29.0068 93.4456V139.462C19.0738 139.321 11.6971 130.145 13.7387 120.386L16.2646 108.32C17.7229 101.351 22.6453 95.8422 29.0068 93.4456Z" fill="#002243" stroke="#002243" stroke-width="3" stroke-miterlimit="10"/>
<path d="M130.537 94.4584V140.475C140.47 140.334 147.847 131.158 145.805 121.398L143.279 109.333C141.821 102.363 136.899 96.8549 130.537 94.4584Z" fill="#002243" stroke="#002243" stroke-width="3" stroke-miterlimit="10"/>
<path opacity="0.37" d="M74.4071 43.4371H48.543V54.9934H74.4071V43.4371Z" fill="#29ABE2" stroke="#29ABE2" stroke-width="3" stroke-miterlimit="10"/>
<path d="M77.2128 39.8568V50.263C77.2128 54.5883 73.7046 58.0965 69.3792 58.0965H53.3902C49.0621 58.0965 45.554 54.5883 45.554 50.2602V39.8568C45.554 38.8497 46.3684 38.0353 47.3755 38.0353H47.7909C48.798 38.0353 49.6124 38.8497 49.6124 39.8568V48.3149C49.6124 52.0652 52.6528 55.1029 56.4004 55.1029H66.7791C70.5294 55.1029 73.567 52.0625 73.567 48.3149V39.8568C73.567 38.8497 74.3815 38.0353 75.3885 38.0353C76.3956 38.0353 77.21 38.8497 77.21 39.8568H77.2128Z" fill="#61768A" stroke="#61768A" stroke-width="3" stroke-miterlimit="10"/>
<path d="M96.6477 62.835H63.8965C62.5263 62.835 61.8246 60.144 62.7711 58.5206L68.9483 47.9026C71.5209 43.4782 75.0786 40.9578 78.8069 40.9138L81.6245 40.8807C85.4573 40.8367 89.1278 43.4176 91.75 47.9989L97.7841 58.5371C98.7168 60.166 98.0124 62.8378 96.6477 62.8378V62.835Z" fill="#FAAD0C" stroke="#FAAD0C" stroke-width="3" stroke-miterlimit="10"/>
<path d="M10.5061 101.199C7.74468 96.4158 9.38343 90.2999 14.1664 87.5385L45.3084 69.5586C47.2216 68.454 49.6679 69.1095 50.7725 71.0227L80.2756 122.124C81.3802 124.037 80.7247 126.483 78.8115 127.588L47.6695 145.568C42.8865 148.329 36.7706 146.69 34.0092 141.907L10.5061 101.199Z" fill="#627EA7"/>
<path d="M35.6131 144.687C33.7378 141.439 34.8507 137.286 38.0989 135.41L75.4839 113.826L82.2751 125.589L44.89 147.173C41.6419 149.048 37.4884 147.936 35.6131 144.687Z" fill="#284062"/>
<path d="M39.2356 136.821C36.8441 138.202 36.0248 141.26 37.4055 143.652C38.7862 146.043 41.8441 146.862 44.2356 145.482L41.7356 141.152L39.2356 136.821ZM41.7356 141.152L44.2356 145.482L81.3794 124.037L78.8794 119.707L76.3794 115.376L39.2356 136.821L41.7356 141.152Z" fill="white"/>
<path d="M15.2185 109.446L18.6146 98.2386C19.6296 94.889 24.1531 94.3663 25.9053 97.3961L35.0633 113.232C35.5736 114.114 35.7278 115.158 35.4943 116.15L29.7874 140.405L15.2185 109.446Z" fill="#002243"/>
<path d="M11.098 48.5601L14.7826 51.2908L19.3607 51.0172L16.6299 54.7019L16.9036 59.28L13.2189 56.5492L8.64083 56.8228L11.3716 53.1382L11.098 48.5601Z" fill="#F7B801"/>
<path d="M140.36 71.9028L144.045 74.6336L148.623 74.3599L145.892 78.0446L146.166 82.6227L142.481 79.8919L137.903 80.1655L140.634 76.4809L140.36 71.9028Z" fill="#F7B801"/>
</svg>
