<svg width="559" height="468" viewBox="0 0 559 468" fill="none" xmlns="http://www.w3.org/2000/svg">
<circle cx="505.085" cy="194.851" r="11.0201" fill="#657EA3"/>
<circle cx="5.51003" cy="234.34" r="5.51003" fill="#021830"/>
<circle cx="63.825" cy="153.985" r="6.88753" fill="#FFD867"/>
<path d="M543.679 341.175L543.312 354.261L550.956 363.961L538.617 364.475L528.923 373.275L529.29 360.189L521.647 350.489L533.986 349.974L543.679 341.175Z" fill="#F7B801"/>
<path d="M58.2985 332.161L67.2526 341.116L79.8678 342.229L70.9121 351.184L69.7992 363.799L60.845 354.843L48.2299 353.73L57.1855 344.776L58.2985 332.161Z" fill="#021830"/>
<path d="M421.289 115.262L419.894 125.89L425.651 134.931L415.024 133.536L405.983 139.293L407.377 128.666L401.62 119.624L412.248 121.019L421.289 115.262Z" fill="#021830"/>
<path d="M502.961 363.45L494.838 367.295C482.92 372.931 470.017 375.792 457.081 375.818C446.079 427.352 400.292 466 345.481 466H257.438C243.534 466 230.164 463.742 217.669 459.566C167.841 442.937 131.935 395.91 131.935 340.497V97.7576C131.935 97.1974 131.943 96.6286 131.952 96.0684C131.952 95.975 131.952 95.8816 131.96 95.7882C131.96 95.2959 131.986 94.8036 132.011 94.3112C132.028 93.6237 132.07 92.9361 132.113 92.257C132.147 91.7222 132.189 91.1875 132.232 90.6527C132.283 90.0754 132.334 89.4897 132.393 88.9125V88.887C132.452 88.3098 132.52 87.7411 132.597 87.1639C132.656 86.6885 132.716 86.2216 132.783 85.7548C132.928 84.7531 133.089 83.76 133.267 82.7668C133.335 82.3678 133.412 81.9774 133.488 81.5784C133.768 80.1608 134.082 78.7517 134.43 77.3511C134.515 77.02 134.6 76.6975 134.685 76.3664C134.829 75.8231 134.973 75.2799 135.126 74.7366C135.237 74.3546 135.347 73.9642 135.457 73.5822C135.585 73.1747 135.712 72.7588 135.839 72.3513C136.484 70.3056 137.206 68.2938 137.995 66.3244C138.148 65.9509 138.301 65.569 138.462 65.204C138.53 65.0427 138.598 64.8814 138.666 64.7286C138.802 64.3975 138.946 64.075 139.09 63.7524C139.371 63.1073 139.659 62.4621 139.965 61.834C140.151 61.435 140.338 61.0361 140.533 60.6456C141.696 58.2688 142.978 55.9599 144.353 53.7274C144.54 53.4218 144.727 53.1162 144.922 52.8191C145.092 52.539 145.27 52.2674 145.44 51.9958C145.448 51.9958 145.448 51.9873 145.448 51.9873C145.448 51.9873 145.457 51.9873 145.465 51.9703C145.813 51.427 146.17 50.8837 146.543 50.349C146.883 49.8481 147.231 49.3473 147.587 48.8635C147.613 48.821 147.638 48.7786 147.672 48.7361C147.808 48.5494 147.936 48.3711 148.071 48.1844C148.394 47.7345 148.725 47.2931 149.064 46.8517C164.437 26.6234 188.765 13.5595 216.133 13.5595H254.45C273.991 13.5595 291.986 20.1891 306.307 31.3091L313.53 4.19664C314.575 1.49728 318.284 1.21716 319.71 3.73826L321.238 6.43762C321.578 7.03182 321.909 7.643 322.231 8.24569C329.166 21.4115 331.085 36.6569 328.241 51.2572C328.105 51.9703 328.037 52.6918 328.037 53.4049C328.037 55.3063 328.513 57.1907 329.413 58.8969C330.38 60.739 331.28 62.6319 332.112 64.5588C332.392 64.2617 332.706 63.9816 333.037 63.7269L357.968 44.6786C360.447 43.1761 363.554 45.2304 363.138 48.091L362.705 51.1639C362.603 51.843 362.501 52.522 362.382 53.2011C359.827 67.8609 352.018 81.0945 340.83 90.9073L338.869 92.6305C338.996 94.4555 339.056 96.3061 339.056 98.1651V186.225C339.056 194.001 344.887 200.41 352.417 201.318C353.019 201.403 353.639 201.437 354.267 201.437H371.584C420.189 201.437 459.593 240.841 459.593 289.446V304.378L479.346 276.595C481.426 273.675 486.027 275.101 486.077 278.683L486.213 287.672C486.553 310.32 478.209 332.212 462.963 348.892L502.078 356.464C505.601 357.143 506.204 361.922 502.961 363.45Z" fill="#021830" stroke="#021830" stroke-width="3" stroke-miterlimit="10"/>
<path d="M285.153 88.42V105.923C285.153 129.454 268.982 148.528 249.034 148.528H156.475C147.995 148.528 140.194 145.081 134.031 139.3C132.18 137.569 130.466 135.616 128.946 133.494C126.985 130.769 125.313 127.748 123.98 124.505C122.053 119.845 120.84 114.709 120.475 109.285C124.396 104.939 128.989 101.45 134.031 99.0477V97.7574C134.031 97.1972 134.031 96.6285 134.048 96.0682C134.048 95.9748 134.048 95.8815 134.048 95.7881C134.048 95.2958 134.073 94.8034 134.09 94.3111C134.107 93.6235 134.141 92.9359 134.175 92.2569C134.201 91.7221 134.243 91.1873 134.277 90.6525C134.319 90.0753 134.362 89.4896 134.413 88.9124V88.8869C134.464 88.3097 134.523 87.7409 134.583 87.1637C134.634 86.6884 134.684 86.2215 134.744 85.7546C134.863 84.753 135.007 83.7598 135.151 82.7666C135.211 82.3677 135.27 81.9772 135.338 81.5782C135.576 80.1607 135.839 78.7515 136.136 77.3509C136.204 77.0199 136.28 76.6973 136.348 76.3663C136.467 75.823 136.594 75.2797 136.722 74.7365C136.815 74.3545 136.908 73.964 137.002 73.582C137.112 73.1746 137.214 72.7586 137.324 72.3512C137.868 70.3054 138.479 68.2936 139.149 66.3243C139.277 65.9508 139.413 65.5688 139.548 65.2038C139.608 65.0425 139.667 64.8812 139.718 64.7284C139.837 64.3974 139.956 64.0748 140.075 63.7523C140.312 63.1071 140.559 62.462 140.813 61.8338C140.974 61.4349 141.127 61.0359 141.297 60.6454C142.282 58.2686 143.368 55.9598 144.531 53.7273C144.692 53.4217 144.845 53.1161 145.015 52.819C145.159 52.5389 145.312 52.2672 145.456 51.9956V51.9871C145.456 51.9871 145.456 51.9871 145.473 51.9701C145.771 51.4269 146.068 50.8836 146.39 50.3488C146.679 49.848 146.976 49.3472 147.273 48.8633C147.298 48.8209 147.315 48.7784 147.341 48.736C147.46 48.5492 147.562 48.371 147.68 48.1842C147.952 47.7343 148.232 47.2929 148.521 46.8515C151.076 46.1724 153.724 45.8159 156.441 45.8159H249C268.948 45.8159 285.119 64.8897 285.119 88.42H285.153Z" fill="#002243" stroke="#002243" stroke-width="3" stroke-miterlimit="10"/>
<path d="M285.502 85.2455C285.502 64.074 268.339 46.9111 247.167 46.9111C225.996 46.9111 208.833 64.074 208.833 85.2455V105.38C208.833 126.552 225.996 143.715 247.167 143.715C268.339 143.715 285.502 126.552 285.502 105.38V85.2455Z" fill="#FFF9EC" stroke="#FFF9EC" stroke-width="3" stroke-miterlimit="10"/>
<path d="M269.908 78.7516C269.908 66.1922 259.726 56.0107 247.167 56.0107C234.607 56.0107 224.426 66.1922 224.426 78.7516V102.791C224.426 115.351 234.607 125.532 247.167 125.532C259.726 125.532 269.908 115.351 269.908 102.791V78.7516Z" fill="#1A1A1A" stroke="#1A1A1A" stroke-width="3" stroke-miterlimit="10"/>
<path d="M200.828 161.269L200.2 169.715C199.563 178.263 192.119 184.663 183.579 184.027L120.552 179.324C112.004 178.688 105.603 171.252 106.24 162.704L106.647 157.254L194.097 162.797C196.567 162.95 198.867 162.373 200.828 161.269Z" fill="#FFD680" stroke="#FFD680" stroke-width="3" stroke-miterlimit="10"/>
<path d="M341.398 193.118C345.922 199.51 344.589 208.304 338.096 212.676L276.834 254.015C268.956 259.516 258.108 257.58 252.607 249.694C250.494 246.664 249.483 243.192 249.483 239.754C249.483 234.262 252.072 228.855 256.928 225.468L339.046 168.204V186.217C339.046 188.712 339.938 191.055 341.389 193.118H341.398Z" fill="#FAAD0C" stroke="#FAAD0C" stroke-width="3" stroke-miterlimit="10"/>
<path d="M164.87 242.878C161.449 247.462 156.212 249.881 150.898 249.881C147.282 249.881 143.64 248.761 140.517 246.435L131.935 240.043V196.649L161.305 218.524C169.013 224.263 170.608 235.171 164.87 242.878Z" fill="#FAAD0C" stroke="#FAAD0C" stroke-width="3" stroke-miterlimit="10"/>
<path d="M289.397 84.2695C289.397 84.8043 288.964 85.2457 288.421 85.2457H205.912C205.377 85.2457 204.936 84.8128 204.936 84.2695C204.936 62.5643 222.532 44.959 244.246 44.959H250.095C271.8 44.959 289.405 62.5558 289.405 84.2695H289.397Z" fill="#FAAD0C" stroke="#FAAD0C" stroke-width="3" stroke-miterlimit="10"/>
<path d="M273.48 94.3447H268.277C264.868 94.3447 262.105 97.1077 262.105 100.516C262.105 103.924 264.868 106.687 268.277 106.687H273.48C276.888 106.687 279.651 103.924 279.651 100.516C279.651 97.1077 276.888 94.3447 273.48 94.3447Z" fill="#FFF9EC" stroke="#FFF9EC" stroke-width="3" stroke-miterlimit="10"/>
<path d="M401.395 398.516H297.529C270.858 398.516 252.574 357.839 262.361 320.285L268.6 296.365C274.296 274.515 288.243 260.152 303.768 260.152H395.436C411.166 260.152 425.257 274.897 430.808 297.179L436.767 321.1C446.096 358.526 427.82 398.516 401.395 398.516Z" fill="#002243" stroke="#002243" stroke-width="3" stroke-miterlimit="10"/>
<path d="M154.199 76.366V96.5093C154.199 111.942 145.083 125.243 131.934 131.312C130.016 132.195 128.004 132.934 125.933 133.494C122.724 134.368 119.345 134.835 115.865 134.835C110.679 134.835 105.73 133.808 101.214 131.932L104.889 124.343C105.543 122.994 106.248 121.686 107.003 120.413C109.473 116.279 112.478 112.544 115.942 109.285C120.568 104.938 125.984 101.45 131.934 99.0474V97.7572C131.934 97.1969 131.942 96.6282 131.951 96.0679C131.951 95.9746 131.951 95.8812 131.959 95.7878C131.959 95.2955 131.985 94.8031 132.01 94.3108C132.027 93.6232 132.07 92.9357 132.112 92.2566C132.146 91.7218 132.189 91.187 132.231 90.6522C132.282 90.075 132.333 89.4893 132.392 88.9121V88.8866C132.452 88.3094 132.52 87.7407 132.596 87.1634C132.656 86.6881 132.715 86.2212 132.783 85.7543C132.927 84.7527 133.088 83.7595 133.267 82.7664C133.335 82.3674 133.411 81.9769 133.487 81.578C133.768 80.1604 134.082 78.7513 134.43 77.3506C134.515 77.0196 134.599 76.697 134.684 76.366C134.829 75.8227 134.973 75.2794 135.126 74.7362C135.236 74.3542 135.346 73.9637 135.457 73.5817C135.584 73.1743 135.711 72.7583 135.839 72.3509C136.484 70.3051 137.205 68.2933 137.995 66.324C138.148 65.9505 138.3 65.5685 138.462 65.2035C138.53 65.0422 138.598 64.8809 138.665 64.7282C138.801 64.3971 138.946 64.0745 139.09 63.752C139.37 63.1068 139.659 62.4617 139.964 61.8335C140.151 61.4346 140.338 61.0356 140.533 60.6451C141.696 58.2684 142.978 55.9595 144.353 53.727C144.54 53.4214 144.726 53.1158 144.921 52.8187C145.091 52.5386 145.27 52.2669 145.439 51.9953C145.448 51.9953 145.448 51.9868 145.448 51.9868C150.914 58.6079 154.199 67.105 154.199 76.366Z" fill="#FFF9EC" stroke="#FFF9EC" stroke-width="3" stroke-miterlimit="10"/>
<path d="M142.758 77.7245V101.764C142.758 109.956 138.429 117.128 131.935 121.135C128.488 123.257 124.422 124.497 120.076 124.505H120.017C115.178 124.505 110.688 122.994 107.004 120.414C109.474 116.28 112.479 112.545 115.942 109.285C120.569 104.939 125.984 101.45 131.935 99.0478V97.7575C131.935 97.1973 131.943 96.6285 131.952 96.0683C131.952 95.9749 131.952 95.8815 131.96 95.7882C131.96 95.2958 131.986 94.8035 132.011 94.3112C132.028 93.6236 132.071 92.936 132.113 92.2569C132.147 91.7222 132.189 91.1874 132.232 90.6526C132.283 90.0754 132.334 89.4897 132.393 88.9124V88.887C132.453 88.3097 132.521 87.741 132.597 87.1638C132.656 86.6884 132.716 86.2216 132.784 85.7547C132.928 84.753 133.089 83.7599 133.268 82.7667C133.335 82.3678 133.412 81.9773 133.488 81.5783C133.768 80.1607 134.082 78.7516 134.43 77.351C134.515 77.02 134.6 76.6974 134.685 76.3663C134.829 75.8231 134.974 75.2798 135.127 74.7365C135.237 74.3545 135.347 73.9641 135.458 73.5821C135.585 73.1746 135.712 72.7587 135.84 72.3512C136.485 70.3055 137.206 68.2937 137.996 66.3244C138.148 65.9509 138.301 65.5689 138.463 65.2039C138.53 65.0426 138.598 64.8813 138.666 64.7285C141.009 68.0645 142.461 72.0541 142.715 76.3663C142.741 76.8162 142.758 77.2661 142.758 77.7245Z" fill="#1A1A1A" stroke="#1A1A1A" stroke-width="3" stroke-miterlimit="10"/>
<path d="M158.097 75.3904C158.097 75.9252 157.664 76.3666 157.121 76.3666H134.686C134.83 75.8233 134.974 75.2801 135.127 74.7368C135.237 74.3548 135.348 73.9643 135.458 73.5824C135.585 73.1749 135.713 72.759 135.84 72.3515C136.485 70.3058 137.207 68.294 137.996 66.3246C138.149 65.9511 138.302 65.5691 138.463 65.2041C138.531 65.0429 138.599 64.8816 138.667 64.7288C138.802 64.3977 138.947 64.0752 139.091 63.7526C139.371 63.1075 139.66 62.4623 139.965 61.8342C140.152 61.4352 140.339 61.0363 140.534 60.6458C141.697 58.269 142.979 55.9601 144.354 53.7276C144.541 53.422 144.728 53.1164 144.923 52.8193C145.093 52.5392 145.271 52.2676 145.441 51.9959C145.449 51.9959 145.449 51.9874 145.449 51.9874C145.449 51.9874 145.458 51.9874 145.466 51.9705C145.814 51.4272 146.171 50.8839 146.544 50.3492C146.884 49.8483 147.232 49.3475 147.588 48.8637C147.614 48.8212 147.639 48.7788 147.673 48.7363C154.15 55.7394 158.097 65.1108 158.097 75.3904Z" fill="#FAAD0C" stroke="#FAAD0C" stroke-width="3" stroke-miterlimit="10"/>
<path d="M152.654 93.5472C152.654 90.1389 149.891 87.376 146.483 87.376C143.074 87.376 140.312 90.1389 140.312 93.5472C140.312 96.9554 143.074 99.7184 146.483 99.7184C149.891 99.7184 152.654 96.9554 152.654 93.5472Z" fill="#FFF9EC" stroke="#FFF9EC" stroke-width="3" stroke-miterlimit="10"/>
<path opacity="0.37" d="M165.235 87.4697H116.655V123.122H165.235V87.4697Z" fill="#29ABE2" stroke="#29ABE2" stroke-width="3" stroke-miterlimit="10"/>
<path d="M171.406 76.4344V108.538C171.406 121.882 165.014 132.705 157.128 132.705H127.979C120.084 132.705 113.692 121.882 113.692 108.53V76.4344C113.692 73.3276 115.178 70.8149 117.011 70.8149H117.767C119.6 70.8149 121.086 73.3276 121.086 76.4344V102.528C121.086 114.098 126.629 123.47 133.462 123.47H152.383C159.217 123.47 164.76 114.09 164.76 102.528V76.4344C164.76 73.3276 166.245 70.8149 168.079 70.8149C169.912 70.8149 171.398 73.3276 171.398 76.4344H171.406Z" fill="#61768A" stroke="#61768A" stroke-width="3" stroke-miterlimit="10"/>
<path d="M200.827 161.269C198.866 162.373 196.566 162.95 194.096 162.797L131.934 158.858L106.647 157.254L95.8493 156.566C92.8104 156.38 90.9429 153.171 92.2671 150.429L101.214 131.933L104.89 124.344C105.543 122.994 106.248 121.687 107.003 120.414C109.473 116.28 112.478 112.545 115.942 109.285C120.568 104.939 125.984 101.45 131.934 99.0478C133.649 98.3518 135.406 97.7576 137.197 97.2482L142.757 95.6779L154.2 92.4437L177.11 85.9754C185.718 83.5392 194.588 88.9294 196.396 97.6981L206.803 148.171C206.829 148.29 206.846 148.409 206.863 148.528C207.805 153.85 205.157 158.833 200.827 161.269Z" fill="#FAAD0C" stroke="#FAAD0C" stroke-width="3" stroke-miterlimit="10"/>
</svg>
