<svg width="183" height="164" viewBox="0 0 183 164" fill="none" xmlns="http://www.w3.org/2000/svg">
<path d="M161.058 21.4473L167.973 26.5717L176.564 26.0583L171.439 32.9727L171.953 41.5638L165.038 36.4394L156.447 36.9528L161.572 30.0383L161.058 21.4473Z" fill="#021830"/>
<path d="M20.0964 43.7833L24.2804 46.8841L29.4789 46.5734L26.3781 50.7574L26.6888 55.956L22.5047 52.8551L17.3062 53.1658L20.407 48.9818L20.0964 43.7833Z" fill="#F7B801"/>
<path d="M2.73196 126.447L5.52889 127.771C9.63223 129.711 14.0746 130.696 18.5287 130.705C22.3164 148.448 38.0809 161.755 56.9522 161.755H87.2655C92.0527 161.755 96.6558 160.977 100.958 159.54C118.114 153.814 130.476 137.623 130.476 118.544V34.9693C130.476 34.7764 130.473 34.5806 130.47 34.3877C130.47 34.3555 130.47 34.3234 130.467 34.2912C130.467 34.1217 130.459 33.9522 130.45 33.7827C130.444 33.546 130.429 33.3092 130.415 33.0754C130.403 32.8913 130.389 32.7072 130.374 32.5231C130.356 32.3243 130.339 32.1227 130.318 31.9239V31.9152C130.298 31.7164 130.275 31.5206 130.248 31.3219C130.228 31.1582 130.207 30.9975 130.184 30.8367C130.134 30.4918 130.079 30.1499 130.017 29.808C129.994 29.6706 129.968 29.5361 129.941 29.3988C129.845 28.9107 129.737 28.4256 129.617 27.9433C129.588 27.8293 129.558 27.7183 129.529 27.6043C129.48 27.4173 129.43 27.2302 129.377 27.0432C129.339 26.9116 129.301 26.7772 129.263 26.6457C129.219 26.5054 129.176 26.3622 129.132 26.2219C128.91 25.5176 128.661 24.8249 128.389 24.1469C128.337 24.0183 128.284 23.8868 128.229 23.7611C128.205 23.7055 128.182 23.65 128.159 23.5974C128.112 23.4834 128.062 23.3724 128.012 23.2613C127.916 23.0392 127.817 22.8171 127.711 22.6008C127.647 22.4634 127.583 22.3261 127.516 22.1916C127.115 21.3733 126.674 20.5784 126.2 19.8097C126.136 19.7045 126.072 19.5993 126.005 19.497C125.946 19.4006 125.885 19.307 125.826 19.2135C125.823 19.2135 125.823 19.2106 125.823 19.2106C125.823 19.2106 125.82 19.2106 125.818 19.2047C125.698 19.0177 125.575 18.8306 125.446 18.6465C125.329 18.4741 125.21 18.3016 125.087 18.1351C125.078 18.1204 125.069 18.1058 125.058 18.0912C125.011 18.0269 124.967 17.9656 124.92 17.9013C124.809 17.7464 124.695 17.5944 124.578 17.4424C119.286 10.4778 110.909 5.97994 101.487 5.97994H88.2942C81.5664 5.97994 75.3704 8.26249 70.44 12.0911L67.9529 2.7563C67.5934 1.82691 66.3162 1.73047 65.8252 2.59848L65.2991 3.52787C65.1822 3.73245 65.0682 3.94288 64.9572 4.15039C62.5694 8.68335 61.9089 13.9324 62.888 18.9592C62.9347 19.2047 62.9581 19.4532 62.9581 19.6987C62.9581 20.3533 62.7945 21.0021 62.4847 21.5896C62.1515 22.2238 61.8417 22.8755 61.5553 23.539C61.4588 23.4367 61.3507 23.3402 61.2367 23.2525L52.653 16.6942C51.7996 16.1769 50.7299 16.8842 50.8731 17.8691L51.0222 18.9271C51.0573 19.1609 51.0923 19.3947 51.1333 19.6285C52.013 24.6759 54.7018 29.2322 58.5538 32.6107L59.2289 33.204C59.185 33.8324 59.1646 34.4695 59.1646 35.1096V65.4287C59.1646 68.1058 57.1567 70.3124 54.5644 70.6251C54.3569 70.6543 54.1435 70.666 53.9273 70.666H47.9651C31.2303 70.666 17.6636 84.2327 17.6636 100.968V106.108L10.8626 96.5428C10.1466 95.5374 8.56256 96.0284 8.54503 97.2617L8.49826 100.357C8.38136 108.154 11.2543 115.692 16.5033 121.435L3.03591 124.042C1.82303 124.275 1.61552 125.921 2.73196 126.447Z" fill="#021830" stroke="#021830" stroke-width="3" stroke-miterlimit="10"/>
<path d="M77.7233 31.7545V37.7809C77.7233 45.8824 83.2909 52.4495 90.159 52.4495H122.027C124.947 52.4495 127.633 51.2629 129.754 49.2726C130.392 48.6764 130.982 48.0042 131.505 47.2736C132.18 46.3354 132.756 45.295 133.215 44.1785C133.878 42.574 134.296 40.8058 134.422 38.9383C133.072 37.4419 131.491 36.2407 129.754 35.4136V34.9694C129.754 34.7765 129.754 34.5807 129.749 34.3878C129.749 34.3557 129.749 34.3235 129.749 34.2914C129.749 34.1218 129.74 33.9523 129.734 33.7828C129.728 33.5461 129.716 33.3094 129.705 33.0756C129.696 32.8914 129.681 32.7073 129.67 32.5232C129.655 32.3244 129.64 32.1228 129.623 31.924V31.9153C129.605 31.7165 129.585 31.5207 129.565 31.322C129.547 31.1583 129.529 30.9976 129.509 30.8368C129.468 30.492 129.418 30.15 129.369 29.8081C129.348 29.6707 129.328 29.5363 129.304 29.3989C129.223 28.9108 129.132 28.4257 129.03 27.9435C129.006 27.8295 128.98 27.7184 128.957 27.6044C128.916 27.4174 128.872 27.2303 128.828 27.0433C128.796 26.9118 128.764 26.7773 128.732 26.6458C128.694 26.5055 128.658 26.3623 128.621 26.222C128.433 25.5177 128.223 24.825 127.992 24.147C127.948 24.0184 127.902 23.8869 127.855 23.7612C127.834 23.7057 127.814 23.6501 127.796 23.5975C127.755 23.4836 127.714 23.3725 127.674 23.2614C127.592 23.0393 127.507 22.8172 127.419 22.6009C127.364 22.4636 127.311 22.3262 127.253 22.1918C126.914 21.3734 126.54 20.5785 126.139 19.8098C126.084 19.7046 126.031 19.5994 125.973 19.4971C125.923 19.4007 125.87 19.3072 125.821 19.2136V19.2107C125.821 19.2107 125.821 19.2107 125.815 19.2049C125.713 19.0178 125.61 18.8308 125.499 18.6466C125.4 18.4742 125.297 18.3018 125.195 18.1352C125.186 18.1206 125.181 18.106 125.172 18.0913C125.131 18.027 125.096 17.9657 125.055 17.9014C124.961 17.7465 124.865 17.5945 124.766 17.4425C123.886 17.2087 122.974 17.086 122.039 17.086H90.1707C83.3026 17.086 77.735 23.6531 77.735 31.7545H77.7233Z" fill="#002243" stroke="#002243" stroke-width="3" stroke-miterlimit="10"/>
<path d="M77.6034 30.6615C77.6034 23.3721 83.5125 17.463 90.8019 17.463C98.0912 17.463 104 23.3721 104 30.6615V37.5939C104 44.8832 98.0912 50.7924 90.8019 50.7924C83.5125 50.7924 77.6034 44.8832 77.6034 37.5939V30.6615Z" fill="#FFF9EC" stroke="#FFF9EC" stroke-width="3" stroke-miterlimit="10"/>
<path d="M82.9723 28.4256C82.9723 24.1014 86.4777 20.5959 90.8019 20.5959C95.1261 20.5959 98.6316 24.1014 98.6316 28.4256V36.7024C98.6316 41.0266 95.1261 44.5321 90.8019 44.5321C86.4777 44.5321 82.9723 41.0266 82.9723 36.7024V28.4256Z" fill="#1A1A1A" stroke="#1A1A1A" stroke-width="3" stroke-miterlimit="10"/>
<path d="M106.756 56.8361L106.973 59.7441C107.192 62.6872 109.755 64.8908 112.695 64.6716L134.395 63.0525C137.339 62.8333 139.542 60.2731 139.323 57.3301L139.183 55.4537L109.074 57.3622C108.224 57.4148 107.431 57.2161 106.756 56.8361Z" fill="#FFD680" stroke="#FFD680" stroke-width="3" stroke-miterlimit="10"/>
<path d="M58.3582 67.8019C56.8004 70.0026 57.2593 73.0304 59.4951 74.5356L80.5875 88.7687C83.2997 90.6625 87.0348 89.9962 88.9286 87.2811C89.6564 86.2377 90.0042 85.0423 90.0042 83.8587C90.0042 81.9678 89.1128 80.1061 87.441 78.9399L59.1677 59.224V65.4258C59.1677 66.285 58.8609 67.0917 58.3611 67.8019H58.3582Z" fill="#FAAD0C" stroke="#FAAD0C" stroke-width="3" stroke-miterlimit="10"/>
<path d="M119.136 84.9341C120.314 86.5123 122.118 87.3453 123.947 87.3453C125.192 87.3453 126.446 86.9595 127.521 86.1587L130.476 83.958V69.0176L120.364 76.5492C117.71 78.5248 117.161 82.2804 119.136 84.9341Z" fill="#FAAD0C" stroke="#FAAD0C" stroke-width="3" stroke-miterlimit="10"/>
<path d="M76.2619 30.3252C76.2619 30.5093 76.4109 30.6613 76.598 30.6613H105.006C105.19 30.6613 105.342 30.5122 105.342 30.3252C105.342 22.852 99.2832 16.7906 91.8072 16.7906H89.7935C82.3204 16.7906 76.2589 22.8491 76.2589 30.3252H76.2619Z" fill="#FAAD0C" stroke="#FAAD0C" stroke-width="3" stroke-miterlimit="10"/>
<path d="M81.7419 33.7945H83.5335C84.7069 33.7945 85.6582 34.7458 85.6582 35.9192C85.6582 37.0927 84.7069 38.044 83.5335 38.044H81.7419C80.5684 38.044 79.6172 37.0927 79.6172 35.9192C79.6172 34.7458 80.5684 33.7945 81.7419 33.7945Z" fill="#FFF9EC" stroke="#FFF9EC" stroke-width="3" stroke-miterlimit="10"/>
<path d="M37.7011 138.52H73.4621C82.645 138.52 88.9403 124.515 85.5705 111.586L83.4224 103.35C81.4613 95.8268 76.6595 90.8818 71.314 90.8818H39.7528C34.3372 90.8818 29.4857 95.9583 27.5743 103.63L25.5226 111.866C22.3107 124.752 28.6031 138.52 37.7011 138.52Z" fill="#002243" stroke="#002243" stroke-width="3" stroke-miterlimit="10"/>
<path d="M122.81 27.6043V34.5396C122.81 39.8529 125.949 44.4327 130.476 46.5223C131.137 46.8263 131.83 47.0806 132.543 47.2734C133.647 47.5745 134.811 47.7352 136.009 47.7352C137.795 47.7352 139.499 47.3816 141.053 46.7357L139.788 44.1229C139.563 43.6582 139.32 43.2081 139.06 42.7697C138.21 41.3464 137.175 40.0604 135.983 38.9382C134.39 37.4418 132.525 36.2406 130.476 35.4135V34.9693C130.476 34.7764 130.474 34.5806 130.471 34.3877C130.471 34.3555 130.471 34.3234 130.468 34.2912C130.468 34.1217 130.459 33.9522 130.45 33.7827C130.444 33.546 130.43 33.3092 130.415 33.0754C130.403 32.8913 130.389 32.7072 130.374 32.523C130.357 32.3243 130.339 32.1226 130.319 31.9239V31.9151C130.298 31.7164 130.275 31.5206 130.248 31.3219C130.228 31.1582 130.208 30.9974 130.184 30.8367C130.134 30.4918 130.079 30.1499 130.018 29.8079C129.994 29.6706 129.968 29.5361 129.942 29.3988C129.845 28.9107 129.737 28.4256 129.617 27.9433C129.588 27.8293 129.559 27.7183 129.53 27.6043C129.48 27.4173 129.43 27.2302 129.378 27.0432C129.34 26.9116 129.302 26.7772 129.264 26.6457C129.22 26.5054 129.176 26.3622 129.132 26.2219C128.91 25.5176 128.661 24.8249 128.39 24.1469C128.337 24.0183 128.284 23.8867 128.229 23.7611C128.206 23.7055 128.182 23.65 128.159 23.5974C128.112 23.4834 128.062 23.3724 128.013 23.2613C127.916 23.0392 127.817 22.8171 127.712 22.6008C127.647 22.4634 127.583 22.3261 127.516 22.1916C127.115 21.3733 126.674 20.5784 126.201 19.8097C126.136 19.7045 126.072 19.5993 126.005 19.497C125.946 19.4005 125.885 19.307 125.827 19.2135C125.824 19.2135 125.824 19.2106 125.824 19.2106C123.941 21.4902 122.81 24.4157 122.81 27.6043Z" fill="#FFF9EC" stroke="#FFF9EC" stroke-width="3" stroke-miterlimit="10"/>
<path d="M126.75 28.0718V36.3487C126.75 39.169 128.24 41.6386 130.476 43.018C131.663 43.7487 133.063 44.1754 134.559 44.1783H134.58C136.245 44.1783 137.792 43.6581 139.06 42.7696C138.209 41.3463 137.175 40.0604 135.982 38.9381C134.39 37.4417 132.525 36.2405 130.476 35.4134V34.9692C130.476 34.7763 130.473 34.5805 130.47 34.3876C130.47 34.3554 130.47 34.3233 130.467 34.2911C130.467 34.1216 130.459 33.9521 130.45 33.7826C130.444 33.5459 130.429 33.3091 130.415 33.0753C130.403 32.8912 130.389 32.7071 130.374 32.523C130.356 32.3242 130.339 32.1226 130.318 31.9238V31.9151C130.298 31.7163 130.275 31.5205 130.248 31.3218C130.228 31.1581 130.207 30.9974 130.184 30.8366C130.134 30.4917 130.079 30.1498 130.017 29.8079C129.994 29.6705 129.968 29.5361 129.941 29.3987C129.845 28.9106 129.737 28.4255 129.617 27.9432C129.588 27.8293 129.559 27.7182 129.529 27.6042C129.48 27.4172 129.43 27.2301 129.377 27.0431C129.339 26.9116 129.301 26.7771 129.263 26.6456C129.22 26.5053 129.176 26.3621 129.132 26.2218C128.91 25.5175 128.661 24.8248 128.389 24.1468C128.337 24.0182 128.284 23.8867 128.229 23.761C128.205 23.7055 128.182 23.6499 128.159 23.5973C127.352 24.7459 126.852 26.1195 126.765 27.6042C126.756 27.7591 126.75 27.914 126.75 28.0718Z" fill="#1A1A1A" stroke="#1A1A1A" stroke-width="3" stroke-miterlimit="10"/>
<path d="M121.469 27.2682C121.469 27.4523 121.618 27.6043 121.805 27.6043H129.529C129.48 27.4172 129.43 27.2302 129.377 27.0431C129.339 26.9116 129.301 26.7772 129.263 26.6457C129.22 26.5054 129.176 26.3622 129.132 26.2219C128.91 25.5175 128.661 24.8249 128.389 24.1468C128.337 24.0182 128.284 23.8867 128.229 23.761C128.205 23.7055 128.182 23.65 128.159 23.5974C128.112 23.4834 128.062 23.3723 128.012 23.2613C127.916 23.0392 127.817 22.817 127.711 22.6008C127.647 22.4634 127.583 22.326 127.516 22.1916C127.115 21.3733 126.674 20.5783 126.2 19.8097C126.136 19.7045 126.072 19.5993 126.005 19.497C125.946 19.4005 125.885 19.307 125.826 19.2135C125.823 19.2135 125.823 19.2105 125.823 19.2105C125.823 19.2105 125.821 19.2105 125.818 19.2047C125.698 19.0177 125.575 18.8306 125.446 18.6465C125.33 18.474 125.21 18.3016 125.087 18.135C125.078 18.1204 125.069 18.1058 125.058 18.0912C122.828 20.5023 121.469 23.7289 121.469 27.2682Z" fill="#FAAD0C" stroke="#FAAD0C" stroke-width="3" stroke-miterlimit="10"/>
<path d="M123.342 33.5198C123.342 32.3463 124.293 31.395 125.467 31.395C126.64 31.395 127.592 32.3463 127.592 33.5198C127.592 34.6932 126.64 35.6445 125.467 35.6445C124.293 35.6445 123.342 34.6932 123.342 33.5198Z" fill="#FFF9EC" stroke="#FFF9EC" stroke-width="3" stroke-miterlimit="10"/>
<path opacity="0.37" d="M119.011 31.427H135.737V43.702H119.011V31.427Z" fill="#29ABE2" stroke="#29ABE2" stroke-width="3" stroke-miterlimit="10"/>
<path d="M116.886 27.6276V38.6809C116.886 43.2752 119.087 47.0015 121.802 47.0015H131.838C134.556 47.0015 136.757 43.2752 136.757 38.678V27.6276C136.757 26.5579 136.246 25.6928 135.614 25.6928H135.354C134.723 25.6928 134.211 26.5579 134.211 27.6276V36.6117C134.211 40.5952 132.303 43.8217 129.95 43.8217H123.436C121.083 43.8217 119.175 40.5923 119.175 36.6117V27.6276C119.175 26.5579 118.663 25.6928 118.032 25.6928C117.401 25.6928 116.889 26.5579 116.889 27.6276H116.886Z" fill="#61768A" stroke="#61768A" stroke-width="3" stroke-miterlimit="10"/>
<path d="M106.756 56.8362C107.432 57.2161 108.224 57.4148 109.074 57.3622L130.476 56.0062L139.183 55.4538L142.9 55.217C143.947 55.1528 144.59 54.048 144.134 53.104L141.053 46.7356L139.788 44.1228C139.563 43.6581 139.32 43.2081 139.06 42.7697C138.21 41.3464 137.175 40.0604 135.983 38.9381C134.39 37.4418 132.525 36.2406 130.476 35.4135C129.886 35.1738 129.281 34.9692 128.664 34.7939L126.75 34.2532L122.81 33.1397L114.922 30.9127C111.959 30.0739 108.905 31.9297 108.282 34.9488L104.699 52.3266C104.69 52.3675 104.684 52.4084 104.678 52.4493C104.354 54.2818 105.266 55.9974 106.756 56.8362Z" fill="#FAAD0C" stroke="#FAAD0C" stroke-width="3" stroke-miterlimit="10"/>
<g filter="url(#filter0_d_20_142)">
<path d="M170.056 88.14C170.574 85.9925 169.253 83.8316 167.105 83.3136L129.015 74.1249C126.867 73.6068 124.706 74.9278 124.188 77.0753L111.224 130.816C110.706 132.964 112.027 135.124 114.175 135.643L148.377 143.893C152.672 144.929 156.994 142.287 158.03 137.992L170.056 88.14Z" fill="#627EA7"/>
</g>
<path d="M157.658 139.534C158.489 136.091 156.371 132.626 152.927 131.795L113.294 122.234L110.286 134.704L149.919 144.265C153.362 145.096 156.827 142.978 157.658 139.534Z" fill="#284062"/>
<path d="M151.436 136.027C152.51 136.286 153.17 137.366 152.911 138.44C152.652 139.514 151.572 140.174 150.498 139.915L150.967 137.971L151.436 136.027ZM150.967 137.971L150.498 139.915L111.121 130.416L111.59 128.472L112.059 126.528L151.436 136.027L150.967 137.971Z" fill="white"/>
<defs>
<filter id="filter0_d_20_142" x="107.112" y="74.0124" width="67.0564" height="78.1057" filterUnits="userSpaceOnUse" color-interpolation-filters="sRGB">
<feFlood flood-opacity="0" result="BackgroundImageFix"/>
<feColorMatrix in="SourceAlpha" type="matrix" values="0 0 0 0 0 0 0 0 0 0 0 0 0 0 0 0 0 0 127 0" result="hardAlpha"/>
<feOffset dy="4"/>
<feGaussianBlur stdDeviation="2"/>
<feComposite in2="hardAlpha" operator="out"/>
<feColorMatrix type="matrix" values="0 0 0 0 0 0 0 0 0 0 0 0 0 0 0 0 0 0 0.25 0"/>
<feBlend mode="normal" in2="BackgroundImageFix" result="effect1_dropShadow_20_142"/>
<feBlend mode="normal" in="SourceGraphic" in2="effect1_dropShadow_20_142" result="shape"/>
</filter>
</defs>
</svg>
