<svg width="233" height="312" viewBox="0 0 233 312" fill="none" xmlns="http://www.w3.org/2000/svg">
<path d="M0.000976563 16C0.000976563 7.16345 7.16442 0 16.001 0L228.284 0C230.493 0 232.284 1.79086 232.284 4V307.539C232.284 309.748 230.493 311.539 228.284 311.539H32.001C14.3279 311.539 0.000976563 297.212 0.000976563 279.539L0.000976563 16Z" fill="#627EA7"/>
<path d="M0 279.966C0 262.527 14.1366 248.391 31.5749 248.391H232.283V311.54H31.5749C14.1366 311.54 0 297.404 0 279.966V279.966Z" fill="#284062"/>
<path d="M32.8701 267.966C26.2427 267.966 20.8701 273.338 20.8701 279.966C20.8701 286.593 26.2427 291.966 32.8701 291.966L32.8701 267.966ZM32.8701 291.966L232.283 291.966L232.283 267.966L32.8701 267.966L32.8701 291.966Z" fill="white"/>
</svg>
