<svg width="243" height="312" viewBox="0 0 243 312" fill="none" xmlns="http://www.w3.org/2000/svg">
<path d="M0.892578 16.1738C0.892578 7.33726 8.05602 0.173828 16.8926 0.173828L238.734 0.173828C240.943 0.173828 242.734 1.96469 242.734 4.17383V307.504C242.734 309.713 240.943 311.504 238.734 311.504H32.8926C15.2195 311.504 0.892578 297.177 0.892578 279.504L0.892578 16.1738Z" fill="#FFD867"/>
<path d="M0.892578 282.469C0.892578 266.433 13.8922 253.434 29.928 253.434L242.734 253.434V311.504H29.928C13.8922 311.504 0.892578 298.505 0.892578 282.469V282.469Z" fill="#F7B801"/>
<path d="M35.1172 270.467C28.4898 270.467 23.1172 275.839 23.1172 282.467C23.1172 289.094 28.4898 294.467 35.1172 294.467L35.1172 270.467ZM35.1172 294.467L242.736 294.467L242.736 270.467L35.1172 270.467L35.1172 294.467Z" fill="white"/>
</svg>
