<svg width="1440" height="1024" viewBox="0 0 1440 1024" fill="none" xmlns="http://www.w3.org/2000/svg">
<g clip-path="url(#clip0_256_163)">
<mask id="mask0_256_163" style="mask-type:luminance" maskUnits="userSpaceOnUse" x="0" y="0" width="1440" height="1024">
<path d="M1440 0H0V1024H1440V0Z" fill="white"/>
</mask>
<g mask="url(#mask0_256_163)">
<g filter="url(#filter0_d_256_163)">
<path d="M-49.3901 -25.0498V290.74H165.82C171.61 290.74 176.3 295.43 176.3 301.21V512.94C176.3 518.73 171.61 523.42 165.82 523.42H-49.3901V922.54H1453.7V-25.0498H-49.3901ZM1197.43 494.65V308.26C1197.43 303.6 1201.21 299.82 1205.87 299.82H1374.12C1378.77 299.82 1382.55 303.6 1382.55 308.26V494.65C1382.55 499.3 1378.77 503.08 1374.12 503.08H1205.87C1201.21 503.08 1197.43 499.3 1197.43 494.65ZM934.98 508.74C934.98 514.53 930.29 519.22 924.51 519.22H394.37C388.59 519.22 383.9 514.53 383.9 508.74V297.01C383.9 291.22 388.59 286.53 394.37 286.53H924.51C930.29 286.53 934.98 291.22 934.98 297.01V508.74Z" fill="#FFFCE6"/>
</g>
<path d="M1100.22 135.351C1084.87 135.351 1072.43 147.791 1072.43 163.141V896.531H1452.93V135.351H1100.22ZM1197.43 494.651V308.261C1197.43 303.601 1201.21 299.821 1205.87 299.821H1374.12C1378.77 299.821 1382.55 303.601 1382.55 308.261V494.651C1382.55 499.301 1378.77 503.081 1374.12 503.081H1205.87C1201.21 503.081 1197.43 499.301 1197.43 494.651Z" fill="#FFAA00"/>
<path d="M-9.2801 -19.4998H1473.28C1477.67 -19.4998 1481.24 -15.9298 1481.24 -11.5398V59.9402H-17.2301V-11.5498C-17.2301 -15.9398 -13.6601 -19.5098 -9.2701 -19.5098L-9.2801 -19.4998Z" fill="#E5E2D1"/>
<path d="M-52.04 780.42H1038.67C1043.06 780.42 1046.63 783.99 1046.63 788.38V871.96H-60V788.38C-60 783.99 -56.43 780.42 -52.04 780.42Z" fill="#CCCCCC"/>
<path d="M1472.04 864.021H-157.38V1030.9H1472.04V864.021Z" fill="#1F3F74"/>
<g filter="url(#filter1_d_256_163)">
<path d="M354.23 582.05H467.56C482.34 582.05 494.33 594.05 494.33 608.82V783.59H354.23C339.45 783.59 327.46 771.59 327.46 756.82V608.82C327.46 594.04 339.46 582.05 354.23 582.05Z" fill="#FFC200"/>
</g>
<g filter="url(#filter2_d_256_163)">
<path d="M521.09 582.05H634.42C649.2 582.05 661.19 594.05 661.19 608.82V783.59H494.32V608.82C494.32 594.04 506.32 582.05 521.09 582.05Z" fill="#FFC200"/>
</g>
<g filter="url(#filter3_d_256_163)">
<path d="M687.96 582.05H801.29C816.07 582.05 828.06 594.05 828.06 608.82V783.59H661.19V608.82C661.19 594.04 673.19 582.05 687.96 582.05Z" fill="#FFC200"/>
</g>
<g filter="url(#filter4_d_256_163)">
<path d="M854.83 582.05H968.16C982.94 582.05 994.93 594.05 994.93 608.82V756.82C994.93 771.6 982.93 783.59 968.16 783.59H828.06V608.82C828.06 594.04 840.06 582.05 854.83 582.05Z" fill="#FFC200"/>
</g>
<g filter="url(#filter5_d_256_163)">
<path d="M105.83 582.05H219.16C233.94 582.05 245.93 594.05 245.93 608.82V756.82C245.93 771.6 233.93 783.59 219.16 783.59H79.0599V608.82C79.0599 594.04 91.0599 582.05 105.83 582.05Z" fill="#FFC200"/>
</g>
<g filter="url(#filter6_d_256_163)">
<path d="M-61.0401 582.05H52.2899C67.0699 582.05 79.0599 594.05 79.0599 608.82V783.59H-61.0401C-75.8201 783.59 -87.8101 771.59 -87.8101 756.82V608.82C-87.8101 594.04 -75.8101 582.05 -61.0401 582.05Z" fill="#FFC200"/>
</g>
<g filter="url(#filter7_d_256_163)">
<path d="M987.02 780.42H335.37C331.001 780.42 327.46 783.961 327.46 788.33V821.8C327.46 826.168 331.001 829.71 335.37 829.71H987.02C991.389 829.71 994.93 826.168 994.93 821.8V788.33C994.93 783.961 991.389 780.42 987.02 780.42Z" fill="#D39C00"/>
</g>
<path d="M496.31 608.75C496.31 607.657 495.423 606.771 494.33 606.771C493.236 606.771 492.35 607.657 492.35 608.75V827.73C492.35 828.824 493.236 829.711 494.33 829.711C495.423 829.711 496.31 828.824 496.31 827.73V608.75Z" fill="#AD7B00"/>
<path d="M1072.42 89.1807H1041.69V922.541H1072.42V89.1807Z" fill="#CEC8B7"/>
<path d="M1027.51 59.9404H1086.61V205.96C1086.61 210.35 1083.04 213.92 1078.65 213.92H1035.47C1031.08 213.92 1027.51 210.35 1027.51 205.96V59.9404Z" fill="#CEC8B7"/>
<path d="M1561.78 858.65H-67.6401V876.36H1561.78V858.65Z" fill="#203451"/>
<path d="M-33.7 58.1904H1448.86C1453.25 58.1904 1456.82 61.7604 1456.82 66.1504V137.64H-41.66V66.1504C-41.66 61.7604 -38.09 58.1904 -33.7 58.1904Z" fill="#8E8B83"/>
<path d="M1027.51 58.54H1086.61V136.02C1086.61 139.61 1083.7 142.52 1080.11 142.52H1034.01C1030.42 142.52 1027.51 139.61 1027.51 136.02V58.54Z" fill="#70695A"/>
<path d="M1487.01 247.641H1189.88C1168.76 247.641 1151.65 264.761 1151.65 285.881V861.521C1151.65 867.281 1156.32 871.961 1162.09 871.961H1487.01C1492.78 871.961 1497.45 867.281 1497.45 861.521V258.091C1497.45 252.321 1492.78 247.641 1487.01 247.641ZM1382.55 494.651C1382.55 499.301 1378.77 503.081 1374.12 503.081H1205.87C1201.21 503.081 1197.43 499.301 1197.43 494.651V308.261C1197.43 303.601 1201.21 299.821 1205.87 299.821H1374.12C1378.77 299.821 1382.55 303.601 1382.55 308.261V494.651Z" fill="#EFE6CE" stroke="#203451" stroke-width="5.99" stroke-miterlimit="10"/>
<path d="M290.87 88.8301H260.14V920.45H290.87V88.8301Z" fill="#CEC8B7"/>
<path d="M245.95 59.5898H305.05V205.61C305.05 210 301.48 213.57 297.09 213.57H253.91C249.52 213.57 245.95 210 245.95 205.61V59.5898Z" fill="#CEC8B7"/>
<path d="M253.91 745.88H297.09C301.48 745.88 305.05 749.45 305.05 753.84V917.49C305.05 927.74 296.73 936.06 286.48 936.06H264.51C254.26 936.06 245.94 927.74 245.94 917.49V753.84C245.94 749.45 249.51 745.88 253.9 745.88H253.91Z" fill="#8E8B83"/>
<path d="M245.95 58.1904H305.05V135.67C305.05 139.26 302.14 142.17 298.55 142.17H252.45C248.86 142.17 245.95 139.26 245.95 135.67V58.1904Z" fill="#70695A"/>
<path d="M1035.47 751.271H1078.65C1083.04 751.271 1086.61 754.84 1086.61 759.23V922.88C1086.61 933.13 1078.29 941.451 1068.04 941.451H1046.07C1035.82 941.451 1027.5 933.13 1027.5 922.88V759.23C1027.5 754.84 1031.07 751.271 1035.46 751.271H1035.47Z" fill="#8E8B83"/>
<path opacity="0.54" d="M279.19 213.92H271.81V745.88H279.19V213.92Z" fill="#177F87"/>
<path opacity="0.54" d="M1060.75 213.92H1053.37V751.27H1060.75V213.92Z" fill="#177F87"/>
<path d="M941.74 261.29H378.74C366.38 261.29 356.35 271.31 356.35 283.68V522.07C356.35 534.44 366.38 544.46 378.74 544.46H941.74C954.1 544.46 964.13 534.44 964.13 522.07V283.68C964.13 271.31 954.1 261.29 941.74 261.29ZM934.98 508.74C934.98 514.53 930.29 519.22 924.51 519.22H394.37C388.59 519.22 383.9 514.53 383.9 508.74V297.01C383.9 291.22 388.59 286.53 394.37 286.53H924.51C930.29 286.53 934.98 291.22 934.98 297.01V508.74Z" fill="#EFE6CE"/>
<g style="mix-blend-mode:multiply" opacity="0.1">
<path d="M941.74 261.29H378.74C366.38 261.29 356.35 271.31 356.35 283.68V522.07C356.35 534.44 366.38 544.46 378.74 544.46H941.74C954.1 544.46 964.13 534.44 964.13 522.07V283.68C964.13 271.31 954.1 261.29 941.74 261.29ZM934.98 508.74C934.98 514.53 930.29 519.22 924.51 519.22H394.37C388.59 519.22 383.9 514.53 383.9 508.74V297.01C383.9 291.22 388.59 286.53 394.37 286.53H924.51C930.29 286.53 934.98 291.22 934.98 297.01V508.74Z" fill="black"/>
</g>
<path d="M179.65 265.49H-383.22C-395.62 265.49 -405.67 275.54 -405.67 287.94V526.21C-405.67 538.61 -395.62 548.67 -383.22 548.67H179.65C192.05 548.67 202.1 538.61 202.1 526.21V287.94C202.1 275.54 192.05 265.49 179.65 265.49ZM176.3 512.94C176.3 518.73 171.61 523.42 165.82 523.42H-327.04C-332.82 523.42 -337.51 518.73 -337.51 512.94V301.21C-337.51 295.43 -332.82 290.74 -327.04 290.74H165.82C171.61 290.74 176.3 295.43 176.3 301.21V512.94Z" fill="#EFE6CE"/>
<g style="mix-blend-mode:multiply" opacity="0.1">
<path d="M179.65 265.49H-383.22C-395.62 265.49 -405.67 275.54 -405.67 287.94V526.21C-405.67 538.61 -395.62 548.67 -383.22 548.67H179.65C192.05 548.67 202.1 538.61 202.1 526.21V287.94C202.1 275.54 192.05 265.49 179.65 265.49ZM176.3 512.94C176.3 518.73 171.61 523.42 165.82 523.42H-327.04C-332.82 523.42 -337.51 518.73 -337.51 512.94V301.21C-337.51 295.43 -332.82 290.74 -327.04 290.74H165.82C171.61 290.74 176.3 295.43 176.3 301.21V512.94Z" fill="black"/>
</g>
<path d="M920.7 286.53H396.47C388.583 286.53 382.19 292.924 382.19 300.81V504.94C382.19 512.827 388.583 519.22 396.47 519.22H920.7C928.587 519.22 934.98 512.827 934.98 504.94V300.81C934.98 292.924 928.587 286.53 920.7 286.53Z" stroke="#203451" stroke-width="8" stroke-miterlimit="10"/>
<path d="M160.33 290.73H-363.9C-371.787 290.73 -378.18 297.124 -378.18 305.01V509.14C-378.18 517.027 -371.787 523.42 -363.9 523.42H160.33C168.216 523.42 174.61 517.027 174.61 509.14V305.01C174.61 297.124 168.216 290.73 160.33 290.73Z" stroke="#203451" stroke-width="8" stroke-miterlimit="10"/>
<path d="M938.49 345.13H383.9V362.13H938.49V345.13Z" fill="#203451"/>
<path d="M171.51 345.13H-383.08V362.13H171.51V345.13Z" fill="#203451"/>
<path d="M904.53 621.59H862.91C859.066 621.59 855.95 624.706 855.95 628.55V667.71C855.95 671.554 859.066 674.67 862.91 674.67H904.53C908.374 674.67 911.49 671.554 911.49 667.71V628.55C911.49 624.706 908.374 621.59 904.53 621.59Z" fill="#FFDA00"/>
<path d="M960.08 621.59H918.46C914.616 621.59 911.5 624.706 911.5 628.55V667.71C911.5 671.554 914.616 674.67 918.46 674.67H960.08C963.924 674.67 967.04 671.554 967.04 667.71V628.55C967.04 624.706 963.924 621.59 960.08 621.59Z" fill="#40CCA4"/>
<path d="M904.53 674.67H862.91C859.066 674.67 855.95 677.786 855.95 681.63V718.87C855.95 722.714 859.066 725.83 862.91 725.83H904.53C908.374 725.83 911.49 722.714 911.49 718.87V681.63C911.49 677.786 908.374 674.67 904.53 674.67Z" fill="#B73F96"/>
<path d="M960.08 674.68H918.46C914.616 674.68 911.5 677.796 911.5 681.64V718.87C911.5 722.714 914.616 725.83 918.46 725.83H960.08C963.924 725.83 967.04 722.714 967.04 718.87V681.64C967.04 677.796 963.924 674.68 960.08 674.68Z" fill="#B8E8DF"/>
<path d="M911.5 700.86C925.959 700.86 937.68 689.139 937.68 674.68C937.68 660.221 925.959 648.5 911.5 648.5C897.041 648.5 885.32 660.221 885.32 674.68C885.32 689.139 897.041 700.86 911.5 700.86Z" fill="#F25D7A"/>
<path d="M928.06 6.49023H380.21C376.388 6.49023 373.29 9.58842 373.29 13.4102V42.6602C373.29 46.482 376.388 49.5802 380.21 49.5802H928.06C931.882 49.5802 934.98 46.482 934.98 42.6602V13.4102C934.98 9.58842 931.882 6.49023 928.06 6.49023Z" fill="white" stroke="#534741" stroke-width="4" stroke-miterlimit="10"/>
<path d="M1737.93 6.49023H1190.08C1186.26 6.49023 1183.16 9.58842 1183.16 13.4102V42.6602C1183.16 46.482 1186.26 49.5802 1190.08 49.5802H1737.93C1741.75 49.5802 1744.85 46.482 1744.85 42.6602V13.4102C1744.85 9.58842 1741.75 6.49023 1737.93 6.49023Z" fill="white" stroke="#534741" stroke-width="4" stroke-miterlimit="10"/>
<path d="M164.59 6.49023H-383.26C-387.082 6.49023 -390.18 9.58842 -390.18 13.4102V42.6602C-390.18 46.482 -387.082 49.5802 -383.26 49.5802H164.59C168.412 49.5802 171.51 46.482 171.51 42.6602V13.4102C171.51 9.58842 168.412 6.49023 164.59 6.49023Z" fill="white" stroke="#534741" stroke-width="4" stroke-miterlimit="10"/>
<path d="M44.1999 622.55H2.57987C-1.26403 622.55 -4.38013 625.666 -4.38013 629.51V668.67C-4.38013 672.514 -1.26403 675.63 2.57987 675.63H44.1999C48.0438 675.63 51.1599 672.514 51.1599 668.67V629.51C51.1599 625.666 48.0438 622.55 44.1999 622.55Z" fill="#40CCA4"/>
<path d="M44.1999 675.641H2.57987C-1.26403 675.641 -4.38013 678.757 -4.38013 682.601V719.831C-4.38013 723.675 -1.26403 726.791 2.57987 726.791H44.1999C48.0438 726.791 51.1599 723.675 51.1599 719.831V682.601C51.1599 678.757 48.0438 675.641 44.1999 675.641Z" fill="#B8E8DF"/>
<path d="M-4.38006 701.82C10.0788 701.82 21.7999 690.099 21.7999 675.64C21.7999 661.181 10.0788 649.46 -4.38006 649.46C-18.8389 649.46 -30.5601 661.181 -30.5601 675.64C-30.5601 690.099 -18.8389 701.82 -4.38006 701.82Z" fill="#F25D7A"/>
<g filter="url(#filter8_d_256_163)">
<path d="M914.32 71.7598H406.16C401.626 71.7598 397.95 75.4355 397.95 79.9698V115.42C397.95 119.954 401.626 123.63 406.16 123.63H914.32C918.854 123.63 922.53 119.954 922.53 115.42V79.9698C922.53 75.4355 918.854 71.7598 914.32 71.7598Z" fill="#22B573"/>
</g>
<g filter="url(#filter9_d_256_163)">
<path d="M238.01 780.42H-413.64C-418.009 780.42 -421.55 783.961 -421.55 788.33V821.8C-421.55 826.168 -418.009 829.71 -413.64 829.71H238.01C242.379 829.71 245.92 826.168 245.92 821.8V788.33C245.92 783.961 242.379 780.42 238.01 780.42Z" fill="#D39C00"/>
</g>
<path d="M1584 161.641H-89.8501V174.461H1584V161.641Z" fill="#8E8B83"/>
<g filter="url(#filter10_d_256_163)">
<path d="M93.47 199.84H-56.95C-61.4843 199.84 -65.16 203.516 -65.16 208.05V242.37C-65.16 246.904 -61.4843 250.58 -56.95 250.58H93.47C98.0042 250.58 101.68 246.904 101.68 242.37V208.05C101.68 203.516 98.0042 199.84 93.47 199.84Z" fill="#22B573"/>
</g>
<g filter="url(#filter11_d_256_163)">
<path d="M163.34 199.84H126.53C121.996 199.84 118.32 203.516 118.32 208.05V242.37C118.32 246.904 121.996 250.58 126.53 250.58H163.34C167.874 250.58 171.55 246.904 171.55 242.37V208.05C171.55 203.516 167.874 199.84 163.34 199.84Z" fill="#333333"/>
</g>
<g filter="url(#filter12_d_256_163)">
<path d="M741.49 188.2H591.07C586.536 188.2 582.86 191.876 582.86 196.41V230.73C582.86 235.264 586.536 238.94 591.07 238.94H741.49C746.024 238.94 749.7 235.264 749.7 230.73V196.41C749.7 191.876 746.024 188.2 741.49 188.2Z" fill="#BC333D"/>
</g>
<path d="M413.63 91.9104H477.31L503.46 109.41H571.08V84.8604H640.45L667.6 112H755.36L778.96 88.4004H909.28" stroke="white" stroke-width="6" stroke-linecap="round" stroke-linejoin="round"/>
<path d="M411.84 98.9006C415.778 98.9006 418.97 95.7084 418.97 91.7706C418.97 87.8328 415.778 84.6406 411.84 84.6406C407.902 84.6406 404.71 87.8328 404.71 91.7706C404.71 95.7084 407.902 98.9006 411.84 98.9006Z" fill="white"/>
<path d="M503.81 116.35C507.748 116.35 510.94 113.158 510.94 109.22C510.94 105.282 507.748 102.09 503.81 102.09C499.872 102.09 496.68 105.282 496.68 109.22C496.68 113.158 499.872 116.35 503.81 116.35Z" fill="white"/>
<path d="M571.56 93.0803C575.498 93.0803 578.69 89.8881 578.69 85.9503C578.69 82.0125 575.498 78.8203 571.56 78.8203C567.622 78.8203 564.43 82.0125 564.43 85.9503C564.43 89.8881 567.622 93.0803 571.56 93.0803Z" fill="white"/>
<path d="M638.94 91.9905C642.878 91.9905 646.07 88.7983 646.07 84.8605C646.07 80.9227 642.878 77.7305 638.94 77.7305C635.002 77.7305 631.81 80.9227 631.81 84.8605C631.81 88.7983 635.002 91.9905 638.94 91.9905Z" fill="#00A99D"/>
<path d="M668.22 117.92C672.158 117.92 675.35 114.728 675.35 110.79C675.35 106.852 672.158 103.66 668.22 103.66C664.282 103.66 661.09 106.852 661.09 110.79C661.09 114.728 664.282 117.92 668.22 117.92Z" fill="white"/>
<path d="M779.89 96.6799C783.828 96.6799 787.02 93.4877 787.02 89.5499C787.02 85.6121 783.828 82.4199 779.89 82.4199C775.952 82.4199 772.76 85.6121 772.76 89.5499C772.76 93.4877 775.952 96.6799 779.89 96.6799Z" fill="white"/>
<path d="M908.45 96.6799C912.388 96.6799 915.58 93.4877 915.58 89.5499C915.58 85.6121 912.388 82.4199 908.45 82.4199C904.512 82.4199 901.32 85.6121 901.32 89.5499C901.32 93.4877 904.512 96.6799 908.45 96.6799Z" fill="white"/>
<path d="M411.84 95.83C414.082 95.83 415.9 94.0122 415.9 91.77C415.9 89.5277 414.082 87.71 411.84 87.71C409.598 87.71 407.78 89.5277 407.78 91.77C407.78 94.0122 409.598 95.83 411.84 95.83Z" fill="#1F3F74"/>
<path d="M503.81 113.28C506.052 113.28 507.87 111.462 507.87 109.22C507.87 106.978 506.052 105.16 503.81 105.16C501.568 105.16 499.75 106.978 499.75 109.22C499.75 111.462 501.568 113.28 503.81 113.28Z" fill="#1F3F74"/>
<path d="M571.56 90.0106C573.802 90.0106 575.62 88.1929 575.62 85.9506C575.62 83.7083 573.802 81.8906 571.56 81.8906C569.318 81.8906 567.5 83.7083 567.5 85.9506C567.5 88.1929 569.318 90.0106 571.56 90.0106Z" fill="#1F3F74"/>
<path d="M668.22 114.85C670.462 114.85 672.28 113.033 672.28 110.79C672.28 108.548 670.462 106.73 668.22 106.73C665.978 106.73 664.16 108.548 664.16 110.79C664.16 113.033 665.978 114.85 668.22 114.85Z" fill="#C53E28"/>
<path d="M779.89 93.6102C782.132 93.6102 783.95 91.7925 783.95 89.5502C783.95 87.308 782.132 85.4902 779.89 85.4902C777.648 85.4902 775.83 87.308 775.83 89.5502C775.83 91.7925 777.648 93.6102 779.89 93.6102Z" fill="#C53E28"/>
<path d="M908.45 93.6102C910.692 93.6102 912.51 91.7925 912.51 89.5502C912.51 87.308 910.692 85.4902 908.45 85.4902C906.208 85.4902 904.39 87.308 904.39 89.5502C904.39 91.7925 906.208 93.6102 908.45 93.6102Z" fill="#C53E28"/>
<path d="M638.94 88.9198C641.182 88.9198 643 87.1021 643 84.8598C643 82.6175 641.182 80.7998 638.94 80.7998C636.698 80.7998 634.88 82.6175 634.88 84.8598C634.88 87.1021 636.698 88.9198 638.94 88.9198Z" fill="white"/>
<g filter="url(#filter13_d_256_163)">
<path d="M1013.67 362.13H986.62C982.086 362.13 978.41 365.806 978.41 370.34V425.39C978.41 429.924 982.086 433.6 986.62 433.6H1013.67C1018.2 433.6 1021.88 429.924 1021.88 425.39V370.34C1021.88 365.806 1018.2 362.13 1013.67 362.13Z" fill="#1F3F74"/>
</g>
<path d="M663.17 608.75C663.17 607.657 662.283 606.771 661.19 606.771C660.096 606.771 659.21 607.657 659.21 608.75V827.73C659.21 828.824 660.096 829.711 661.19 829.711C662.283 829.711 663.17 828.824 663.17 827.73V608.75Z" fill="#AD7B00"/>
<path d="M832.92 606.44C832.92 605.346 832.033 604.46 830.94 604.46C829.846 604.46 828.96 605.346 828.96 606.44V825.42C828.96 826.513 829.846 827.4 830.94 827.4C832.033 827.4 832.92 826.513 832.92 825.42V606.44Z" fill="#AD7B00"/>
<path d="M81.04 608.75C81.04 607.657 80.1535 606.771 79.06 606.771C77.9664 606.771 77.08 607.657 77.08 608.75V827.73C77.08 828.824 77.9664 829.711 79.06 829.711C80.1535 829.711 81.04 828.824 81.04 827.73V608.75Z" fill="#AD7B00"/>
<path d="M1431.5 251.51V880.69H1448.5V251.51H1431.5Z" fill="#203451"/>
<path d="M1375.98 286.53H1203.91C1192.45 286.53 1183.17 295.82 1183.17 307.27V498.48C1183.17 509.93 1192.45 519.22 1203.91 519.22H1375.98C1387.43 519.22 1396.72 509.93 1396.72 498.48V307.27C1396.72 295.82 1387.43 286.53 1375.98 286.53ZM1382.55 494.65C1382.55 499.3 1378.77 503.08 1374.12 503.08H1205.87C1201.21 503.08 1197.43 499.3 1197.43 494.65V308.26C1197.43 303.6 1201.21 299.82 1205.87 299.82H1374.12C1378.77 299.82 1382.55 303.6 1382.55 308.26V494.65Z" fill="#203451"/>
<path d="M1389.27 582.05H1348.71C1344.6 582.05 1341.26 585.385 1341.26 589.5V641.05C1341.26 645.164 1344.6 648.5 1348.71 648.5H1389.27C1393.38 648.5 1396.72 645.164 1396.72 641.05V589.5C1396.72 585.385 1393.38 582.05 1389.27 582.05Z" fill="#FFAA00"/>
<path d="M1389.27 582.05H1348.71C1344.6 582.05 1341.26 585.385 1341.26 589.5V641.05C1341.26 645.164 1344.6 648.5 1348.71 648.5H1389.27C1393.38 648.5 1396.72 645.164 1396.72 641.05V589.5C1396.72 585.385 1393.38 582.05 1389.27 582.05Z" fill="#FFAA00"/>
<path d="M1238.56 582.05H1198C1193.89 582.05 1190.55 585.385 1190.55 589.5V641.05C1190.55 645.164 1193.89 648.5 1198 648.5H1238.56C1242.67 648.5 1246.01 645.164 1246.01 641.05V589.5C1246.01 585.385 1242.67 582.05 1238.56 582.05Z" fill="#FFAA00"/>
<path d="M48.73 155.11H43.5C40.9263 155.11 38.84 157.197 38.84 159.77V227.44C38.84 230.014 40.9263 232.1 43.5 232.1H48.73C51.3036 232.1 53.39 230.014 53.39 227.44V159.77C53.39 157.197 51.3036 155.11 48.73 155.11Z" fill="#FFC200"/>
<path d="M197.44 155.11H192.21C189.636 155.11 187.55 157.197 187.55 159.77V227.44C187.55 230.014 189.636 232.1 192.21 232.1H197.44C200.014 232.1 202.1 230.014 202.1 227.44V159.77C202.1 157.197 200.014 155.11 197.44 155.11Z" fill="#FFC200"/>
<path d="M342.52 155.11H337.29C334.716 155.11 332.63 157.197 332.63 159.77V227.44C332.63 230.014 334.716 232.1 337.29 232.1H342.52C345.094 232.1 347.18 230.014 347.18 227.44V159.77C347.18 157.197 345.094 155.11 342.52 155.11Z" fill="#FFC200"/>
<path d="M474.95 155.11H469.72C467.146 155.11 465.06 157.197 465.06 159.77V227.44C465.06 230.014 467.146 232.1 469.72 232.1H474.95C477.524 232.1 479.61 230.014 479.61 227.44V159.77C479.61 157.197 477.524 155.11 474.95 155.11Z" fill="#FFC200"/>
<path d="M609.24 155.11H604.01C601.436 155.11 599.35 157.197 599.35 159.77V227.44C599.35 230.014 601.436 232.1 604.01 232.1H609.24C611.814 232.1 613.9 230.014 613.9 227.44V159.77C613.9 157.197 611.814 155.11 609.24 155.11Z" fill="#FFC200"/>
<path d="M729.89 155.11H724.66C722.086 155.11 720 157.197 720 159.77V227.44C720 230.014 722.086 232.1 724.66 232.1H729.89C732.464 232.1 734.55 230.014 734.55 227.44V159.77C734.55 157.197 732.464 155.11 729.89 155.11Z" fill="#FFC200"/>
<path d="M858.57 153.97H853.34C850.766 153.97 848.68 156.056 848.68 158.63V226.3C848.68 228.873 850.766 230.96 853.34 230.96H858.57C861.144 230.96 863.23 228.873 863.23 226.3V158.63C863.23 156.056 861.144 153.97 858.57 153.97Z" fill="#FFC200"/>
<path d="M997.54 158.87H992.31C989.736 158.87 987.65 160.956 987.65 163.53V231.2C987.65 233.774 989.736 235.86 992.31 235.86H997.54C1000.11 235.86 1002.2 233.774 1002.2 231.2V163.53C1002.2 160.956 1000.11 158.87 997.54 158.87Z" fill="#FFC200"/>
<path d="M1120.59 160.04H1115.36C1112.79 160.04 1110.7 162.126 1110.7 164.7V232.37C1110.7 234.944 1112.79 237.03 1115.36 237.03H1120.59C1123.16 237.03 1125.25 234.944 1125.25 232.37V164.7C1125.25 162.126 1123.16 160.04 1120.59 160.04Z" fill="#FFC200"/>
<path d="M1269.3 160.04H1264.07C1261.5 160.04 1259.41 162.126 1259.41 164.7V232.37C1259.41 234.944 1261.5 237.03 1264.07 237.03H1269.3C1271.87 237.03 1273.96 234.944 1273.96 232.37V164.7C1273.96 162.126 1271.87 160.04 1269.3 160.04Z" fill="#FFC200"/>
<path d="M1414.38 160.04H1409.15C1406.58 160.04 1404.49 162.126 1404.49 164.7V232.37C1404.49 234.944 1406.58 237.03 1409.15 237.03H1414.38C1416.95 237.03 1419.04 234.944 1419.04 232.37V164.7C1419.04 162.126 1416.95 160.04 1414.38 160.04Z" fill="#FFC200"/>
</g>
</g>
<defs>
<filter id="filter0_d_256_163" x="-49.3901" y="-25.0498" width="1503.09" height="947.59" filterUnits="userSpaceOnUse" color-interpolation-filters="sRGB">
<feFlood flood-opacity="0" result="BackgroundImageFix"/>
<feColorMatrix in="SourceAlpha" type="matrix" values="0 0 0 0 0 0 0 0 0 0 0 0 0 0 0 0 0 0 127 0" result="hardAlpha"/>
<feOffset/>
<feColorMatrix type="matrix" values="0 0 0 0 0 0 0 0 0 0 0 0 0 0 0 0 0 0 1 0"/>
<feBlend mode="normal" in2="BackgroundImageFix" result="effect1_dropShadow_256_163"/>
<feBlend mode="normal" in="SourceGraphic" in2="effect1_dropShadow_256_163" result="shape"/>
</filter>
<filter id="filter1_d_256_163" x="327.46" y="576.05" width="166.87" height="207.54" filterUnits="userSpaceOnUse" color-interpolation-filters="sRGB">
<feFlood flood-opacity="0" result="BackgroundImageFix"/>
<feColorMatrix in="SourceAlpha" type="matrix" values="0 0 0 0 0 0 0 0 0 0 0 0 0 0 0 0 0 0 127 0" result="hardAlpha"/>
<feOffset dy="-6"/>
<feColorMatrix type="matrix" values="0 0 0 0 0.988235 0 0 0 0 0.913725 0 0 0 0 0.219608 0 0 0 0.75 0"/>
<feBlend mode="normal" in2="BackgroundImageFix" result="effect1_dropShadow_256_163"/>
<feBlend mode="normal" in="SourceGraphic" in2="effect1_dropShadow_256_163" result="shape"/>
</filter>
<filter id="filter2_d_256_163" x="494.32" y="576.05" width="166.87" height="207.54" filterUnits="userSpaceOnUse" color-interpolation-filters="sRGB">
<feFlood flood-opacity="0" result="BackgroundImageFix"/>
<feColorMatrix in="SourceAlpha" type="matrix" values="0 0 0 0 0 0 0 0 0 0 0 0 0 0 0 0 0 0 127 0" result="hardAlpha"/>
<feOffset dy="-6"/>
<feColorMatrix type="matrix" values="0 0 0 0 0.988235 0 0 0 0 0.913725 0 0 0 0 0.219608 0 0 0 0.75 0"/>
<feBlend mode="normal" in2="BackgroundImageFix" result="effect1_dropShadow_256_163"/>
<feBlend mode="normal" in="SourceGraphic" in2="effect1_dropShadow_256_163" result="shape"/>
</filter>
<filter id="filter3_d_256_163" x="661.19" y="576.05" width="166.87" height="207.54" filterUnits="userSpaceOnUse" color-interpolation-filters="sRGB">
<feFlood flood-opacity="0" result="BackgroundImageFix"/>
<feColorMatrix in="SourceAlpha" type="matrix" values="0 0 0 0 0 0 0 0 0 0 0 0 0 0 0 0 0 0 127 0" result="hardAlpha"/>
<feOffset dy="-6"/>
<feColorMatrix type="matrix" values="0 0 0 0 0.988235 0 0 0 0 0.913725 0 0 0 0 0.219608 0 0 0 0.75 0"/>
<feBlend mode="normal" in2="BackgroundImageFix" result="effect1_dropShadow_256_163"/>
<feBlend mode="normal" in="SourceGraphic" in2="effect1_dropShadow_256_163" result="shape"/>
</filter>
<filter id="filter4_d_256_163" x="828.06" y="576.05" width="166.87" height="207.54" filterUnits="userSpaceOnUse" color-interpolation-filters="sRGB">
<feFlood flood-opacity="0" result="BackgroundImageFix"/>
<feColorMatrix in="SourceAlpha" type="matrix" values="0 0 0 0 0 0 0 0 0 0 0 0 0 0 0 0 0 0 127 0" result="hardAlpha"/>
<feOffset dy="-6"/>
<feColorMatrix type="matrix" values="0 0 0 0 0.988235 0 0 0 0 0.913725 0 0 0 0 0.219608 0 0 0 0.75 0"/>
<feBlend mode="normal" in2="BackgroundImageFix" result="effect1_dropShadow_256_163"/>
<feBlend mode="normal" in="SourceGraphic" in2="effect1_dropShadow_256_163" result="shape"/>
</filter>
<filter id="filter5_d_256_163" x="79.0599" y="576.05" width="166.87" height="207.54" filterUnits="userSpaceOnUse" color-interpolation-filters="sRGB">
<feFlood flood-opacity="0" result="BackgroundImageFix"/>
<feColorMatrix in="SourceAlpha" type="matrix" values="0 0 0 0 0 0 0 0 0 0 0 0 0 0 0 0 0 0 127 0" result="hardAlpha"/>
<feOffset dy="-6"/>
<feColorMatrix type="matrix" values="0 0 0 0 0.988235 0 0 0 0 0.913725 0 0 0 0 0.219608 0 0 0 0.75 0"/>
<feBlend mode="normal" in2="BackgroundImageFix" result="effect1_dropShadow_256_163"/>
<feBlend mode="normal" in="SourceGraphic" in2="effect1_dropShadow_256_163" result="shape"/>
</filter>
<filter id="filter6_d_256_163" x="-87.8101" y="576.05" width="166.87" height="207.54" filterUnits="userSpaceOnUse" color-interpolation-filters="sRGB">
<feFlood flood-opacity="0" result="BackgroundImageFix"/>
<feColorMatrix in="SourceAlpha" type="matrix" values="0 0 0 0 0 0 0 0 0 0 0 0 0 0 0 0 0 0 127 0" result="hardAlpha"/>
<feOffset dy="-6"/>
<feColorMatrix type="matrix" values="0 0 0 0 0.988235 0 0 0 0 0.913725 0 0 0 0 0.219608 0 0 0 0.75 0"/>
<feBlend mode="normal" in2="BackgroundImageFix" result="effect1_dropShadow_256_163"/>
<feBlend mode="normal" in="SourceGraphic" in2="effect1_dropShadow_256_163" result="shape"/>
</filter>
<filter id="filter7_d_256_163" x="327.46" y="780.42" width="667.47" height="57.29" filterUnits="userSpaceOnUse" color-interpolation-filters="sRGB">
<feFlood flood-opacity="0" result="BackgroundImageFix"/>
<feColorMatrix in="SourceAlpha" type="matrix" values="0 0 0 0 0 0 0 0 0 0 0 0 0 0 0 0 0 0 127 0" result="hardAlpha"/>
<feOffset dy="8"/>
<feColorMatrix type="matrix" values="0 0 0 0 0.258824 0 0 0 0 0.239216 0 0 0 0 0.0980392 0 0 0 0.75 0"/>
<feBlend mode="normal" in2="BackgroundImageFix" result="effect1_dropShadow_256_163"/>
<feBlend mode="normal" in="SourceGraphic" in2="effect1_dropShadow_256_163" result="shape"/>
</filter>
<filter id="filter8_d_256_163" x="397.95" y="71.7598" width="524.58" height="55.8701" filterUnits="userSpaceOnUse" color-interpolation-filters="sRGB">
<feFlood flood-opacity="0" result="BackgroundImageFix"/>
<feColorMatrix in="SourceAlpha" type="matrix" values="0 0 0 0 0 0 0 0 0 0 0 0 0 0 0 0 0 0 127 0" result="hardAlpha"/>
<feOffset dy="4"/>
<feColorMatrix type="matrix" values="0 0 0 0 0.0980392 0 0 0 0 0.0980392 0 0 0 0 0.317647 0 0 0 1 0"/>
<feBlend mode="normal" in2="BackgroundImageFix" result="effect1_dropShadow_256_163"/>
<feBlend mode="normal" in="SourceGraphic" in2="effect1_dropShadow_256_163" result="shape"/>
</filter>
<filter id="filter9_d_256_163" x="-421.55" y="780.42" width="667.47" height="57.29" filterUnits="userSpaceOnUse" color-interpolation-filters="sRGB">
<feFlood flood-opacity="0" result="BackgroundImageFix"/>
<feColorMatrix in="SourceAlpha" type="matrix" values="0 0 0 0 0 0 0 0 0 0 0 0 0 0 0 0 0 0 127 0" result="hardAlpha"/>
<feOffset dy="8"/>
<feColorMatrix type="matrix" values="0 0 0 0 0.258824 0 0 0 0 0.239216 0 0 0 0 0.0980392 0 0 0 0.75 0"/>
<feBlend mode="normal" in2="BackgroundImageFix" result="effect1_dropShadow_256_163"/>
<feBlend mode="normal" in="SourceGraphic" in2="effect1_dropShadow_256_163" result="shape"/>
</filter>
<filter id="filter10_d_256_163" x="-65.16" y="199.84" width="166.84" height="53.7402" filterUnits="userSpaceOnUse" color-interpolation-filters="sRGB">
<feFlood flood-opacity="0" result="BackgroundImageFix"/>
<feColorMatrix in="SourceAlpha" type="matrix" values="0 0 0 0 0 0 0 0 0 0 0 0 0 0 0 0 0 0 127 0" result="hardAlpha"/>
<feOffset dy="3"/>
<feColorMatrix type="matrix" values="0 0 0 0 0.317647 0 0 0 0 0.317647 0 0 0 0 0.317647 0 0 0 1 0"/>
<feBlend mode="normal" in2="BackgroundImageFix" result="effect1_dropShadow_256_163"/>
<feBlend mode="normal" in="SourceGraphic" in2="effect1_dropShadow_256_163" result="shape"/>
</filter>
<filter id="filter11_d_256_163" x="118.32" y="199.84" width="53.23" height="53.7402" filterUnits="userSpaceOnUse" color-interpolation-filters="sRGB">
<feFlood flood-opacity="0" result="BackgroundImageFix"/>
<feColorMatrix in="SourceAlpha" type="matrix" values="0 0 0 0 0 0 0 0 0 0 0 0 0 0 0 0 0 0 127 0" result="hardAlpha"/>
<feOffset dy="3"/>
<feColorMatrix type="matrix" values="0 0 0 0 0.317647 0 0 0 0 0.317647 0 0 0 0 0.317647 0 0 0 1 0"/>
<feBlend mode="normal" in2="BackgroundImageFix" result="effect1_dropShadow_256_163"/>
<feBlend mode="normal" in="SourceGraphic" in2="effect1_dropShadow_256_163" result="shape"/>
</filter>
<filter id="filter12_d_256_163" x="582.86" y="188.2" width="166.84" height="53.7402" filterUnits="userSpaceOnUse" color-interpolation-filters="sRGB">
<feFlood flood-opacity="0" result="BackgroundImageFix"/>
<feColorMatrix in="SourceAlpha" type="matrix" values="0 0 0 0 0 0 0 0 0 0 0 0 0 0 0 0 0 0 127 0" result="hardAlpha"/>
<feOffset dy="3"/>
<feColorMatrix type="matrix" values="0 0 0 0 0.317647 0 0 0 0 0.317647 0 0 0 0 0.317647 0 0 0 1 0"/>
<feBlend mode="normal" in2="BackgroundImageFix" result="effect1_dropShadow_256_163"/>
<feBlend mode="normal" in="SourceGraphic" in2="effect1_dropShadow_256_163" result="shape"/>
</filter>
<filter id="filter13_d_256_163" x="978.41" y="362.13" width="43.47" height="74.4697" filterUnits="userSpaceOnUse" color-interpolation-filters="sRGB">
<feFlood flood-opacity="0" result="BackgroundImageFix"/>
<feColorMatrix in="SourceAlpha" type="matrix" values="0 0 0 0 0 0 0 0 0 0 0 0 0 0 0 0 0 0 127 0" result="hardAlpha"/>
<feOffset dy="3"/>
<feColorMatrix type="matrix" values="0 0 0 0 0.317647 0 0 0 0 0.317647 0 0 0 0 0.317647 0 0 0 1 0"/>
<feBlend mode="normal" in2="BackgroundImageFix" result="effect1_dropShadow_256_163"/>
<feBlend mode="normal" in="SourceGraphic" in2="effect1_dropShadow_256_163" result="shape"/>
</filter>
<clipPath id="clip0_256_163">
<rect width="1440" height="1024" fill="white"/>
</clipPath>
</defs>
</svg>
