<svg width="24" height="24" viewBox="0 0 24 24" fill="none" xmlns="http://www.w3.org/2000/svg">
<path d="M5 15H10M5 12H10M5 9H10M13 12L15 14L19 10M3.4 4H20.6C21.2365 4 21.847 4.25286 22.2971 4.70294C22.7471 5.15303 23 5.76348 23 6.4V17.6C23 18.2365 22.7471 18.847 22.2971 19.2971C21.847 19.7471 21.2365 20 20.6 20H3.4C2.76348 20 2.15303 19.7471 1.70294 19.2971C1.25286 18.847 1 18.2365 1 17.6V6.4C1 5.76348 1.25286 5.15303 1.70294 4.70294C2.15303 4.25286 2.76348 4 3.4 4Z" stroke="white" stroke-width="1.5" stroke-linecap="round" stroke-linejoin="round"/>
</svg>
