<svg width="25" height="24" viewBox="0 0 25 24" fill="none" xmlns="http://www.w3.org/2000/svg">
<g clip-path="url(#clip0_896_1054)">
<path d="M12.7578 2C11.4446 2 10.1442 2.25866 8.93098 2.7612C7.71772 3.26375 6.61533 4.00035 5.68674 4.92893C3.81138 6.8043 2.75781 9.34784 2.75781 12C2.75781 16.42 5.62781 20.17 9.59781 21.5C10.0978 21.58 10.2578 21.27 10.2578 21V19.31C7.48781 19.91 6.89781 17.97 6.89781 17.97C6.43781 16.81 5.78781 16.5 5.78781 16.5C4.87781 15.88 5.85781 15.9 5.85781 15.9C6.85781 15.97 7.38781 16.93 7.38781 16.93C8.25781 18.45 9.72781 18 10.2978 17.76C10.3878 17.11 10.6478 16.67 10.9278 16.42C8.70781 16.17 6.37781 15.31 6.37781 11.5C6.37781 10.39 6.75781 9.5 7.40781 8.79C7.30781 8.54 6.95781 7.5 7.50781 6.15C7.50781 6.15 8.34781 5.88 10.2578 7.17C11.0478 6.95 11.9078 6.84 12.7578 6.84C13.6078 6.84 14.4678 6.95 15.2578 7.17C17.1678 5.88 18.0078 6.15 18.0078 6.15C18.5578 7.5 18.2078 8.54 18.1078 8.79C18.7578 9.5 19.1378 10.39 19.1378 11.5C19.1378 15.32 16.7978 16.16 14.5678 16.41C14.9278 16.72 15.2578 17.33 15.2578 18.26V21C15.2578 21.27 15.4178 21.59 15.9278 21.5C19.8978 20.16 22.7578 16.42 22.7578 12C22.7578 10.6868 22.4992 9.38642 21.9966 8.17317C21.4941 6.95991 20.7575 5.85752 19.8289 4.92893C18.9003 4.00035 17.7979 3.26375 16.5846 2.7612C15.3714 2.25866 14.071 2 12.7578 2Z" fill="white"/>
</g>
<defs>
<clipPath id="clip0_896_1054">
<rect width="24" height="24" fill="white" transform="translate(0.757812)"/>
</clipPath>
</defs>
</svg>
