<svg width="25" height="24" viewBox="0 0 25 24" fill="none" xmlns="http://www.w3.org/2000/svg">
<path d="M5.41055 6.09545L10.6605 3.25545C11.2443 2.94036 11.8972 2.77539 12.5605 2.77539C13.2239 2.77539 13.8768 2.94036 14.4605 3.25545L19.7105 6.09545C20.344 6.43739 20.8735 6.94396 21.2431 7.56173C21.6127 8.1795 21.8088 8.88556 21.8105 9.60545V17.2254C21.8105 18.2863 21.3891 19.3037 20.639 20.0539C19.8888 20.804 18.8714 21.2254 17.8105 21.2254H7.31055C6.24968 21.2254 5.23227 20.804 4.48212 20.0539C3.73197 19.3037 3.31055 18.2863 3.31055 17.2254V9.60545C3.31234 8.88556 3.50837 8.1795 3.87798 7.56173C4.24758 6.94396 4.77705 6.43739 5.41055 6.09545Z" stroke="white" stroke-width="1.5"/>
<path d="M3.4707 8.49512L10.5607 12.5951C11.1688 12.9462 11.8586 13.131 12.5607 13.131C13.2628 13.131 13.9526 12.9462 14.5607 12.5951L21.7007 8.59512" stroke="white" stroke-width="1.5" stroke-linecap="round" stroke-linejoin="round"/>
</svg>
