<svg width="25" height="24" viewBox="0 0 25 24" fill="none" xmlns="http://www.w3.org/2000/svg">
<g clip-path="url(#clip0_896_1042)">
<path d="M12.7588 8C11.9632 8 11.2001 8.31607 10.6375 8.87868C10.0749 9.44129 9.75881 10.2044 9.75881 11C9.75881 11.7956 10.0749 12.5587 10.6375 13.1213C11.2001 13.6839 11.9632 14 12.7588 14C13.5545 14 14.3175 13.6839 14.8801 13.1213C15.4427 12.5587 15.7588 11.7956 15.7588 11C15.7588 10.2044 15.4427 9.44129 14.8801 8.87868C14.3175 8.31607 13.5545 8 12.7588 8ZM12.7588 6C14.0849 6 15.3567 6.52678 16.2943 7.46447C17.232 8.40215 17.7588 9.67392 17.7588 11C17.7588 12.3261 17.232 13.5979 16.2943 14.5355C15.3567 15.4732 14.0849 16 12.7588 16C11.4327 16 10.161 15.4732 9.22328 14.5355C8.2856 13.5979 7.75881 12.3261 7.75881 11C7.75881 9.67392 8.2856 8.40215 9.22328 7.46447C10.161 6.52678 11.4327 6 12.7588 6ZM19.2588 5.75C19.2588 6.08152 19.1271 6.39946 18.8927 6.63388C18.6583 6.8683 18.3403 7 18.0088 7C17.6773 7 17.3594 6.8683 17.1249 6.63388C16.8905 6.39946 16.7588 6.08152 16.7588 5.75C16.7588 5.41848 16.8905 5.10054 17.1249 4.86612C17.3594 4.6317 17.6773 4.5 18.0088 4.5C18.3403 4.5 18.6583 4.6317 18.8927 4.86612C19.1271 5.10054 19.2588 5.41848 19.2588 5.75ZM12.7588 3C10.2848 3 9.88081 3.007 8.72981 3.058C7.94581 3.095 7.41981 3.2 6.93181 3.39C6.52364 3.54037 6.15453 3.78063 5.85181 4.093C5.53909 4.39562 5.29847 4.76474 5.14781 5.173C4.95781 5.663 4.85281 6.188 4.81681 6.971C4.76481 8.075 4.75781 8.461 4.75781 11C4.75781 13.475 4.76481 13.878 4.81581 15.029C4.85281 15.812 4.95781 16.339 5.14681 16.826C5.31681 17.261 5.51681 17.574 5.84881 17.906C6.18581 18.242 6.49881 18.443 6.92881 18.609C7.42281 18.8 7.94881 18.906 8.72881 18.942C9.83281 18.994 10.2188 19 12.7578 19C15.2328 19 15.6358 18.993 16.7868 18.942C17.5688 18.905 18.0948 18.8 18.5838 18.611C18.992 18.4606 19.3611 18.2204 19.6638 17.908C20.0008 17.572 20.2018 17.259 20.3678 16.828C20.5578 16.336 20.6638 15.81 20.6998 15.028C20.7518 13.925 20.7578 13.538 20.7578 11C20.7578 8.526 20.7508 8.122 20.6998 6.971C20.6628 6.189 20.5568 5.661 20.3678 5.173C20.2174 4.76483 19.9772 4.39572 19.6648 4.093C19.3622 3.78027 18.9931 3.53966 18.5848 3.389C18.0948 3.199 17.5688 3.094 16.7868 3.058C15.6838 3.006 15.2978 3 12.7578 3M12.7578 1C15.4748 1 15.8138 1.01 16.8808 1.06C17.9448 1.11 18.6708 1.277 19.3078 1.525C19.9678 1.779 20.5238 2.123 21.0798 2.678C21.5885 3.17773 21.982 3.78247 22.2328 4.45C22.4798 5.087 22.6478 5.813 22.6978 6.878C22.7448 7.944 22.7578 8.283 22.7578 11C22.7578 13.717 22.7478 14.056 22.6978 15.122C22.6478 16.188 22.4798 16.912 22.2328 17.55C21.982 18.2175 21.5885 18.8223 21.0798 19.322C20.5801 19.8307 19.9753 20.2242 19.3078 20.475C18.6708 20.722 17.9448 20.89 16.8808 20.94C15.8138 20.987 15.4748 21 12.7578 21C10.0408 21 9.70181 20.99 8.63481 20.94C7.57081 20.89 6.84581 20.722 6.20781 20.475C5.54028 20.2242 4.93554 19.8307 4.43581 19.322C3.92712 18.8223 3.53363 18.2175 3.28281 17.55C3.03481 16.913 2.86781 16.187 2.81781 15.122C2.76981 14.056 2.75781 13.717 2.75781 11C2.75781 8.283 2.76781 7.944 2.81781 6.878C2.86781 5.812 3.03481 5.088 3.28281 4.45C3.53363 3.78247 3.92712 3.17773 4.43581 2.678C4.93554 2.16931 5.54028 1.77582 6.20781 1.525C6.84481 1.277 7.56981 1.11 8.63481 1.06C9.70281 1.013 10.0418 1 12.7588 1" fill="white"/>
</g>
<defs>
<clipPath id="clip0_896_1042">
<rect width="24" height="24" fill="white" transform="translate(0.757812)"/>
</clipPath>
</defs>
</svg>
