<svg width="25" height="24" viewBox="0 0 25 24" fill="none" xmlns="http://www.w3.org/2000/svg">
<g clip-path="url(#clip0_896_1047)">
<path d="M19.7578 3C20.2882 3 20.797 3.21071 21.172 3.58579C21.5471 3.96086 21.7578 4.46957 21.7578 5V19C21.7578 19.5304 21.5471 20.0391 21.172 20.4142C20.797 20.7893 20.2882 21 19.7578 21H5.75781C5.22738 21 4.71867 20.7893 4.3436 20.4142C3.96853 20.0391 3.75781 19.5304 3.75781 19V5C3.75781 4.46957 3.96853 3.96086 4.3436 3.58579C4.71867 3.21071 5.22738 3 5.75781 3H19.7578ZM19.2578 18.5V13.2C19.2578 12.3354 18.9143 11.5062 18.303 10.8948C17.6916 10.2835 16.8624 9.94 15.9978 9.94C15.1478 9.94 14.1578 10.46 13.6778 11.24V10.13H10.8878V18.5H13.6778V13.57C13.6778 12.8 14.2978 12.17 15.0678 12.17C15.4391 12.17 15.7952 12.3175 16.0578 12.5801C16.3203 12.8426 16.4678 13.1987 16.4678 13.57V18.5H19.2578ZM7.63781 8.56C8.08338 8.56 8.51069 8.383 8.82575 8.06794C9.14081 7.75288 9.31781 7.32556 9.31781 6.88C9.31781 5.95 8.56781 5.19 7.63781 5.19C7.1896 5.19 6.75974 5.36805 6.4428 5.68499C6.12587 6.00193 5.94781 6.43178 5.94781 6.88C5.94781 7.81 6.70781 8.56 7.63781 8.56ZM9.02781 18.5V10.13H6.25781V18.5H9.02781Z" fill="white"/>
</g>
<defs>
<clipPath id="clip0_896_1047">
<rect width="24" height="24" fill="white" transform="translate(0.757812)"/>
</clipPath>
</defs>
</svg>
