<svg width="25" height="24" viewBox="0 0 25 24" fill="none" xmlns="http://www.w3.org/2000/svg">
<path fill-rule="evenodd" clip-rule="evenodd" d="M7.81055 10C7.81055 8.74022 8.31099 7.53204 9.20179 6.64124C10.0926 5.75045 11.3008 5.25 12.5605 5.25C13.8203 5.25 15.0285 5.75045 15.9193 6.64124C16.8101 7.53204 17.3105 8.74022 17.3105 10C17.3105 11.2598 16.8101 12.468 15.9193 13.3588C15.0285 14.2496 13.8203 14.75 12.5605 14.75C11.3008 14.75 10.0926 14.2496 9.20179 13.3588C8.31099 12.468 7.81055 11.2598 7.81055 10ZM12.5605 6.75C11.6986 6.75 10.8719 7.09241 10.2625 7.7019C9.65296 8.3114 9.31055 9.13805 9.31055 10C9.31055 10.862 9.65296 11.6886 10.2625 12.2981C10.8719 12.9076 11.6986 13.25 12.5605 13.25C13.4225 13.25 14.2492 12.9076 14.8586 12.2981C15.4681 11.6886 15.8105 10.862 15.8105 10C15.8105 9.13805 15.4681 8.3114 14.8586 7.7019C14.2492 7.09241 13.4225 6.75 12.5605 6.75Z" fill="white"/>
<path fill-rule="evenodd" clip-rule="evenodd" d="M4.08501 8.857C4.25639 6.78397 5.20082 4.85113 6.73091 3.442C8.261 2.03288 10.2649 1.25046 12.345 1.25H12.777C14.8571 1.25046 16.861 2.03288 18.3911 3.442C19.9212 4.85113 20.8656 6.78397 21.037 8.857C21.2276 11.1663 20.5142 13.4595 19.047 15.253L14.254 21.114C14.0489 21.3648 13.7906 21.567 13.4978 21.7057C13.205 21.8445 12.885 21.9165 12.561 21.9165C12.237 21.9165 11.917 21.8445 11.6242 21.7057C11.3314 21.567 11.0731 21.3648 10.868 21.114L6.07501 15.253C4.60785 13.4595 3.89438 11.1663 4.08501 8.857ZM12.345 2.75C10.6416 2.75072 9.00074 3.39165 7.74782 4.54565C6.4949 5.69965 5.7215 7.28242 5.58101 8.98C5.42229 10.9019 6.01602 12.8103 7.23701 14.303L12.03 20.165C12.0944 20.2439 12.1756 20.3074 12.2676 20.351C12.3596 20.3947 12.4602 20.4173 12.562 20.4173C12.6638 20.4173 12.7644 20.3947 12.8564 20.351C12.9484 20.3074 13.0296 20.2439 13.094 20.165L17.887 14.303C19.1073 12.81 19.7003 10.9016 19.541 8.98C19.4005 7.28225 18.627 5.69934 17.3738 4.54531C16.1207 3.39128 14.4796 2.75047 12.776 2.75H12.345Z" fill="white"/>
</svg>
