<svg width="25" height="24" viewBox="0 0 25 24" fill="none" xmlns="http://www.w3.org/2000/svg">
<g clip-path="url(#clip0_889_948)">
<path d="M17.1897 13.8914L17.6457 13.4384L16.5867 12.3744L16.1327 12.8274L17.1897 13.8914ZM19.1747 13.2484L21.0857 14.2874L21.8007 12.9694L19.8907 11.9314L19.1747 13.2484ZM21.4527 16.3514L20.0327 17.7644L21.0897 18.8274L22.5097 17.4154L21.4527 16.3514ZM19.1667 18.2184C17.7167 18.3544 13.9667 18.2334 9.90472 14.1954L8.84672 15.2584C13.2787 19.6654 17.4977 19.8814 19.3067 19.7124L19.1667 18.2184ZM9.90472 14.1954C6.03372 10.3454 5.39172 7.10845 5.31172 5.70345L3.81372 5.78845C3.91372 7.55645 4.70872 11.1444 8.84672 15.2584L9.90472 14.1954ZM11.2797 8.01545L11.5667 7.72945L10.5107 6.66645L10.2237 6.95145L11.2797 8.01545ZM11.7947 4.09445L10.5347 2.41045L9.33372 3.31045L10.5937 4.99345L11.7947 4.09445ZM6.29372 2.04345L4.72372 3.60345L5.78172 4.66745L7.35072 3.10745L6.29372 2.04345ZM10.7517 7.48345C10.2217 6.95145 10.2217 6.95145 10.2217 6.95345H10.2197L10.2167 6.95745C10.1692 7.00536 10.1266 7.05796 10.0897 7.11445C10.0357 7.19445 9.97672 7.29945 9.92672 7.43245C9.805 7.77577 9.77467 8.14486 9.83872 8.50345C9.97272 9.36845 10.5687 10.5114 12.0947 12.0294L13.1527 10.9654C11.7237 9.54545 11.3837 8.68145 11.3207 8.27345C11.2907 8.07945 11.3217 7.98345 11.3307 7.96145C11.3367 7.94811 11.3367 7.94612 11.3307 7.95545C11.3218 7.96925 11.3118 7.98229 11.3007 7.99445L11.2907 8.00445L11.2807 8.01345L10.7517 7.48345ZM12.0947 12.0294C13.6217 13.5474 14.7707 14.1394 15.6367 14.2714C16.0797 14.3394 16.4367 14.2854 16.7077 14.1844C16.8595 14.1289 17.0013 14.0492 17.1277 13.9484L17.1777 13.9034L17.1847 13.8974L17.1877 13.8944L17.1887 13.8924C17.1887 13.8924 17.1897 13.8914 16.6607 13.3594C16.1307 12.8274 16.1337 12.8264 16.1337 12.8264L16.1357 12.8244L16.1377 12.8224L16.1437 12.8174L16.1537 12.8074L16.1917 12.7774C16.2011 12.7714 16.1987 12.7721 16.1847 12.7794C16.1597 12.7884 16.0617 12.8194 15.8647 12.7894C15.4507 12.7254 14.5807 12.3854 13.1527 10.9654L12.0947 12.0294ZM10.5347 2.40945C9.51472 1.04945 7.51072 0.833448 6.29372 2.04345L7.35072 3.10745C7.88272 2.57845 8.82672 2.63345 9.33372 3.31045L10.5347 2.40945ZM5.31272 5.70445C5.29272 5.35845 5.45172 4.99645 5.78172 4.66845L4.72272 3.60445C4.18572 4.13845 3.76272 4.89445 3.81372 5.78845L5.31272 5.70445ZM20.0327 17.7644C19.7587 18.0384 19.4627 18.1924 19.1677 18.2194L19.3067 19.7124C20.0417 19.6434 20.6427 19.2734 21.0907 18.8284L20.0327 17.7644ZM11.5667 7.72945C12.5517 6.75045 12.6247 5.20345 11.7957 4.09545L10.5947 4.99445C10.9977 5.53345 10.9377 6.24045 10.5097 6.66745L11.5667 7.72945ZM21.0867 14.2884C21.9037 14.7324 22.0307 15.7784 21.4537 16.3524L22.5117 17.4154C23.8517 16.0824 23.4387 13.8594 21.8017 12.9704L21.0867 14.2884ZM17.6457 13.4394C18.0297 13.0574 18.6477 12.9634 19.1757 13.2494L19.8917 11.9324C18.8077 11.3424 17.4637 11.5054 16.5877 12.3754L17.6457 13.4394Z" fill="white"/>
</g>
<defs>
<clipPath id="clip0_889_948">
<rect width="24" height="24" fill="white" transform="translate(0.560547)"/>
</clipPath>
</defs>
</svg>
