<svg width="1440" height="1024" viewBox="0 0 1440 1024" fill="none" xmlns="http://www.w3.org/2000/svg">
<g clip-path="url(#clip0_348_622)">
<rect y="121" width="1446" height="845" fill="white"/>
<mask id="mask0_348_622" style="mask-type:luminance" maskUnits="userSpaceOnUse" x="0" y="0" width="1440" height="1024">
<path d="M1440 0H0V1024H1440V0Z" fill="white"/>
</mask>
<g mask="url(#mask0_348_622)">
<path d="M-52.27 -46.2197V1074.38H1492.28V-46.2197H-52.27ZM1308.7 610.45C1308.7 621.24 1299.96 629.99 1289.17 629.99H1130.94C1120.15 629.99 1111.4 621.24 1111.4 610.45V353.57C1111.4 342.78 1120.15 334.04 1130.94 334.04H1289.17C1299.96 334.04 1308.7 342.78 1308.7 353.57V610.45ZM826.44 610.45C826.44 621.24 817.7 629.99 806.91 629.99H648.68C637.89 629.99 629.14 621.24 629.14 610.45V353.57C629.14 342.78 637.89 334.04 648.68 334.04H806.91C817.7 334.04 826.44 342.78 826.44 353.57V610.45ZM329.12 607.86C329.12 618.65 320.38 627.39 309.59 627.39H151.36C140.57 627.39 131.82 618.65 131.82 607.86V350.97C131.82 340.19 140.57 331.44 151.36 331.44H309.59C320.38 331.44 329.12 340.19 329.12 350.97V607.86Z" fill="#FBFFF5" stroke="#48452B" stroke-width="8" stroke-miterlimit="10"/>
<path d="M1537.78 796.22H-160.3V1090.77H1537.78V796.22Z" fill="#7A7449"/>
<path d="M317.87 310.67H144.8C125.21 310.67 109.32 326.56 109.32 346.15V617.87C109.32 637.47 125.21 653.35 144.8 653.35H317.87C337.47 653.35 353.35 637.47 353.35 617.87V346.15C353.35 326.56 337.47 310.67 317.87 310.67ZM329.12 607.86C329.12 618.65 320.38 627.39 309.59 627.39H151.36C140.57 627.39 131.82 618.65 131.82 607.86V350.97C131.82 340.19 140.57 331.44 151.36 331.44H309.59C320.38 331.44 329.12 340.19 329.12 350.97V607.86Z" fill="#C4B855"/>
<path d="M814.33 310.67H641.26C621.66 310.67 605.78 326.56 605.78 346.15V617.87C605.78 637.47 621.66 653.35 641.26 653.35H814.33C833.92 653.35 849.81 637.47 849.81 617.87V346.15C849.81 326.56 833.92 310.67 814.33 310.67ZM826.44 610.45C826.44 621.24 817.7 629.99 806.91 629.99H648.68C637.89 629.99 629.14 621.24 629.14 610.45V353.57C629.14 342.78 637.89 334.04 648.68 334.04H806.91C817.7 334.04 826.44 342.78 826.44 353.57V610.45Z" fill="#C4B855"/>
<path d="M1296.59 310.67H1123.52C1103.92 310.67 1088.04 326.56 1088.04 346.15V617.87C1088.04 637.47 1103.92 653.35 1123.52 653.35H1296.59C1316.18 653.35 1332.07 637.47 1332.07 617.87V346.15C1332.07 326.56 1316.18 310.67 1296.59 310.67ZM1308.7 610.45C1308.7 621.24 1299.96 629.99 1289.17 629.99H1130.94C1120.15 629.99 1111.4 621.24 1111.4 610.45V353.57C1111.4 342.78 1120.15 334.04 1130.94 334.04H1289.17C1299.96 334.04 1308.7 342.78 1308.7 353.57V610.45Z" fill="#C4B855"/>
<path d="M243.27 141.34H228.94V264.25H243.27V141.34Z" fill="#75704B"/>
<path d="M727.84 141.03H713.51V263.94H727.84V141.03Z" fill="#75704B"/>
<path d="M1217.88 141.34H1203.55V264.25H1217.88V141.34Z" fill="#75704B"/>
<g filter="url(#filter0_d_348_622)">
<path d="M1452.49 -33.7397H-42.63C-62.225 -33.7397 -78.11 -17.8548 -78.11 1.74026V115.97C-78.11 135.565 -62.225 151.45 -42.63 151.45H1452.49C1472.09 151.45 1487.97 135.565 1487.97 115.97V1.74026C1487.97 -17.8548 1472.09 -33.7397 1452.49 -33.7397Z" fill="#C4B855"/>
</g>
<path d="M210.92 151.44H261.31V198.96C261.31 210.45 251.98 219.77 240.5 219.77H231.74C220.25 219.77 210.93 210.44 210.93 198.96V151.44H210.92Z" fill="#C4B855"/>
<path d="M-33.23 0H1467.64V108.33C1467.64 121.01 1457.35 131.3 1444.67 131.3H-10.26C-22.94 131.3 -33.23 121.01 -33.23 108.33V0Z" fill="#FFFCE6"/>
<path d="M694.81 151.44H745.2V198.96C745.2 210.45 735.87 219.77 724.39 219.77H715.63C704.14 219.77 694.82 210.44 694.82 198.96V151.44H694.81Z" fill="#C4B855"/>
<path d="M1184.86 151.75H1235.25V199.27C1235.25 210.76 1225.92 220.08 1214.44 220.08H1205.68C1194.19 220.08 1184.87 210.75 1184.87 199.27V151.75H1184.86Z" fill="#C4B855"/>
<g filter="url(#filter1_d_348_622)">
<path d="M93.7 256.15H378.52V442.63C378.52 455.57 368.02 466.07 355.08 466.07H117.14C104.2 466.07 93.7 455.57 93.7 442.63V256.15Z" fill="#58831A"/>
</g>
<g filter="url(#filter2_d_348_622)">
<path d="M581.72 259.49H866.54V380.45C866.54 393.1 856.27 403.38 843.61 403.38H604.64C591.99 403.38 581.71 393.11 581.71 380.45V259.49H581.72Z" fill="#58831A"/>
</g>
<g filter="url(#filter3_d_348_622)">
<path d="M1068.31 255.061H1353.13V414.471C1353.13 427.121 1342.86 437.401 1330.2 437.401H1091.23C1078.58 437.401 1068.3 427.131 1068.3 414.471V255.061H1068.31Z" fill="#58831A"/>
</g>
<path d="M1308.87 252.92H1111.22C1105.39 252.92 1100.66 257.648 1100.66 263.48V280.45C1100.66 286.282 1105.39 291.01 1111.22 291.01H1308.87C1314.7 291.01 1319.43 286.282 1319.43 280.45V263.48C1319.43 257.648 1314.7 252.92 1308.87 252.92Z" fill="#FAAD0C"/>
<path d="M1308.87 302.15H1111.22C1105.39 302.15 1100.66 306.878 1100.66 312.71V339.9C1100.66 345.733 1105.39 350.46 1111.22 350.46H1308.87C1314.7 350.46 1319.43 345.733 1319.43 339.9V312.71C1319.43 306.878 1314.7 302.15 1308.87 302.15Z" fill="#FAAD0C"/>
<path d="M1308.87 361.58H1111.22C1105.39 361.58 1100.66 366.308 1100.66 372.14V399.33C1100.66 405.162 1105.39 409.89 1111.22 409.89H1308.87C1314.7 409.89 1319.43 405.162 1319.43 399.33V372.14C1319.43 366.308 1314.7 361.58 1308.87 361.58Z" fill="#FAAD0C"/>
<path d="M1478.32 248.36H-98.36V263.94H1478.32V248.36Z" fill="#75704B"/>
<path opacity="0.54" d="M593.63 179.43H341.27C334.56 179.43 329.12 184.869 329.12 191.58V222.16C329.12 228.87 334.56 234.31 341.27 234.31H593.63C600.34 234.31 605.78 228.87 605.78 222.16V191.58C605.78 184.869 600.34 179.43 593.63 179.43Z" fill="#E0DDCD"/>
<path opacity="0.54" d="M1090.95 179.43H838.59C831.88 179.43 826.44 184.869 826.44 191.58V222.16C826.44 228.87 831.88 234.31 838.59 234.31H1090.95C1097.66 234.31 1103.1 228.87 1103.1 222.16V191.58C1103.1 184.869 1097.66 179.43 1090.95 179.43Z" fill="#E0DDCD"/>
<path opacity="0.54" d="M1573.21 179.43H1320.85C1314.14 179.43 1308.7 184.869 1308.7 191.58V222.16C1308.7 228.87 1314.14 234.31 1320.85 234.31H1573.21C1579.92 234.31 1585.36 228.87 1585.36 222.16V191.58C1585.36 184.869 1579.92 179.43 1573.21 179.43Z" fill="#E0DDCD"/>
<path opacity="0.54" d="M119.67 179.43H-132.69C-139.4 179.43 -144.84 184.869 -144.84 191.58V222.16C-144.84 228.87 -139.4 234.31 -132.69 234.31H119.67C126.38 234.31 131.82 228.87 131.82 222.16V191.58C131.82 184.869 126.38 179.43 119.67 179.43Z" fill="#E0DDCD"/>
<path d="M1478.48 895.59H-123.99V1063.73H1478.48V895.59Z" fill="#282618"/>
<g filter="url(#filter4_d_348_622)">
<path d="M349.58 609.73H108.31C102.064 609.73 97 614.794 97 621.04V641.25C97 647.497 102.064 652.56 108.31 652.56H349.58C355.826 652.56 360.89 647.497 360.89 641.25V621.04C360.89 614.794 355.826 609.73 349.58 609.73Z" fill="#58831A"/>
</g>
<g filter="url(#filter5_d_348_622)">
<path d="M848.48 610.9H607.21C600.964 610.9 595.9 615.964 595.9 622.21V642.42C595.9 648.667 600.964 653.73 607.21 653.73H848.48C854.726 653.73 859.79 648.667 859.79 642.42V622.21C859.79 615.964 854.726 610.9 848.48 610.9Z" fill="#58831A"/>
</g>
<g filter="url(#filter6_d_348_622)">
<path d="M1330.68 610.9H1089.41C1083.16 610.9 1078.1 615.964 1078.1 622.21V642.42C1078.1 648.667 1083.16 653.73 1089.41 653.73H1330.68C1336.93 653.73 1341.99 648.667 1341.99 642.42V622.21C1341.99 615.964 1336.93 610.9 1330.68 610.9Z" fill="#58831A"/>
</g>
<path d="M334.94 275.38H137.29C131.458 275.38 126.73 280.108 126.73 285.94V313.13C126.73 318.962 131.458 323.69 137.29 323.69H334.94C340.772 323.69 345.5 318.962 345.5 313.13V285.94C345.5 280.108 340.772 275.38 334.94 275.38Z" fill="#FAAD0C"/>
<path d="M334.94 334.811H137.29C131.458 334.811 126.73 339.538 126.73 345.371V372.561C126.73 378.393 131.458 383.121 137.29 383.121H334.94C340.772 383.121 345.5 378.393 345.5 372.561V345.371C345.5 339.538 340.772 334.811 334.94 334.811Z" fill="#FAAD0C"/>
<path d="M822.24 270.05H624.59C618.758 270.05 614.03 274.778 614.03 280.61V307.8C614.03 313.632 618.758 318.36 624.59 318.36H822.24C828.072 318.36 832.8 313.632 832.8 307.8V280.61C832.8 274.778 828.072 270.05 822.24 270.05Z" fill="#FAAD0C"/>
<path d="M822.24 329.01H624.59C618.758 329.01 614.03 333.738 614.03 339.57V366.76C614.03 372.592 618.758 377.32 624.59 377.32H822.24C828.072 377.32 832.8 372.592 832.8 366.76V339.57C832.8 333.738 828.072 329.01 822.24 329.01Z" fill="#FAAD0C"/>
<path d="M334.94 394.25H137.29C131.458 394.25 126.73 398.978 126.73 404.81V432C126.73 437.832 131.458 442.56 137.29 442.56H334.94C340.772 442.56 345.5 437.832 345.5 432V404.81C345.5 398.978 340.772 394.25 334.94 394.25Z" fill="#FAAD0C"/>
<path d="M290.25 309.771H181.98C176.651 309.771 172.33 314.091 172.33 319.421V338.611C172.33 343.94 176.651 348.261 181.98 348.261H290.25C295.58 348.261 299.9 343.94 299.9 338.611V319.421C299.9 314.091 295.58 309.771 290.25 309.771Z" fill="#FBFFF5"/>
<path d="M290.25 369.01H181.98C176.651 369.01 172.33 373.33 172.33 378.66V397.85C172.33 403.179 176.651 407.5 181.98 407.5H290.25C295.58 407.5 299.9 403.179 299.9 397.85V378.66C299.9 373.33 295.58 369.01 290.25 369.01Z" fill="#FBFFF5"/>
<path d="M776.59 307.061H668.32C662.99 307.061 658.67 311.381 658.67 316.711V335.901C658.67 341.23 662.99 345.551 668.32 345.551H776.59C781.92 345.551 786.24 341.23 786.24 335.901V316.711C786.24 311.381 781.92 307.061 776.59 307.061Z" fill="#FBFFF5"/>
<path d="M1264.18 273.64H1155.91C1150.58 273.64 1146.26 277.96 1146.26 283.29V302.48C1146.26 307.809 1150.58 312.13 1155.91 312.13H1264.18C1269.51 312.13 1273.83 307.809 1273.83 302.48V283.29C1273.83 277.96 1269.51 273.64 1264.18 273.64Z" fill="#FBFFF5"/>
<path d="M1264.85 341.87H1156.58C1151.25 341.87 1146.93 346.191 1146.93 351.52V370.71C1146.93 376.04 1151.25 380.36 1156.58 380.36H1264.85C1270.18 380.36 1274.5 376.04 1274.5 370.71V351.52C1274.5 346.191 1270.18 341.87 1264.85 341.87Z" fill="#FBFFF5"/>
<g filter="url(#filter7_d_348_622)">
<path d="M561.52 762.08H-6.48996C-9.92517 762.08 -12.71 764.865 -12.71 768.3V812.58C-12.71 816.015 -9.92517 818.8 -6.48996 818.8H561.52C564.955 818.8 567.74 816.015 567.74 812.58V768.3C567.74 764.865 564.955 762.08 561.52 762.08Z" fill="#C4B855"/>
</g>
<g opacity="0.83" filter="url(#filter8_d_348_622)">
<path d="M529.76 572.3H427.02C419.332 572.3 413.1 578.532 413.1 586.22V738.81C413.1 746.498 419.332 752.73 427.02 752.73H529.76C537.448 752.73 543.68 746.498 543.68 738.81V586.22C543.68 578.532 537.448 572.3 529.76 572.3Z" fill="#FCD013"/>
</g>
<g opacity="0.83" filter="url(#filter9_d_348_622)">
<path d="M1025.28 572.3H922.54C914.852 572.3 908.62 578.532 908.62 586.22V738.81C908.62 746.498 914.852 752.73 922.54 752.73H1025.28C1032.97 752.73 1039.2 746.498 1039.2 738.81V586.22C1039.2 578.532 1032.97 572.3 1025.28 572.3Z" fill="#FCD013"/>
</g>
<g filter="url(#filter10_d_348_622)">
<path d="M1472.27 762.08H890.79C887.355 762.08 884.57 764.865 884.57 768.3V812.58C884.57 816.015 887.355 818.8 890.79 818.8H1472.27C1475.71 818.8 1478.49 816.015 1478.49 812.58V768.3C1478.49 764.865 1475.71 762.08 1472.27 762.08Z" fill="#C4B855"/>
</g>
<g opacity="0.83" filter="url(#filter11_d_348_622)">
<path d="M38.66 572.3H-64.08C-71.7678 572.3 -78 578.532 -78 586.22V738.81C-78 746.498 -71.7678 752.73 -64.08 752.73H38.66C46.3478 752.73 52.58 746.498 52.58 738.81V586.22C52.58 578.532 46.3478 572.3 38.66 572.3Z" fill="#FCD013"/>
</g>
<g opacity="0.83" filter="url(#filter12_d_348_622)">
<path d="M1507.51 572.3H1404.77C1397.08 572.3 1390.85 578.532 1390.85 586.22V738.81C1390.85 746.498 1397.08 752.73 1404.77 752.73H1507.51C1515.2 752.73 1521.43 746.498 1521.43 738.81V586.22C1521.43 578.532 1515.2 572.3 1507.51 572.3Z" fill="#FCD013"/>
</g>
<g opacity="0.83" filter="url(#filter13_d_348_622)">
<path d="M336.16 673.47H119.67C111.982 673.47 105.75 679.702 105.75 687.39V728.03C105.75 735.718 111.982 741.95 119.67 741.95H336.16C343.848 741.95 350.08 735.718 350.08 728.03V687.39C350.08 679.702 343.848 673.47 336.16 673.47Z" fill="#FCD013"/>
</g>
<g opacity="0.83" filter="url(#filter14_d_348_622)">
<path d="M1318.29 682.54H1101.8C1094.11 682.54 1087.88 688.772 1087.88 696.46V737.1C1087.88 744.788 1094.11 751.02 1101.8 751.02H1318.29C1325.98 751.02 1332.21 744.788 1332.21 737.1V696.46C1332.21 688.772 1325.98 682.54 1318.29 682.54Z" fill="#FCD013"/>
</g>
<path d="M379.08 762.08H369.8V818.8H379.08V762.08Z" fill="#7A7449"/>
<path d="M85.81 762.08H76.53V818.8H85.81V762.08Z" fill="#7A7449"/>
<path d="M1068.31 762.08H1059.03V818.8H1068.31V762.08Z" fill="#7A7449"/>
<path d="M1362.41 762.08H1353.13V818.8H1362.41V762.08Z" fill="#7A7449"/>
<path d="M810.12 702.65H653.33C649.939 702.65 647.19 705.399 647.19 708.79V757.11C647.19 760.501 649.939 763.25 653.33 763.25H810.12C813.511 763.25 816.26 760.501 816.26 757.11V708.79C816.26 705.399 813.511 702.65 810.12 702.65Z" fill="#282618"/>
<path d="M803.67 711.851H660.22C659.171 711.851 658.32 712.701 658.32 713.751V717.091C658.32 718.14 659.171 718.991 660.22 718.991H803.67C804.719 718.991 805.57 718.14 805.57 717.091V713.751C805.57 712.701 804.719 711.851 803.67 711.851Z" fill="#E0DDCD"/>
<path d="M803.67 729.9H660.22C659.171 729.9 658.32 730.751 658.32 731.8V735.14C658.32 736.19 659.171 737.04 660.22 737.04H803.67C804.719 737.04 805.57 736.19 805.57 735.14V731.8C805.57 730.751 804.719 729.9 803.67 729.9Z" fill="#E0DDCD"/>
<path d="M803.67 746.681H660.22C659.171 746.681 658.32 747.531 658.32 748.581V751.921C658.32 752.97 659.171 753.821 660.22 753.821H803.67C804.719 753.821 805.57 752.97 805.57 751.921V748.581C805.57 747.531 804.719 746.681 803.67 746.681Z" fill="#E0DDCD"/>
<path d="M497.68 286.96H453.59C450.199 286.96 447.45 289.709 447.45 293.1V321.01C447.45 324.401 450.199 327.15 453.59 327.15H497.68C501.071 327.15 503.82 324.401 503.82 321.01V293.1C503.82 289.709 501.071 286.96 497.68 286.96Z" fill="#282618"/>
<path d="M498.36 293.06H453.06C452.011 293.06 451.16 293.91 451.16 294.96V295.89C451.16 296.939 452.011 297.79 453.06 297.79H498.36C499.409 297.79 500.26 296.939 500.26 295.89V294.96C500.26 293.91 499.409 293.06 498.36 293.06Z" fill="#E0DDCD"/>
<path d="M498.36 305.03H453.06C452.011 305.03 451.16 305.881 451.16 306.93V307.86C451.16 308.91 452.011 309.76 453.06 309.76H498.36C499.409 309.76 500.26 308.91 500.26 307.86V306.93C500.26 305.881 499.409 305.03 498.36 305.03Z" fill="#E0DDCD"/>
<path d="M498.36 316.16H453.06C452.011 316.16 451.16 317.011 451.16 318.06V318.99C451.16 320.039 452.011 320.89 453.06 320.89H498.36C499.409 320.89 500.26 320.039 500.26 318.99V318.06C500.26 317.011 499.409 316.16 498.36 316.16Z" fill="#E0DDCD"/>
<path d="M991.32 282.05H947.23C943.839 282.05 941.09 284.799 941.09 288.19V316.1C941.09 319.491 943.839 322.24 947.23 322.24H991.32C994.711 322.24 997.46 319.491 997.46 316.1V288.19C997.46 284.799 994.711 282.05 991.32 282.05Z" fill="#282618"/>
<path d="M992.01 288.149H946.71C945.661 288.149 944.81 289 944.81 290.049V290.979C944.81 292.029 945.661 292.879 946.71 292.879H992.01C993.059 292.879 993.91 292.029 993.91 290.979V290.049C993.91 289 993.059 288.149 992.01 288.149Z" fill="#E0DDCD"/>
<path d="M992.01 300.12H946.71C945.661 300.12 944.81 300.971 944.81 302.02V302.95C944.81 303.999 945.661 304.85 946.71 304.85H992.01C993.059 304.85 993.91 303.999 993.91 302.95V302.02C993.91 300.971 993.059 300.12 992.01 300.12Z" fill="#E0DDCD"/>
<path d="M992.01 311.25H946.71C945.661 311.25 944.81 312.101 944.81 313.15V314.08C944.81 315.129 945.661 315.98 946.71 315.98H992.01C993.059 315.98 993.91 315.129 993.91 314.08V313.15C993.91 312.101 993.059 311.25 992.01 311.25Z" fill="#E0DDCD"/>
<path d="M1534.19 -142.4H-144.57V30.5301H1534.19V-142.4Z" fill="#7A7449"/>
<path d="M1470.63 58.73H-41.45V72.67H1470.63V58.73Z" fill="#7A7449"/>
<path d="M1488.63 100.87H-36.52V114.81H1488.63V100.87Z" fill="#7A7449"/>
<path d="M264.78 -7.95996L233.77 16.1C233.77 16.1 399.86 -18.11 389.56 135.81" stroke="#7A7449" stroke-width="9" stroke-miterlimit="10"/>
<path d="M600.08 -13.1602L569.07 10.8998C569.07 10.8998 735.16 -23.3102 724.86 130.61" stroke="#7A7449" stroke-width="9" stroke-miterlimit="10"/>
<path d="M962.65 -13.04L931.64 11.02C931.64 11.02 1097.73 -23.19 1087.43 130.73" stroke="#7A7449" stroke-width="9" stroke-miterlimit="10"/>
<path d="M-39.4299 -7.95996L-70.4399 16.1C-70.4399 16.1 95.6501 -18.11 85.3501 135.81" stroke="#7A7449" stroke-width="9" stroke-miterlimit="10"/>
<path d="M1261.59 -13.04L1230.58 11.02C1230.58 11.02 1396.67 -23.19 1386.37 130.73" stroke="#7A7449" stroke-width="9" stroke-miterlimit="10"/>
<path d="M45.61 242.63H38.5C36.4511 242.63 34.79 244.291 34.79 246.34V314.81C34.79 316.859 36.4511 318.52 38.5 318.52H45.61C47.659 318.52 49.32 316.859 49.32 314.81V246.34C49.32 244.291 47.659 242.63 45.61 242.63Z" fill="#685900"/>
<path d="M416.66 242.63H409.55C407.501 242.63 405.84 244.291 405.84 246.34V314.81C405.84 316.859 407.501 318.52 409.55 318.52H416.66C418.709 318.52 420.37 316.859 420.37 314.81V246.34C420.37 244.291 418.709 242.63 416.66 242.63Z" fill="#685900"/>
<path d="M543.07 242.63H535.96C533.911 242.63 532.25 244.291 532.25 246.34V314.81C532.25 316.859 533.911 318.52 535.96 318.52H543.07C545.119 318.52 546.78 316.859 546.78 314.81V246.34C546.78 244.291 545.119 242.63 543.07 242.63Z" fill="#685900"/>
<path d="M901.63 242.63H894.52C892.471 242.63 890.81 244.291 890.81 246.34V314.81C890.81 316.859 892.471 318.52 894.52 318.52H901.63C903.679 318.52 905.34 316.859 905.34 314.81V246.34C905.34 244.291 903.679 242.63 901.63 242.63Z" fill="#685900"/>
<path d="M1036.44 242.63H1029.33C1027.28 242.63 1025.62 244.291 1025.62 246.34V314.81C1025.62 316.859 1027.28 318.52 1029.33 318.52H1036.44C1038.49 318.52 1040.15 316.859 1040.15 314.81V246.34C1040.15 244.291 1038.49 242.63 1036.44 242.63Z" fill="#685900"/>
<path d="M1401.67 242.63H1394.56C1392.51 242.63 1390.85 244.291 1390.85 246.34V314.81C1390.85 316.859 1392.51 318.52 1394.56 318.52H1401.67C1403.72 318.52 1405.38 316.859 1405.38 314.81V246.34C1405.38 244.291 1403.72 242.63 1401.67 242.63Z" fill="#685900"/>
<path opacity="0.36" d="M-12.71 792.73H567.74V812.581C567.74 816.011 564.95 818.8 561.52 818.8H-6.49997C-9.92997 818.8 -12.72 816.011 -12.72 812.581V792.73H-12.71Z" fill="#7A7449"/>
<path opacity="0.36" d="M884.57 792.73H1465.02V812.581C1465.02 816.011 1462.23 818.8 1458.8 818.8H890.78C887.35 818.8 884.56 816.011 884.56 812.581V792.73H884.57Z" fill="#7A7449"/>
<g filter="url(#filter15_d_348_622)">
<path d="M526.58 385.29H433.67C427.114 385.29 421.8 390.604 421.8 397.16V448.47C421.8 455.026 427.114 460.34 433.67 460.34H526.58C533.136 460.34 538.45 455.026 538.45 448.47V397.16C538.45 390.604 533.136 385.29 526.58 385.29Z" fill="#22B573"/>
</g>
<path d="M555.704 505.651L515.82 484.068C512.119 482.065 507.495 483.442 505.492 487.143L494.193 508.022C492.19 511.723 493.567 516.347 497.268 518.35L537.153 539.934C540.854 541.937 545.478 540.56 547.481 536.859L558.78 515.98C560.782 512.278 559.406 507.654 555.704 505.651Z" fill="#E0DDCD"/>
<path opacity="0.52" d="M540.732 492.494L535.311 489.364L529.966 498.622L535.387 501.752L540.732 492.494Z" fill="#7A7449"/>
<path d="M1021.71 351.406L978.896 366.365C974.923 367.754 972.828 372.1 974.216 376.072L982.047 398.484C983.435 402.457 987.781 404.552 991.754 403.164L1034.57 388.205C1038.54 386.817 1040.63 382.471 1039.25 378.498L1031.41 356.087C1030.03 352.114 1025.68 350.018 1021.71 351.406Z" fill="#E0DDCD"/>
<path opacity="0.52" d="M1001.89 353.611L995.93 355.512L999.176 365.697L1005.14 363.796L1001.89 353.611Z" fill="#7A7449"/>
<path d="M887.948 696.876L843.176 689.656C839.021 688.986 835.11 691.811 834.44 695.966L830.661 719.403C829.991 723.558 832.816 727.469 836.971 728.139L881.742 735.359C885.897 736.029 889.808 733.204 890.478 729.049L894.258 705.612C894.928 701.457 892.103 697.546 887.948 696.876Z" fill="#E0DDCD"/>
<path opacity="0.52" d="M869.47 689.382L863.319 688.216L861.327 698.719L867.478 699.885L869.47 689.382Z" fill="#7A7449"/>
<path d="M1403.96 471.52L1360.15 483.235C1356.09 484.322 1353.67 488.499 1354.76 492.565L1360.89 515.499C1361.98 519.564 1366.16 521.979 1370.22 520.892L1414.03 509.177C1418.1 508.09 1420.51 503.913 1419.43 499.848L1413.29 476.913C1412.21 472.848 1408.03 470.433 1403.96 471.52Z" fill="#E0DDCD"/>
<path opacity="0.52" d="M1384.03 472.221L1377.94 473.671L1380.41 484.07L1386.5 482.621L1384.03 472.221Z" fill="#7A7449"/>
<path d="M493.86 418.73H444.18C442.926 418.73 441.91 419.747 441.91 421V426.93C441.91 428.184 442.926 429.2 444.18 429.2H493.86C495.114 429.2 496.13 428.184 496.13 426.93V421C496.13 419.747 495.114 418.73 493.86 418.73Z" fill="#E0DDCD"/>
<path d="M513.07 421.3L497.08 412.07C495.03 410.88 492.46 412.37 492.46 414.74V433.21C492.46 435.58 495.03 437.06 497.08 435.88L513.07 426.65C515.12 425.46 515.12 422.5 513.07 421.31V421.3Z" fill="#E0DDCD"/>
<path d="M1518.36 847.57H-254.38V877.55H1518.36V847.57Z" fill="#DFCD6B"/>
<g filter="url(#filter16_d_348_622)">
<path d="M1020.37 432.4H927.46C920.904 432.4 915.59 437.715 915.59 444.27V537.18C915.59 543.736 920.904 549.05 927.46 549.05H1020.37C1026.93 549.05 1032.24 543.736 1032.24 537.18V444.27C1032.24 437.715 1026.93 432.4 1020.37 432.4Z" fill="#22B573"/>
</g>
<path d="M1015.71 461.43C1015.71 467.1 1011.11 471.7 1005.44 471.7C1003.68 471.7 1002.03 471.26 1000.58 470.48C997.36 468.75 995.17 465.35 995.17 461.43C995.17 455.76 999.77 451.16 1005.44 451.16C1011.11 451.16 1015.71 455.76 1015.71 461.43Z" fill="#192F2F" stroke="#192F2F" stroke-miterlimit="10"/>
<path d="M971.76 496.96L937.59 524.82L931.34 498.03L921.96 505.84" stroke="#192F2F" stroke-width="2" stroke-linecap="round" stroke-linejoin="round"/>
<path d="M948.97 479.73L996.79 473.95L1000.57 470.47L962.58 505.39C962.58 505.39 964.74 504.52 968.26 503.2C985.31 496.83 1034.16 480.1 1021.95 502.49C1007.22 529.5 1007.44 533.07 1007.44 533.07L1020.83 531.73" stroke="#192F2F" stroke-width="2" stroke-linecap="round" stroke-linejoin="round"/>
<path d="M955.44 494.911L1005.44 468.351" stroke="#192F2F" stroke-width="2" stroke-linecap="round" stroke-linejoin="round"/>
</g>
<path d="M618.07 796.22L605.18 757.77H629.24L612.91 713.08" stroke="#192F2F" stroke-width="4" stroke-miterlimit="10"/>
<path d="M353.35 512L392.05 526.59L403.23 493.08L436.74 512" stroke="#192F2F" stroke-width="4" stroke-miterlimit="10"/>
</g>
<defs>
<filter id="filter0_d_348_622" x="-78.11" y="-33.7397" width="1566.08" height="196.19" filterUnits="userSpaceOnUse" color-interpolation-filters="sRGB">
<feFlood flood-opacity="0" result="BackgroundImageFix"/>
<feColorMatrix in="SourceAlpha" type="matrix" values="0 0 0 0 0 0 0 0 0 0 0 0 0 0 0 0 0 0 127 0" result="hardAlpha"/>
<feOffset dy="11"/>
<feColorMatrix type="matrix" values="0 0 0 0 0.486275 0 0 0 0 0.462745 0 0 0 0 0.25098 0 0 0 0.75 0"/>
<feBlend mode="normal" in2="BackgroundImageFix" result="effect1_dropShadow_348_622"/>
<feBlend mode="normal" in="SourceGraphic" in2="effect1_dropShadow_348_622" result="shape"/>
</filter>
<filter id="filter1_d_348_622" x="93.7" y="256.15" width="284.82" height="217.92" filterUnits="userSpaceOnUse" color-interpolation-filters="sRGB">
<feFlood flood-opacity="0" result="BackgroundImageFix"/>
<feColorMatrix in="SourceAlpha" type="matrix" values="0 0 0 0 0 0 0 0 0 0 0 0 0 0 0 0 0 0 127 0" result="hardAlpha"/>
<feOffset dy="8"/>
<feColorMatrix type="matrix" values="0 0 0 0 0.368627 0 0 0 0 0 0 0 0 0 0 0 0 0 1 0"/>
<feBlend mode="normal" in2="BackgroundImageFix" result="effect1_dropShadow_348_622"/>
<feBlend mode="normal" in="SourceGraphic" in2="effect1_dropShadow_348_622" result="shape"/>
</filter>
<filter id="filter2_d_348_622" x="581.71" y="259.49" width="284.83" height="151.89" filterUnits="userSpaceOnUse" color-interpolation-filters="sRGB">
<feFlood flood-opacity="0" result="BackgroundImageFix"/>
<feColorMatrix in="SourceAlpha" type="matrix" values="0 0 0 0 0 0 0 0 0 0 0 0 0 0 0 0 0 0 127 0" result="hardAlpha"/>
<feOffset dy="8"/>
<feColorMatrix type="matrix" values="0 0 0 0 0.368627 0 0 0 0 0 0 0 0 0 0 0 0 0 1 0"/>
<feBlend mode="normal" in2="BackgroundImageFix" result="effect1_dropShadow_348_622"/>
<feBlend mode="normal" in="SourceGraphic" in2="effect1_dropShadow_348_622" result="shape"/>
</filter>
<filter id="filter3_d_348_622" x="1068.3" y="255.061" width="284.83" height="190.34" filterUnits="userSpaceOnUse" color-interpolation-filters="sRGB">
<feFlood flood-opacity="0" result="BackgroundImageFix"/>
<feColorMatrix in="SourceAlpha" type="matrix" values="0 0 0 0 0 0 0 0 0 0 0 0 0 0 0 0 0 0 127 0" result="hardAlpha"/>
<feOffset dy="8"/>
<feColorMatrix type="matrix" values="0 0 0 0 0.368627 0 0 0 0 0 0 0 0 0 0 0 0 0 1 0"/>
<feBlend mode="normal" in2="BackgroundImageFix" result="effect1_dropShadow_348_622"/>
<feBlend mode="normal" in="SourceGraphic" in2="effect1_dropShadow_348_622" result="shape"/>
</filter>
<filter id="filter4_d_348_622" x="97" y="609.73" width="263.89" height="50.8301" filterUnits="userSpaceOnUse" color-interpolation-filters="sRGB">
<feFlood flood-opacity="0" result="BackgroundImageFix"/>
<feColorMatrix in="SourceAlpha" type="matrix" values="0 0 0 0 0 0 0 0 0 0 0 0 0 0 0 0 0 0 127 0" result="hardAlpha"/>
<feOffset dy="8"/>
<feColorMatrix type="matrix" values="0 0 0 0 0.368627 0 0 0 0 0 0 0 0 0 0 0 0 0 0.75 0"/>
<feBlend mode="normal" in2="BackgroundImageFix" result="effect1_dropShadow_348_622"/>
<feBlend mode="normal" in="SourceGraphic" in2="effect1_dropShadow_348_622" result="shape"/>
</filter>
<filter id="filter5_d_348_622" x="595.9" y="610.9" width="263.89" height="50.8301" filterUnits="userSpaceOnUse" color-interpolation-filters="sRGB">
<feFlood flood-opacity="0" result="BackgroundImageFix"/>
<feColorMatrix in="SourceAlpha" type="matrix" values="0 0 0 0 0 0 0 0 0 0 0 0 0 0 0 0 0 0 127 0" result="hardAlpha"/>
<feOffset dy="8"/>
<feColorMatrix type="matrix" values="0 0 0 0 0.368627 0 0 0 0 0 0 0 0 0 0 0 0 0 0.75 0"/>
<feBlend mode="normal" in2="BackgroundImageFix" result="effect1_dropShadow_348_622"/>
<feBlend mode="normal" in="SourceGraphic" in2="effect1_dropShadow_348_622" result="shape"/>
</filter>
<filter id="filter6_d_348_622" x="1078.1" y="610.9" width="263.89" height="50.8301" filterUnits="userSpaceOnUse" color-interpolation-filters="sRGB">
<feFlood flood-opacity="0" result="BackgroundImageFix"/>
<feColorMatrix in="SourceAlpha" type="matrix" values="0 0 0 0 0 0 0 0 0 0 0 0 0 0 0 0 0 0 127 0" result="hardAlpha"/>
<feOffset dy="8"/>
<feColorMatrix type="matrix" values="0 0 0 0 0.368627 0 0 0 0 0 0 0 0 0 0 0 0 0 0.75 0"/>
<feBlend mode="normal" in2="BackgroundImageFix" result="effect1_dropShadow_348_622"/>
<feBlend mode="normal" in="SourceGraphic" in2="effect1_dropShadow_348_622" result="shape"/>
</filter>
<filter id="filter7_d_348_622" x="-12.71" y="762.08" width="580.45" height="64.7197" filterUnits="userSpaceOnUse" color-interpolation-filters="sRGB">
<feFlood flood-opacity="0" result="BackgroundImageFix"/>
<feColorMatrix in="SourceAlpha" type="matrix" values="0 0 0 0 0 0 0 0 0 0 0 0 0 0 0 0 0 0 127 0" result="hardAlpha"/>
<feOffset dy="8"/>
<feColorMatrix type="matrix" values="0 0 0 0 0.239216 0 0 0 0 0.286275 0 0 0 0 0.156863 0 0 0 0.62 0"/>
<feBlend mode="normal" in2="BackgroundImageFix" result="effect1_dropShadow_348_622"/>
<feBlend mode="normal" in="SourceGraphic" in2="effect1_dropShadow_348_622" result="shape"/>
</filter>
<filter id="filter8_d_348_622" x="413.1" y="572.3" width="130.58" height="185.43" filterUnits="userSpaceOnUse" color-interpolation-filters="sRGB">
<feFlood flood-opacity="0" result="BackgroundImageFix"/>
<feColorMatrix in="SourceAlpha" type="matrix" values="0 0 0 0 0 0 0 0 0 0 0 0 0 0 0 0 0 0 127 0" result="hardAlpha"/>
<feOffset dy="5"/>
<feColorMatrix type="matrix" values="0 0 0 0 0.4 0 0 0 0 0.407843 0 0 0 0 0.00784314 0 0 0 0.84 0"/>
<feBlend mode="normal" in2="BackgroundImageFix" result="effect1_dropShadow_348_622"/>
<feBlend mode="normal" in="SourceGraphic" in2="effect1_dropShadow_348_622" result="shape"/>
</filter>
<filter id="filter9_d_348_622" x="908.62" y="572.3" width="130.58" height="185.43" filterUnits="userSpaceOnUse" color-interpolation-filters="sRGB">
<feFlood flood-opacity="0" result="BackgroundImageFix"/>
<feColorMatrix in="SourceAlpha" type="matrix" values="0 0 0 0 0 0 0 0 0 0 0 0 0 0 0 0 0 0 127 0" result="hardAlpha"/>
<feOffset dy="5"/>
<feColorMatrix type="matrix" values="0 0 0 0 0.4 0 0 0 0 0.407843 0 0 0 0 0.00784314 0 0 0 0.84 0"/>
<feBlend mode="normal" in2="BackgroundImageFix" result="effect1_dropShadow_348_622"/>
<feBlend mode="normal" in="SourceGraphic" in2="effect1_dropShadow_348_622" result="shape"/>
</filter>
<filter id="filter10_d_348_622" x="884.57" y="762.08" width="593.92" height="64.7197" filterUnits="userSpaceOnUse" color-interpolation-filters="sRGB">
<feFlood flood-opacity="0" result="BackgroundImageFix"/>
<feColorMatrix in="SourceAlpha" type="matrix" values="0 0 0 0 0 0 0 0 0 0 0 0 0 0 0 0 0 0 127 0" result="hardAlpha"/>
<feOffset dy="8"/>
<feColorMatrix type="matrix" values="0 0 0 0 0.239216 0 0 0 0 0.286275 0 0 0 0 0.156863 0 0 0 0.62 0"/>
<feBlend mode="normal" in2="BackgroundImageFix" result="effect1_dropShadow_348_622"/>
<feBlend mode="normal" in="SourceGraphic" in2="effect1_dropShadow_348_622" result="shape"/>
</filter>
<filter id="filter11_d_348_622" x="-78" y="572.3" width="130.58" height="185.43" filterUnits="userSpaceOnUse" color-interpolation-filters="sRGB">
<feFlood flood-opacity="0" result="BackgroundImageFix"/>
<feColorMatrix in="SourceAlpha" type="matrix" values="0 0 0 0 0 0 0 0 0 0 0 0 0 0 0 0 0 0 127 0" result="hardAlpha"/>
<feOffset dy="5"/>
<feColorMatrix type="matrix" values="0 0 0 0 0.4 0 0 0 0 0.407843 0 0 0 0 0.00784314 0 0 0 0.84 0"/>
<feBlend mode="normal" in2="BackgroundImageFix" result="effect1_dropShadow_348_622"/>
<feBlend mode="normal" in="SourceGraphic" in2="effect1_dropShadow_348_622" result="shape"/>
</filter>
<filter id="filter12_d_348_622" x="1390.85" y="572.3" width="130.58" height="185.43" filterUnits="userSpaceOnUse" color-interpolation-filters="sRGB">
<feFlood flood-opacity="0" result="BackgroundImageFix"/>
<feColorMatrix in="SourceAlpha" type="matrix" values="0 0 0 0 0 0 0 0 0 0 0 0 0 0 0 0 0 0 127 0" result="hardAlpha"/>
<feOffset dy="5"/>
<feColorMatrix type="matrix" values="0 0 0 0 0.4 0 0 0 0 0.407843 0 0 0 0 0.00784314 0 0 0 0.84 0"/>
<feBlend mode="normal" in2="BackgroundImageFix" result="effect1_dropShadow_348_622"/>
<feBlend mode="normal" in="SourceGraphic" in2="effect1_dropShadow_348_622" result="shape"/>
</filter>
<filter id="filter13_d_348_622" x="105.75" y="673.47" width="244.33" height="73.4805" filterUnits="userSpaceOnUse" color-interpolation-filters="sRGB">
<feFlood flood-opacity="0" result="BackgroundImageFix"/>
<feColorMatrix in="SourceAlpha" type="matrix" values="0 0 0 0 0 0 0 0 0 0 0 0 0 0 0 0 0 0 127 0" result="hardAlpha"/>
<feOffset dy="5"/>
<feColorMatrix type="matrix" values="0 0 0 0 0.4 0 0 0 0 0.407843 0 0 0 0 0.00784314 0 0 0 0.84 0"/>
<feBlend mode="normal" in2="BackgroundImageFix" result="effect1_dropShadow_348_622"/>
<feBlend mode="normal" in="SourceGraphic" in2="effect1_dropShadow_348_622" result="shape"/>
</filter>
<filter id="filter14_d_348_622" x="1087.88" y="682.54" width="244.33" height="73.4805" filterUnits="userSpaceOnUse" color-interpolation-filters="sRGB">
<feFlood flood-opacity="0" result="BackgroundImageFix"/>
<feColorMatrix in="SourceAlpha" type="matrix" values="0 0 0 0 0 0 0 0 0 0 0 0 0 0 0 0 0 0 127 0" result="hardAlpha"/>
<feOffset dy="5"/>
<feColorMatrix type="matrix" values="0 0 0 0 0.4 0 0 0 0 0.407843 0 0 0 0 0.00784314 0 0 0 0.84 0"/>
<feBlend mode="normal" in2="BackgroundImageFix" result="effect1_dropShadow_348_622"/>
<feBlend mode="normal" in="SourceGraphic" in2="effect1_dropShadow_348_622" result="shape"/>
</filter>
<filter id="filter15_d_348_622" x="421.8" y="385.29" width="116.65" height="78.0498" filterUnits="userSpaceOnUse" color-interpolation-filters="sRGB">
<feFlood flood-opacity="0" result="BackgroundImageFix"/>
<feColorMatrix in="SourceAlpha" type="matrix" values="0 0 0 0 0 0 0 0 0 0 0 0 0 0 0 0 0 0 127 0" result="hardAlpha"/>
<feOffset dy="3"/>
<feColorMatrix type="matrix" values="0 0 0 0 0.219608 0 0 0 0 0.219608 0 0 0 0 0.00392157 0 0 0 0.84 0"/>
<feBlend mode="normal" in2="BackgroundImageFix" result="effect1_dropShadow_348_622"/>
<feBlend mode="normal" in="SourceGraphic" in2="effect1_dropShadow_348_622" result="shape"/>
</filter>
<filter id="filter16_d_348_622" x="915.59" y="432.4" width="116.65" height="119.65" filterUnits="userSpaceOnUse" color-interpolation-filters="sRGB">
<feFlood flood-opacity="0" result="BackgroundImageFix"/>
<feColorMatrix in="SourceAlpha" type="matrix" values="0 0 0 0 0 0 0 0 0 0 0 0 0 0 0 0 0 0 127 0" result="hardAlpha"/>
<feOffset dy="3"/>
<feColorMatrix type="matrix" values="0 0 0 0 0.219608 0 0 0 0 0.219608 0 0 0 0 0.00392157 0 0 0 0.84 0"/>
<feBlend mode="normal" in2="BackgroundImageFix" result="effect1_dropShadow_348_622"/>
<feBlend mode="normal" in="SourceGraphic" in2="effect1_dropShadow_348_622" result="shape"/>
</filter>
<clipPath id="clip0_348_622">
<rect width="1440" height="1024" fill="white"/>
</clipPath>
</defs>
</svg>
