<svg width="50" height="50" viewBox="0 0 50 50" fill="none" xmlns="http://www.w3.org/2000/svg">
<path d="M49.8745 0H0V49.8272H49.8745V0Z" fill="url(#paint0_linear_1861_3735)"/>
<path d="M50 46.5H0V50H50V46.5Z" fill="#6E7EA5"/>
<path d="M0 20.3688H4.01124C5.26084 20.3688 6.27478 21.7342 6.27478 23.4154V44.3158H0V20.3688Z" fill="#8EA2D7"/>
<path d="M6.24268 31.7823H13.0137C14.661 31.7823 15.9987 33.8652 15.9987 36.4303V46.4434H6.24268V31.7823Z" fill="#8EA2D7"/>
<path d="M24.3373 46.3364H20.8335V39.2146C20.8335 37.7625 21.5894 36.5855 22.522 36.5855H23.8859C24.1352 36.5855 24.3377 36.9002 24.3377 37.2891L24.3373 46.3364Z" fill="#8EA2D7"/>
<path d="M28.3581 29.4638H30.6585V46.5347H26.9482V31.659C26.9482 30.4473 27.5799 29.4638 28.3581 29.4638Z" fill="#8EA2D7"/>
<path d="M40.3467 24.4058H42.7652C43.7053 24.4058 44.469 25.5944 44.469 27.0588V46.4441H40.3467V24.4058Z" fill="#8EA2D7"/>
<path d="M48.7751 15.4069H49.8355V46.4441H47.6978V17.0838C47.6978 16.1581 48.1807 15.4069 48.7751 15.4069Z" fill="#8EA2D7"/>
<path d="M38.148 39.5968H40.3461L40.3467 46.4441L37.2644 46.4434V40.9726C37.2644 40.2132 37.6603 39.5968 38.148 39.5968Z" fill="#8EA2D7"/>
<path d="M34.4088 35.6804H35.3248V46.3004H33.9014V36.4705C33.9014 36.0339 34.1284 35.6804 34.4088 35.6804Z" fill="#8EA2D7"/>
<path d="M18.6734 34.859V45.0867C18.6734 45.3577 18.5321 45.5777 18.358 45.5777H2.89702C2.71636 45.5777 2.56982 45.3496 2.56982 45.0683V41.1232C2.56982 39.9299 2.77104 38.8095 3.12361 37.8402C3.21416 37.5909 3.3152 37.3512 3.425 37.123C3.69708 36.5577 4.02559 36.0618 4.39741 35.6559C5.09336 34.8958 5.9411 34.4496 6.85533 34.4496H18.41C18.5553 34.4496 18.6734 34.6329 18.6734 34.859Z" fill="#F3F5FF"/>
<path d="M18.6519 44.2686H2.56982V44.7951H18.6519V44.2686Z" fill="#FB724A"/>
<path d="M14.5399 34.3931H9.33496V45.5736H14.5399V34.3931Z" fill="#FBC44A"/>
<path d="M13.1029 35.1579H10.7701C10.2613 35.1579 9.84888 35.8002 9.84888 36.5924V42.6918C9.84888 43.484 10.2613 44.1262 10.7701 44.1262H13.1029C13.6117 44.1262 14.0241 43.484 14.0241 42.6918V36.5924C14.0241 35.8002 13.6117 35.1579 13.1029 35.1579Z" fill="#333333"/>
<path d="M6.44696 36.1435V36.6346C6.44696 36.9043 6.30654 37.123 6.13332 37.123L3.425 37.123C3.69708 36.5577 4.02559 36.0618 4.39741 35.6559L6.13332 35.6558C6.30654 35.6558 6.44696 35.8745 6.44696 36.1435Z" fill="#333333"/>
<path d="M6.46339 38.6085V41.1266C6.46339 41.5509 6.24249 41.8949 5.96997 41.8949H2.56982V41.1232C2.56982 39.9299 2.77104 38.8095 3.12361 37.8402L5.9704 37.8395C6.24292 37.8395 6.46339 38.1842 6.46339 38.6085Z" fill="#333333"/>
<path d="M7.53864 35.6558H7.26394C7.07961 35.6558 6.93018 35.8885 6.93018 36.1755V36.6033C6.93018 36.8903 7.07961 37.123 7.26394 37.123H7.53864C7.72297 37.123 7.8724 36.8903 7.8724 36.6033V36.1755C7.8724 35.8885 7.72297 35.6558 7.53864 35.6558Z" fill="#333333"/>
<path d="M15.9734 37.642H15.1497C14.9653 37.642 14.8159 37.8747 14.8159 38.1617V40.1376C14.8159 40.4246 14.9653 40.6573 15.1497 40.6573H15.9734C16.1577 40.6573 16.3071 40.4246 16.3071 40.1376V38.1617C16.3071 37.8747 16.1577 37.642 15.9734 37.642Z" fill="#333333"/>
<path d="M17.9985 37.642H17.1748C16.9905 37.642 16.8411 37.8747 16.8411 38.1617V40.1376C16.8411 40.4246 16.9905 40.6573 17.1748 40.6573H17.9985C18.1828 40.6573 18.3323 40.4246 18.3323 40.1376V38.1617C18.3323 37.8747 18.1828 37.642 17.9985 37.642Z" fill="#333333"/>
<path d="M14.5496 45.0839H9.33496V45.6104H14.5496V45.0839Z" fill="#CC524A"/>
<path d="M4.71094 45.577H18.3316V45.9993C18.3316 46.3487 18.1492 46.6328 17.9248 46.6328H5.11818C4.89378 46.6328 4.71137 46.3487 4.71137 45.9993L4.71094 45.577Z" fill="#333333"/>
<path d="M39.0893 34.4394H19.1626C19.0466 34.4394 18.9526 34.5858 18.9526 34.7663V45.261C18.9526 45.4416 19.0466 45.5879 19.1626 45.5879H39.0893C39.2053 45.5879 39.2993 45.4416 39.2993 45.261V34.7663C39.2993 34.5858 39.2053 34.4394 39.0893 34.4394Z" fill="#F3F5FF"/>
<path d="M19.4763 45.577H38.805V45.8781C38.805 46.2949 38.5876 46.6327 38.3204 46.6327H19.9614C19.6937 46.6327 19.4768 46.2942 19.4768 45.8781L19.4763 45.577Z" fill="#333333"/>
<path d="M39.2991 44.2686H18.9075V44.7951H39.2991V44.2686Z" fill="#FB724A"/>
<path d="M22.134 37.6604H21.3103C21.126 37.6604 20.9766 37.893 20.9766 38.1801V40.156C20.9766 40.443 21.126 40.6757 21.3103 40.6757H22.134C22.3183 40.6757 22.4678 40.443 22.4678 40.156V38.1801C22.4678 37.893 22.3183 37.6604 22.134 37.6604Z" fill="#333333"/>
<path d="M24.1396 37.6604H23.3159C23.1316 37.6604 22.9822 37.893 22.9822 38.1801V40.156C22.9822 40.443 23.1316 40.6757 23.3159 40.6757H24.1396C24.3239 40.6757 24.4734 40.443 24.4734 40.156V38.1801C24.4734 37.893 24.3239 37.6604 24.1396 37.6604Z" fill="#333333"/>
<path d="M26.1465 37.6604H25.3228C25.1384 37.6604 24.989 37.893 24.989 38.1801V40.156C24.989 40.443 25.1384 40.6757 25.3228 40.6757H26.1465C26.3308 40.6757 26.4802 40.443 26.4802 40.156V38.1801C26.4802 37.893 26.3308 37.6604 26.1465 37.6604Z" fill="#333333"/>
<path d="M33.3364 37.6604H32.5127C32.3284 37.6604 32.179 37.893 32.179 38.1801V40.156C32.179 40.443 32.3284 40.6757 32.5127 40.6757H33.3364C33.5207 40.6757 33.6702 40.443 33.6702 40.156V38.1801C33.6702 37.893 33.5207 37.6604 33.3364 37.6604Z" fill="#333333"/>
<path d="M35.4153 37.6604H34.5916C34.4072 37.6604 34.2578 37.893 34.2578 38.1801V40.156C34.2578 40.443 34.4072 40.6757 34.5916 40.6757H35.4153C35.5996 40.6757 35.749 40.443 35.749 40.156V38.1801C35.749 37.893 35.5996 37.6604 35.4153 37.6604Z" fill="#333333"/>
<path d="M37.3696 37.6236H36.5459C36.3616 37.6236 36.2122 37.8563 36.2122 38.1433V40.1192C36.2122 40.4062 36.3616 40.6389 36.5459 40.6389H37.3696C37.5539 40.6389 37.7034 40.4062 37.7034 40.1192V38.1433C37.7034 37.8563 37.5539 37.6236 37.3696 37.6236Z" fill="#333333"/>
<path d="M30.0921 34.423H28.5681V45.6035H30.0921V34.423Z" fill="#FBC44A"/>
<path d="M39.4794 34.8855H39.3809C39.3379 34.8855 39.3031 34.9398 39.3031 35.0067V45.0199C39.3031 45.0868 39.3379 45.1411 39.3809 45.1411H39.4794C39.5224 45.1411 39.5572 45.0868 39.5572 45.0199V35.0067C39.5572 34.9398 39.5224 34.8855 39.4794 34.8855Z" fill="#666666"/>
<path d="M39.7334 34.8855H39.635C39.592 34.8855 39.5572 34.9398 39.5572 35.0067V45.0199C39.5572 45.0868 39.592 45.1411 39.635 45.1411H39.7334C39.7764 45.1411 39.8113 45.0868 39.8113 45.0198V35.0067C39.8113 34.9398 39.7764 34.8855 39.7334 34.8855Z" fill="#666666"/>
<path d="M40.0032 34.8855H39.9048C39.8618 34.8855 39.8269 34.9398 39.8269 35.0067V45.0198C39.8269 45.0868 39.8618 45.1411 39.9048 45.1411H40.0032C40.0462 45.1411 40.0811 45.0868 40.0811 45.0198V35.0067C40.0811 34.9398 40.0462 34.8855 40.0032 34.8855Z" fill="#666666"/>
<path d="M40.2644 34.8855H40.166C40.123 34.8855 40.0881 34.9398 40.0881 35.0067V45.0198C40.0881 45.0868 40.123 45.1411 40.166 45.1411H40.2644C40.3074 45.1411 40.3423 45.0868 40.3423 45.0198V35.0067C40.3423 34.9398 40.3074 34.8855 40.2644 34.8855Z" fill="#666666"/>
<path d="M40.523 34.8855H40.4245C40.3815 34.8855 40.3467 34.9398 40.3467 35.0067V45.0198C40.3467 45.0868 40.3815 45.1411 40.4245 45.1411H40.523C40.566 45.1411 40.6008 45.0868 40.6008 45.0198V35.0067C40.6008 34.9398 40.566 34.8855 40.523 34.8855Z" fill="#666666"/>
<path d="M40.7769 34.8855H40.6785C40.6354 34.8855 40.6008 34.9398 40.6008 35.0067V45.0198C40.6008 45.0868 40.6354 45.1411 40.6785 45.1411H40.7769C40.8199 45.1411 40.8547 45.0868 40.8547 45.0198V35.0067C40.8547 34.9398 40.8199 34.8855 40.7769 34.8855Z" fill="#666666"/>
<path d="M41.0454 34.8855H40.947C40.904 34.8855 40.8691 34.9398 40.8691 35.0067V45.0198C40.8691 45.0868 40.904 45.1411 40.947 45.1411H41.0454C41.0884 45.1411 41.1233 45.0868 41.1233 45.0198V35.0067C41.1233 34.9398 41.0884 34.8855 41.0454 34.8855Z" fill="#666666"/>
<path d="M41.3079 34.8855H41.2095C41.1665 34.8855 41.1316 34.9398 41.1316 35.0067V45.0198C41.1316 45.0868 41.1665 45.1411 41.2095 45.1411H41.3079C41.3509 45.1411 41.3857 45.0868 41.3857 45.0198V35.0067C41.3857 34.9398 41.3509 34.8855 41.3079 34.8855Z" fill="#666666"/>
<path d="M44.0371 37.6236H43.2134C43.0291 37.6236 42.8796 37.8563 42.8796 38.1433V40.1192C42.8796 40.4062 43.0291 40.6389 43.2134 40.6389H44.0371C44.2214 40.6389 44.3708 40.4062 44.3708 40.1192V38.1433C44.3708 37.8563 44.2214 37.6236 44.0371 37.6236Z" fill="#333333"/>
<path d="M49.8554 34.4209H41.5106C41.4348 34.4209 41.3733 34.5155 41.3733 34.6322V45.3675C41.3733 45.4843 41.4348 45.5789 41.5106 45.5789H49.8554C49.9312 45.5789 49.9927 45.4843 49.9927 45.3675V34.6322C49.9927 34.5155 49.9312 34.4209 49.8554 34.4209Z" fill="#F3F5FF"/>
<path d="M42.0581 45.577H50.0001V46.1491C50.0001 46.4161 49.861 46.6327 49.6895 46.6327H42.3691C42.1976 46.6327 42.0585 46.4161 42.0585 46.1491L42.0581 45.577Z" fill="#333333"/>
<path d="M49.8961 44.2686H41.3855V44.7951H49.8961V44.2686Z" fill="#FB724A"/>
<path d="M44.0371 37.6236H43.2134C43.0291 37.6236 42.8796 37.8563 42.8796 38.1433V40.1192C42.8796 40.4062 43.0291 40.6389 43.2134 40.6389H44.0371C44.2214 40.6389 44.3708 40.4062 44.3708 40.1192V38.1433C44.3708 37.8563 44.2214 37.6236 44.0371 37.6236Z" fill="#333333"/>
<path d="M46.1159 37.6236H45.2923C45.1079 37.6236 44.9585 37.8563 44.9585 38.1433V40.1192C44.9585 40.4062 45.1079 40.6389 45.2923 40.6389H46.1159C46.3003 40.6389 46.4497 40.4062 46.4497 40.1192V38.1433C46.4497 37.8563 46.3003 37.6236 46.1159 37.6236Z" fill="#333333"/>
<path d="M48.0691 37.5868H47.2454C47.0611 37.5868 46.9116 37.8195 46.9116 38.1065V40.0824C46.9116 40.3695 47.0611 40.6021 47.2454 40.6021H48.0691C48.2534 40.6021 48.4028 40.3695 48.4028 40.0824V38.1065C48.4028 37.8195 48.2534 37.5868 48.0691 37.5868Z" fill="#333333"/>
<defs>
<linearGradient id="paint0_linear_1861_3735" x1="24.9998" y1="0" x2="24.9998" y2="50" gradientUnits="userSpaceOnUse">
<stop offset="0.52" stop-color="white"/>
<stop offset="1" stop-color="#8EA2D7"/>
</linearGradient>
</defs>
</svg>
