<svg width="511" height="406" viewBox="0 0 511 406" fill="none" xmlns="http://www.w3.org/2000/svg">
<circle cx="248.5" cy="202.5" r="202.5" fill="url(#paint0_linear_1503_3131)"/>
<circle cx="483.5" cy="174.5" r="8.5" fill="#657EA3"/>
<circle cx="6" cy="183" r="6" fill="#021830"/>
<circle cx="54" cy="97.0001" r="6" fill="#FFD867"/>
<path d="M495.025 286.335L494.625 300.586L502.949 311.148L489.512 311.708L478.957 321.29L479.357 307.04L471.034 296.478L484.47 295.917L495.025 286.335Z" fill="#F7B801"/>
<path d="M42.4825 310.52L52.2329 320.272L65.9699 321.484L56.2178 331.234L55.0059 344.971L45.2555 335.219L31.5185 334.007L41.2706 324.257L42.4825 310.52Z" fill="#021830"/>
<path d="M437.752 74.3339L436.233 85.9064L442.502 95.7518L430.93 94.2331L421.084 100.502L422.603 88.9295L416.334 79.0842L427.907 80.6028L437.752 74.3339Z" fill="#021830"/>
<g filter="url(#filter0_d_1503_3131)">
<path fill-rule="evenodd" clip-rule="evenodd" d="M382.091 241.945L405.79 99.9086C406.517 95.5506 403.573 91.4282 399.215 90.7011L109.224 42.3167C104.866 41.5896 100.744 44.533 100.017 48.8911L90.9649 103.142C93.1666 103.51 95.2743 104.307 97.1678 105.489C99.0616 106.671 100.704 108.215 102.001 110.032C103.299 111.848 104.225 113.903 104.729 116.078C105.232 118.253 105.302 120.506 104.934 122.708C104.567 124.91 103.769 127.018 102.587 128.912C101.405 130.806 99.8616 132.448 98.0447 133.745C96.2279 135.043 94.1733 135.969 91.9983 136.473C89.8236 136.976 87.5711 137.046 85.3694 136.679L76.3181 190.928C75.5909 195.286 78.5343 199.408 82.8924 200.135L163.777 213.632L165.621 202.56C165.893 200.927 167.438 199.823 169.071 200.095C170.704 200.367 171.808 201.911 171.536 203.544L169.692 214.616L166.047 214.009L372.884 248.519C377.242 249.247 381.364 246.303 382.091 241.945ZM190.105 55.8126L188.258 66.8838C187.985 68.5169 189.088 70.0616 190.721 70.3341C192.354 70.6066 193.899 69.5036 194.171 67.8705L196.019 56.7993L190.105 55.8126ZM185.613 82.7333L184.259 90.8476C183.987 92.4806 185.09 94.0254 186.723 94.2979C188.356 94.5703 189.901 93.4674 190.173 91.8343L191.527 83.72C191.799 82.0869 190.696 80.5422 189.063 80.2697C187.43 79.9973 185.886 81.1002 185.613 82.7333ZM177.616 130.663L176.262 138.777C175.99 140.41 177.093 141.955 178.726 142.227C180.359 142.5 181.904 141.397 182.176 139.764L183.53 131.649C183.803 130.016 182.7 128.471 181.067 128.199C179.433 127.926 177.889 129.029 177.616 130.663ZM181.614 106.699L180.261 114.813C179.988 116.446 181.091 117.991 182.724 118.263C184.357 118.536 185.902 117.433 186.175 115.8L187.528 107.686C187.801 106.053 186.698 104.508 185.065 104.235C183.432 103.963 181.887 105.066 181.614 106.699ZM173.618 154.627L172.264 162.741C171.991 164.375 173.094 165.919 174.727 166.192C176.361 166.464 177.905 165.361 178.178 163.728L179.532 155.614C179.804 153.981 178.701 152.436 177.068 152.164C175.435 151.891 173.89 152.994 173.618 154.627ZM169.619 178.594L168.265 186.708C167.993 188.341 169.096 189.886 170.729 190.158C172.362 190.431 173.907 189.328 174.179 187.695L175.533 179.58C175.805 177.947 174.702 176.403 173.069 176.13C171.436 175.858 169.891 176.961 169.619 178.594ZM384.938 185.349C386.831 186.531 388.94 187.328 391.142 187.696L396.737 154.159C394.535 153.792 392.282 153.862 390.107 154.365C387.932 154.868 385.878 155.795 384.061 157.092C382.244 158.39 380.7 160.032 379.518 161.926C378.336 163.82 377.538 165.928 377.171 168.13C376.804 170.332 376.874 172.585 377.377 174.76C377.88 176.935 378.807 178.989 380.104 180.806C381.401 182.623 383.044 184.167 384.938 185.349Z" fill="#F7B801"/>
<path fill-rule="evenodd" clip-rule="evenodd" d="M90.9649 103.142L85.3694 136.679L85.3684 136.678L90.9639 103.142L90.9649 103.142Z" fill="white"/>
<path d="M169.692 214.616L171.536 203.544C171.808 201.911 170.704 200.367 169.071 200.095C167.438 199.823 165.893 200.927 165.621 202.56L163.777 213.632L166.047 214.009L169.692 214.616Z" fill="white"/>
<path d="M168.265 186.708L169.619 178.594C169.891 176.961 171.436 175.858 173.069 176.13C174.702 176.403 175.805 177.947 175.533 179.58L174.179 187.695C173.907 189.328 172.362 190.431 170.729 190.158C169.096 189.886 167.993 188.341 168.265 186.708Z" fill="white"/>
<path d="M172.264 162.741L173.618 154.627C173.89 152.994 175.435 151.891 177.068 152.164C178.701 152.436 179.804 153.981 179.532 155.614L178.178 163.728C177.905 165.361 176.361 166.464 174.727 166.192C173.094 165.919 171.991 164.375 172.264 162.741Z" fill="white"/>
<path d="M176.262 138.777L177.616 130.663C177.889 129.029 179.433 127.926 181.067 128.199C182.7 128.471 183.803 130.016 183.53 131.649L182.176 139.764C181.904 141.397 180.359 142.5 178.726 142.227C177.093 141.955 175.99 140.41 176.262 138.777Z" fill="white"/>
<path d="M180.261 114.813L181.614 106.699C181.887 105.066 183.432 103.963 185.065 104.235C186.698 104.508 187.801 106.053 187.528 107.686L186.175 115.8C185.902 117.433 184.357 118.536 182.724 118.263C181.091 117.991 179.988 116.446 180.261 114.813Z" fill="white"/>
<path d="M184.259 90.8476L185.613 82.7333C185.886 81.1002 187.43 79.9973 189.063 80.2697C190.696 80.5422 191.799 82.0869 191.527 83.72L190.173 91.8343C189.901 93.4674 188.356 94.5703 186.723 94.2979C185.09 94.0254 183.987 92.4806 184.259 90.8476Z" fill="white"/>
<path d="M188.258 66.8838L190.105 55.8126L196.019 56.7993L194.171 67.8705C193.899 69.5036 192.354 70.6066 190.721 70.3341C189.088 70.0616 187.985 68.5169 188.258 66.8838Z" fill="white"/>
</g>
<g filter="url(#filter1_d_1503_3131)">
<path fill-rule="evenodd" clip-rule="evenodd" d="M93.6933 250.886L142.166 386.482C143.654 390.642 148.232 392.809 152.392 391.322L429.235 292.356C433.395 290.869 435.562 286.291 434.075 282.13L415.561 230.339C413.459 231.09 411.23 231.42 409 231.31C406.77 231.2 404.584 230.652 402.566 229.697C400.548 228.742 398.738 227.398 397.24 225.744C395.741 224.089 394.583 222.156 393.831 220.053C393.08 217.951 392.75 215.722 392.86 213.492C392.97 211.262 393.518 209.076 394.473 207.058C395.429 205.04 396.772 203.23 398.426 201.731C400.081 200.233 402.014 199.075 404.116 198.323L385.602 146.534C384.115 142.374 379.536 140.207 375.376 141.694L298.158 169.297L301.939 179.865C302.497 181.424 301.686 183.14 300.127 183.698C298.568 184.256 296.852 183.444 296.295 181.885L292.513 171.317L295.992 170.072L98.5335 240.66C94.373 242.147 92.206 246.725 93.6933 250.886ZM352.021 319.958L348.243 309.389C347.685 307.83 345.97 307.017 344.411 307.575C342.852 308.132 342.04 309.848 342.597 311.407L346.375 321.976L352.021 319.958ZM342.834 294.258L340.064 286.511C339.507 284.952 337.791 284.14 336.232 284.698C334.673 285.255 333.861 286.971 334.419 288.53L337.188 296.276C337.745 297.835 339.461 298.647 341.02 298.09C342.579 297.532 343.391 295.817 342.834 294.258ZM326.477 248.502L323.708 240.755C323.15 239.196 321.435 238.384 319.876 238.942C318.317 239.499 317.505 241.214 318.062 242.774L320.831 250.52C321.388 252.079 323.104 252.891 324.663 252.334C326.222 251.776 327.034 250.061 326.477 248.502ZM334.655 271.379L331.886 263.632C331.328 262.073 329.613 261.261 328.054 261.819C326.495 262.376 325.683 264.092 326.24 265.651L329.009 273.397C329.566 274.956 331.282 275.768 332.841 275.211C334.4 274.653 335.212 272.938 334.655 271.379ZM318.298 225.624L315.529 217.877C314.972 216.318 313.256 215.506 311.697 216.064C310.138 216.621 309.326 218.336 309.883 219.896L312.653 227.642C313.21 229.201 314.926 230.013 316.485 229.456C318.044 228.898 318.856 227.183 318.298 225.624ZM310.119 202.744L307.35 194.997C306.793 193.438 305.077 192.626 303.518 193.184C301.959 193.741 301.147 195.457 301.704 197.016L304.473 204.762C305.031 206.321 306.746 207.133 308.305 206.576C309.864 206.018 310.677 204.303 310.119 202.744ZM118.769 301.703C116.54 301.593 114.31 301.923 112.208 302.675L123.653 334.69C125.755 333.939 127.689 332.781 129.343 331.282C130.998 329.783 132.341 327.973 133.296 325.955C134.251 323.938 134.799 321.751 134.91 319.522C135.02 317.292 134.69 315.062 133.938 312.96C133.187 310.858 132.029 308.924 130.53 307.27C129.031 305.615 127.221 304.272 125.203 303.317C123.185 302.362 120.999 301.813 118.769 301.703Z" fill="#5550E9"/>
<path fill-rule="evenodd" clip-rule="evenodd" d="M415.561 230.339L404.116 198.323L404.117 198.323L415.562 230.339L415.561 230.339Z" fill="white"/>
<path d="M348.243 309.389L352.021 319.958L346.375 321.976L342.597 311.407C342.04 309.848 342.852 308.132 344.411 307.575C345.97 307.017 347.685 307.83 348.243 309.389Z" fill="white"/>
<path d="M340.064 286.511L342.834 294.258C343.391 295.817 342.579 297.532 341.02 298.09C339.461 298.647 337.745 297.835 337.188 296.276L334.419 288.53C333.861 286.971 334.673 285.255 336.232 284.698C337.791 284.14 339.507 284.952 340.064 286.511Z" fill="white"/>
<path d="M331.886 263.632L334.655 271.379C335.212 272.938 334.4 274.653 332.841 275.211C331.282 275.768 329.566 274.956 329.009 273.397L326.24 265.651C325.683 264.092 326.495 262.376 328.054 261.819C329.613 261.261 331.328 262.073 331.886 263.632Z" fill="white"/>
<path d="M323.708 240.755L326.477 248.502C327.034 250.061 326.222 251.776 324.663 252.334C323.104 252.891 321.388 252.079 320.831 250.52L318.062 242.774C317.505 241.214 318.317 239.499 319.876 238.942C321.435 238.384 323.15 239.196 323.708 240.755Z" fill="white"/>
<path d="M315.529 217.877L318.298 225.624C318.856 227.183 318.044 228.898 316.485 229.456C314.926 230.013 313.21 229.201 312.653 227.642L309.883 219.896C309.326 218.336 310.138 216.621 311.697 216.064C313.256 215.506 314.972 216.318 315.529 217.877Z" fill="white"/>
<path d="M307.35 194.997L310.119 202.744C310.677 204.303 309.864 206.018 308.305 206.576C306.746 207.133 305.031 206.321 304.473 204.762L301.704 197.016C301.147 195.457 301.959 193.741 303.518 193.184C305.077 192.626 306.793 193.438 307.35 194.997Z" fill="white"/>
<path d="M292.513 171.317L296.295 181.885C296.852 183.444 298.568 184.256 300.127 183.698C301.686 183.14 302.497 181.424 301.939 179.865L298.158 169.297L295.992 170.072L292.513 171.317Z" fill="white"/>
</g>
<defs>
<filter id="filter0_d_1503_3131" x="51.9075" y="21.9064" width="378.292" height="255.023" filterUnits="userSpaceOnUse" color-interpolation-filters="sRGB">
<feFlood flood-opacity="0" result="BackgroundImageFix"/>
<feColorMatrix in="SourceAlpha" type="matrix" values="0 0 0 0 0 0 0 0 0 0 0 0 0 0 0 0 0 0 127 0" result="hardAlpha"/>
<feOffset dy="4"/>
<feGaussianBlur stdDeviation="12.15"/>
<feComposite in2="hardAlpha" operator="out"/>
<feColorMatrix type="matrix" values="0 0 0 0 0 0 0 0 0 0 0 0 0 0 0 0 0 0 0.25 0"/>
<feBlend mode="normal" in2="BackgroundImageFix" result="effect1_dropShadow_1503_3131"/>
<feBlend mode="normal" in="SourceGraphic" in2="effect1_dropShadow_1503_3131" result="shape"/>
</filter>
<filter id="filter1_d_1503_3131" x="83.1241" y="135.125" width="361.52" height="270.766" filterUnits="userSpaceOnUse" color-interpolation-filters="sRGB">
<feFlood flood-opacity="0" result="BackgroundImageFix"/>
<feColorMatrix in="SourceAlpha" type="matrix" values="0 0 0 0 0 0 0 0 0 0 0 0 0 0 0 0 0 0 127 0" result="hardAlpha"/>
<feOffset dy="4"/>
<feGaussianBlur stdDeviation="5.05"/>
<feComposite in2="hardAlpha" operator="out"/>
<feColorMatrix type="matrix" values="0 0 0 0 0 0 0 0 0 0 0 0 0 0 0 0 0 0 0.25 0"/>
<feBlend mode="normal" in2="BackgroundImageFix" result="effect1_dropShadow_1503_3131"/>
<feBlend mode="normal" in="SourceGraphic" in2="effect1_dropShadow_1503_3131" result="shape"/>
</filter>
<linearGradient id="paint0_linear_1503_3131" x1="76.2098" y1="363.934" x2="416.542" y2="39.1783" gradientUnits="userSpaceOnUse">
<stop stop-color="#FFE1E1"/>
<stop offset="0.543269" stop-color="#8F8CF4"/>
<stop offset="1" stop-color="#86B8FF"/>
</linearGradient>
</defs>
</svg>
